<?xml version="1.0" encoding="utf-8"?>
<!-- Generator: Adobe Illustrator 15.1.0, SVG Export Plug-In . SVG Version: 6.00 Build 0)  -->
<!DOCTYPE svg PUBLIC "-//W3C//DTD SVG 1.1//EN" "http://www.w3.org/Graphics/SVG/1.1/DTD/svg11.dtd">
<svg version="1.1" id="Calque_1" xmlns="http://www.w3.org/2000/svg" xmlns:xlink="http://www.w3.org/1999/xlink" x="0px" y="0px"
	 width="841.89px" height="238.11px" viewBox="0 0 841.89 238.11" enable-background="new 0 0 841.89 238.11" xml:space="preserve">
<rect y="-0.504" fill="#FFFFFF" width="841.89" height="239.119"/>
<g>
	<defs>
		<rect id="SVGID_1_" y="-194.43" width="841.89" height="595.28"/>
	</defs>
	<clipPath id="SVGID_2_">
		<use xlink:href="#SVGID_1_"  overflow="visible"/>
	</clipPath>
	<path clip-path="url(#SVGID_2_)" fill="#C21A18" d="M13.527,115.071H4.644V67.323h20.185c5.754,0,10.021,1.405,12.801,4.215
		c2.78,2.81,4.17,6.127,4.17,9.952c0,4.36-1.504,7.894-4.513,10.599c-3.01,2.705-6.825,4.057-11.447,4.057H13.527V115.071z
		 M13.527,88.765h10.507c2.745,0,4.839-0.652,6.284-1.958c1.444-1.306,2.166-3.044,2.166-5.212c0-1.959-0.667-3.639-2.004-5.038
		c-1.336-1.399-3.749-2.098-7.24-2.098h-9.713V88.765z"/>
	<path clip-path="url(#SVGID_2_)" fill="#C21A18" d="M57.377,115.07H47.58V80.276h8.851v8.302c1.26-3.238,2.993-5.604,5.199-7.097
		c2.205-1.493,4.469-2.239,6.789-2.239c0.315,0,0.745,0.012,1.29,0.034v8.44c-4.985,0-8.287,1.275-9.905,3.825
		c-1.618,2.549-2.427,5.018-2.427,7.406V115.07z"/>
	<path clip-path="url(#SVGID_2_)" fill="#C21A18" d="M104.568,115.07h-7.786v-7.51c-2.106,5.489-6.01,8.234-11.715,8.234
		c-3.378,0-6.06-0.983-8.043-2.946c-1.983-1.964-2.975-4.703-2.975-8.216V80.276h8.558v22.668c0,2.503,0.587,4.146,1.762,4.926
		c1.176,0.781,2.326,1.173,3.452,1.173c1.812,0,3.661-0.765,5.546-2.291c1.885-1.528,2.828-4.785,2.828-9.768V80.276h8.373V115.07z"
		/>
	<path clip-path="url(#SVGID_2_)" fill="#C21A18" d="M146.113,115.07h-7.822v-7.027c-2.155,5.167-5.803,7.751-10.945,7.751
		c-4.553,0-8.042-1.778-10.466-5.34c-2.424-3.56-3.636-7.98-3.636-13.263c0-4.915,1.261-9.198,3.783-12.85
		c2.521-3.652,6.108-5.478,10.76-5.478c4.774,0,8.092,2.045,9.953,6.132V68.046h8.373V115.07z M137.74,94.538
		c0-2.825-0.716-5.024-2.148-6.597c-1.433-1.573-3.288-2.36-5.564-2.36c-2.474,0-4.408,1.011-5.803,3.032
		c-1.396,2.021-2.093,5.041-2.093,9.06c0,7.763,2.594,11.644,7.785,11.644c2.057,0,3.875-0.832,5.454-2.498
		c1.579-1.665,2.369-3.795,2.369-6.39V94.538z"/>
	<path clip-path="url(#SVGID_2_)" fill="#C21A18" d="M177.717,103.978l7.566,0.965c-0.98,3.147-2.89,5.741-5.729,7.785
		c-2.841,2.045-6.403,3.067-10.687,3.067c-5.142,0-9.28-1.619-12.414-4.858c-3.134-3.238-4.701-7.625-4.701-13.16
		c0-5.259,1.58-9.612,4.738-13.057c3.158-3.444,7.442-5.167,12.854-5.167c5.288,0,9.377,1.7,12.266,5.099s4.334,7.763,4.334,13.09
		l-0.037,0.896h-25.451c0,2.366,0.239,4.261,0.717,5.684c0.477,1.425,1.426,2.665,2.846,3.723c1.419,1.056,3.195,1.584,5.325,1.584
		C173.481,109.628,176.272,107.744,177.717,103.978 M177.203,93.573c-0.024-2.503-0.826-4.547-2.405-6.132
		c-1.58-1.585-3.532-2.377-5.858-2.377c-2.302,0-4.223,0.74-5.766,2.222c-1.542,1.481-2.449,3.578-2.718,6.287H177.203z"/>
	<path clip-path="url(#SVGID_2_)" fill="#C21A18" d="M223.284,115.07h-8.373V93.333c0-2.296-0.564-4.025-1.69-5.185
		c-1.126-1.159-2.485-1.74-4.076-1.74c-2.179,0-4.089,0.896-5.729,2.687c-1.641,1.792-2.461,4.491-2.461,8.097v17.879h-8.373V80.276
		h7.639v8.061c2.668-5.857,6.414-8.785,11.238-8.785c3.256,0,6.041,0.964,8.355,2.893c2.313,1.93,3.47,5.318,3.47,10.164V115.07z"/>
	<path clip-path="url(#SVGID_2_)" fill="#C21A18" d="M255.721,102.289l7.198,0.689c-0.93,4.364-2.73,7.591-5.398,9.681
		c-2.669,2.09-5.889,3.135-9.659,3.135c-5.118,0-9.053-1.751-11.807-5.254c-2.754-3.502-4.132-7.791-4.132-12.867
		c0-5.237,1.506-9.565,4.518-12.988c3.011-3.422,7.026-5.133,12.045-5.133c8.08,0,12.891,3.996,14.433,11.989l-7.198,0.93
		c-0.637-4.318-2.901-6.477-6.794-6.477c-2.84,0-4.903,1.166-6.188,3.497c-1.286,2.331-1.928,5.151-1.928,8.458
		c0,3.513,0.667,6.224,2.001,8.13c1.334,1.906,3.201,2.859,5.601,2.859C252.085,108.938,254.521,106.723,255.721,102.289"/>
	<path clip-path="url(#SVGID_2_)" fill="#C21A18" d="M292.924,103.978l7.566,0.965c-0.98,3.147-2.89,5.741-5.729,7.785
		c-2.841,2.045-6.403,3.067-10.687,3.067c-5.142,0-9.28-1.619-12.414-4.858c-3.134-3.238-4.701-7.625-4.701-13.16
		c0-5.259,1.58-9.612,4.738-13.057c3.158-3.444,7.442-5.167,12.854-5.167c5.288,0,9.377,1.7,12.266,5.099s4.334,7.763,4.334,13.09
		l-0.037,0.896h-25.451c0,2.366,0.239,4.261,0.717,5.684c0.477,1.425,1.426,2.665,2.846,3.723c1.419,1.056,3.195,1.584,5.325,1.584
		C288.688,109.628,291.479,107.744,292.924,103.978 M292.41,93.573c-0.024-2.503-0.826-4.547-2.405-6.132
		c-1.58-1.585-3.532-2.377-5.858-2.377c-2.302,0-4.223,0.74-5.766,2.222c-1.542,1.481-2.449,3.578-2.718,6.287H292.41z"/>
	<path clip-path="url(#SVGID_2_)" fill="#C21A18" d="M358.091,98.741l8.373,0.861c-0.539,4.709-2.479,8.584-5.821,11.628
		c-3.342,3.043-7.73,4.563-13.166,4.563c-4.578,0-8.294-1.079-11.146-3.238c-2.852-2.158-5.05-5.087-6.592-8.785
		c-1.543-3.697-2.314-7.774-2.314-12.23c0-7.166,1.812-12.993,5.436-17.483c3.623-4.49,8.605-6.735,14.947-6.735
		c4.97,0,9.108,1.435,12.413,4.306c3.305,2.871,5.386,6.982,6.243,12.333l-8.373,0.827c-1.542-7.097-4.946-10.645-10.21-10.645
		c-3.378,0-6.004,1.476-7.877,4.427c-1.873,2.951-2.81,7.229-2.81,12.832c0,5.696,1.004,9.997,3.012,12.902
		c2.007,2.905,4.664,4.357,7.969,4.357c2.644,0,4.896-0.976,6.757-2.927C356.793,103.783,357.847,101.451,358.091,98.741"/>
	<path clip-path="url(#SVGID_2_)" fill="#C21A18" d="M384.522,115.07h-8.374V80.276h7.566v8.302
		c1.077-3.238,2.558-5.604,4.444-7.097c1.885-1.493,3.819-2.239,5.802-2.239c0.27,0,0.637,0.012,1.102,0.034v8.44
		c-4.26,0-7.082,1.275-8.465,3.825c-1.384,2.549-2.075,5.018-2.075,7.406V115.07z"/>
	<path clip-path="url(#SVGID_2_)" fill="#C21A18" d="M423.662,103.978l7.565,0.965c-0.979,3.146-2.889,5.74-5.729,7.784
		c-2.841,2.046-6.403,3.066-10.687,3.066c-5.141,0-9.28-1.619-12.413-4.857c-3.134-3.238-4.701-7.625-4.701-13.16
		c0-5.26,1.58-9.612,4.738-13.057c3.158-3.445,7.442-5.168,12.853-5.168c5.289,0,9.377,1.7,12.267,5.099
		c2.89,3.4,4.333,7.763,4.333,13.091l-0.036,0.896h-25.451c0,2.366,0.239,4.26,0.716,5.684c0.477,1.424,1.426,2.666,2.847,3.721
		c1.419,1.057,3.194,1.584,5.324,1.584C419.427,109.627,422.218,107.744,423.662,103.978 M423.149,93.573
		c-0.025-2.502-0.827-4.547-2.406-6.131c-1.579-1.585-3.532-2.377-5.858-2.377c-2.301,0-4.223,0.74-5.765,2.221
		c-1.543,1.482-2.449,3.578-2.718,6.287H423.149z M423.883,63.843l2.424,5.167l-15.313,6.064l-1.543-3.686L423.883,63.843z"/>
	<path clip-path="url(#SVGID_2_)" fill="#C21A18" d="M454.034,115.795c-5.485,0-9.672-1.85-12.56-5.547
		c-2.89-3.698-4.333-7.936-4.333-12.712c0-5.145,1.597-9.427,4.791-12.85c3.195-3.422,7.413-5.133,12.652-5.133
		c4.971,0,9.054,1.665,12.248,4.995c3.194,3.331,4.792,7.66,4.792,12.988c0,5.489-1.658,9.904-4.976,13.246
		C463.331,114.124,459.126,115.795,454.034,115.795 M454.328,109.317c5.631,0,8.446-3.938,8.446-11.816
		c0-3.56-0.674-6.368-2.02-8.424c-1.347-2.055-3.416-3.083-6.207-3.083c-2.889,0-5.031,1.063-6.427,3.187s-2.094,4.943-2.094,8.457
		c0,3.79,0.74,6.683,2.223,8.682C449.73,108.318,451.757,109.317,454.328,109.317"/>
	<rect x="477.264" y="68.046" clip-path="url(#SVGID_2_)" fill="#C21A18" width="8.374" height="47.024"/>
	<path clip-path="url(#SVGID_2_)" fill="#C21A18" d="M519.279,103.978l7.563,0.965c-0.979,3.147-2.889,5.741-5.728,7.785
		c-2.842,2.045-6.404,3.067-10.688,3.067c-5.141,0-9.279-1.619-12.413-4.858c-3.134-3.238-4.7-7.625-4.7-13.16
		c0-5.259,1.579-9.612,4.737-13.057c3.158-3.444,7.443-5.167,12.854-5.167c5.289,0,9.377,1.7,12.266,5.099s4.333,7.763,4.333,13.09
		l-0.036,0.896h-25.451c0,2.366,0.239,4.261,0.718,5.684c0.477,1.425,1.426,2.665,2.845,3.723c1.42,1.056,3.196,1.584,5.326,1.584
		C515.042,109.628,517.833,107.744,519.279,103.978 M518.764,93.573c-0.023-2.503-0.826-4.547-2.404-6.132
		c-1.579-1.585-3.532-2.377-5.858-2.377c-2.301,0-4.223,0.74-5.766,2.222c-1.542,1.481-2.449,3.578-2.719,6.287H518.764z"/>
	<path clip-path="url(#SVGID_2_)" fill="#C5281C" d="M654.34,184.691l0.022-15.459c9.719,0,13.284-0.487,14.977,11.397h1.027
		v-13.227l-26.466,0.011v1.818h4.582v34.025h-5.051v1.792h27.275v-13.904h-1.368c-1.357,10.514-4.029,12.116-11.526,12.116h-3.473
		v-16.533h2.013c3.361,0.084,5.277,2.04,5.963,7.811h1.237l-0.01-17.093c-0.021,0.033-1.219,0-1.219,0
		c0,0.086-0.24,7.352-6.119,7.245H654.34z"/>
	<path clip-path="url(#SVGID_2_)" fill="#C5281C" d="M643.524,185.372h-14.932v1.687h5.112v12.235
		c-0.863,3.108-5.453,4.404-6.822,4.404c-9.537,0-8.854-13.913-8.854-17.639c0-3.406-0.342-17.647,8.854-17.647
		c6.481,0,9.89,6.435,11.256,12.213h1.034c0-2.379,0.04-13.707,0.016-13.68c0.024-0.089-4.442,3.196-4.458,3.145
		c0.102-0.021-2.042-3.044-7.848-3.044c-11.254,0-15.381,11.2-15.349,19.014c0.054,7.149,3.357,19.332,15.349,19.332
		c3.771,0,6.427-1.913,7.848-4.084c0.016-0.047,4.753,3.729,4.77,3.742v-17.991h4.024V185.372z"/>
	<path clip-path="url(#SVGID_2_)" fill="#C5281C" d="M818.001,191.146c-1.359,10.514-4.031,12.09-11.527,12.09h-0.456v-34.019h4.771
		v-1.832h-15.685v1.832h4.771v34.019h-3.784l-13.934-36.867h-2.053c0.047-0.021-11.575,33.451-11.599,33.549
		c0.023-0.098-0.877,2.872-2.789,3.241c-1.762,0.084-1.634-0.833-1.634-1.157v-6.446c0-1.688-0.128-5.535-1.893-7.301
		c-1.977-1.985-5.354-2.131-5.275-2.206c0,0,8.567-1.765,8.567-9.884c0-5.692-3.97-8.522-10.604-8.771h-18.831v1.83h4.818v34.02
		h-4.818v1.808h15.449v-1.808h-4.82v-16.358h6.424c11.147,0.917-1.911,18.185,12.694,18.166h9.205v-1.814
		c-0.512,0-3.886,0.096-4.095-2.245c-0.14-1.696,2.22-7.781,2.22-7.781h12.534c-0.007-0.023,3.898,10.033,3.934,10.033h-4.369v1.808
		h34.147v-13.904H818.001z M752.829,184.976h-6.125V169.21h7.833c4.597,0.695,4.785,5.991,4.785,7.678
		C759.322,180.965,757.613,184.976,752.829,184.976 M773.975,191.471l5.444-16.27l5.804,16.27H773.975z"/>
	<path clip-path="url(#SVGID_2_)" fill="#C5281C" d="M717.476,169.21c9.722,0,13.311-0.465,15.002,11.419h1.026v-13.226h-38.589
		v1.807h1.009c1.361,0,4.593,0.102,4.779,2.938h-0.001v21.704l-18.055-26.449h-9.827v1.807h1.632c1.937,0,4.655,0.087,4.777,2.938
		v27.808c0,2.713-4.072,3.742-5.774,3.742h-0.021v1.352h13.299v-1.352c-1.701,0-5.803-1.029-5.803-3.742l0.046-24.48
		c7.146,10.183,20.635,29.592,20.759,29.574h0.676v-32.901c0.186-2.837,3.418-2.938,4.778-2.938h4.432v34.048h-5.053v1.792h27.277
		v-13.903h-1.368c-1.357,10.513-4.028,12.115-11.528,12.115h-3.474v-16.532h2.015c3.362,0.084,5.276,2.04,5.962,7.809h1.239
		l-0.01-17.092c-0.022,0.034-1.219,0-1.219,0c0,0.086-0.24,7.352-6.121,7.245h-1.866V169.21z"/>
	<polygon clip-path="url(#SVGID_2_)" fill="#C5281C" points="836.521,169.215 836.521,167.381 821.126,167.381 821.126,169.215 
		825.961,169.215 825.978,203.217 821.126,203.217 821.126,205.05 836.521,205.05 836.521,203.217 831.687,203.217 831.687,169.215 
			"/>
	<path clip-path="url(#SVGID_2_)" fill="#C5281C" d="M795.87,144.165l4.767-1.796l0.07-0.022c6.766-2.795,7.729-4.541,7.412-9.027
		v-18.139c5.147,13.037,10.016,22.204,19.996,22.2c1.356,0,2.808-0.167,4.365-0.52l3.895-0.879l-2.68-2.946
		c-1.708-1.881-2.539-3.34-3.496-5.027c-0.394-0.693-0.8-1.409-1.29-2.203c-2.337-3.778-7.891-5.059-12.39-3.049
		c-2.041-4.041-4.096-9.312-6.57-15.814l-0.539-1.237c-0.425-0.97-0.854-1.949-1.291-2.928v-0.163h-0.07
		c-1.534-3.433-3.168-6.88-5.122-10.11c-1.777-2.932-3.584-5.462-5.523-7.734c-5.205-6.097-12.094-9.886-20.478-11.268
		c-5.796-0.954-9.901-1.155-15.098-1.409c-1.076-0.051-2.2-0.109-3.4-0.172c-2.353-0.13-7.212-0.525-11.911-0.912
		c-3.17-0.257-6.419-0.522-8.973-0.712c0.171-0.716,0.271-1.459,0.271-2.23c0-1.037-0.096-1.959-0.278-2.781h33.352
		c8.597,0,14.82-3.792,18.522-11.251c8.548-0.077,14.726-3.944,18.378-11.486h1.19c8.898,0,15.26-4.049,18.91-12.037l1.504-3.286
		H716.391c-7.423,0-13.747,4.831-16.111,12.301l-0.073,0.26c-1.922-5.342-5.438-9.877-9.945-12.547
		c-6.266-3.719-13.395-4.967-19.072-3.339c-1.879,0.542-3.748,1.385-5.265,2.384c-1.304,0.858-3.131,2.234-4.458,3.927
		c-1.445,1.846-2.843,4.082-3.865,6.172c-0.65,0.534-1.155,1.08-1.505,1.61l-1.354,2.532l-0.069,0.143
		c-1.619,3.647-3.588,6.17-5.12,7.957c-1.524,1.771-1.602,3.45-1.398,4.55c0.227,1.202,0.872,2.183,1.563,2.922l-0.04,0.07
		c-0.452,0.774-0.688,1.661-0.688,2.562c0,2.973,2.596,5.222,5.786,5.222c2.319,0,4.216-1.08,6.221-2.403
		c0.815-0.538,2.974-1.967,3.681-2.044c0.894,0,1.708,0.809,1.708,1.699c0,2.435-3.151,3.749-5.408,3.912l-4.588,0.489
		c-3.304,0.31-4.87,2.055-4.87,3.616c0,1.567,0.755,2.45,1.279,2.972l0.341,0.349l1.165,1.034l-4.868,7.814
		c-3.469-3.205-7.528-5.144-11.129-5.256c-2.327-0.078-4.337,0.623-5.819,2.017c-0.429,0.406-0.806,0.869-1.125,1.378h-0.086
		c-3.845,0-6.938,2.051-8.455,4.358c-1.646,2.52-1.056,6.883,1.037,10.213l-12.286,3.18v58.561H836.89v-11.676H795.87z
		 M824.932,128.244c0.447,0.721,0.829,1.397,1.202,2.048c0.457,0.806,0.9,1.588,1.426,2.403c-3.538-0.22-6.216-2.175-8.697-5.867
		C821.149,126.03,823.915,126.597,824.932,128.244 M776.162,78.089c7.265,1.194,13.215,4.455,17.682,9.688
		c0.958,1.123,1.879,2.315,2.786,3.604c-12.223-1.598-16.478-3.373-23.312-13.718C774.229,77.783,775.171,77.922,776.162,78.089
		 M770.889,60.64h-22.935c1.966-1.723,3.61-3.929,4.937-6.596h31.163C781.128,58.521,776.879,60.64,770.889,60.64 M789.143,49.395
		h-22.934c2.028-1.773,3.718-4.064,5.063-6.845h31.203C799.543,47.201,795.245,49.395,789.143,49.395 M790.702,31.875h31.068
		c-2.914,4.093-7.057,6.027-12.791,6.027h-22.937C787.872,36.301,789.427,34.291,790.702,31.875 M665.148,33.071
		c0.732-0.935,1.924-1.969,3.352-2.909c1.114-0.733,2.568-1.388,3.985-1.796c2.254-0.646,4.843-0.689,7.519-0.176l-8.24,5.067
		c-1.027-0.105-2.034-0.159-3.004-0.159c-1.4,0-2.686,0.112-3.863,0.302C664.981,33.29,665.063,33.175,665.148,33.071
		 M655.521,69.353c0.071-0.321,0.33-0.576,0.606-0.569l4.013,0.128c4.897-0.17,9.882-2.179,10.443-7.262
		c0-3.441-2.449-6.791-5.908-6.791c-1.849,0-3.93,1.275-6.265,2.818c-1.523,1.006-2.727,1.802-3.637,1.802
		c-0.619,0-1.116-0.411-1.116-0.748c0-0.055,0.011-0.115,0.029-0.17l2.566-3.423l-2.219-1.485c-0.474-0.309-1.208-0.89-1.289-1.324
		c-0.039-0.205,0.259-0.573,0.354-0.681c0.916-1.068,1.97-2.371,3.035-3.975c0.654-0.914,1.035-1.417,2.131-1.417
		c1.083,0,1.969,0.867,1.969,1.929c0,0.705,0.776,1.261,1.739,1.261c0.962,0,1.396-0.68,1.99-1.261c0,0,2.288-2.092,1.076-3.081
		c-1.382-1.128-6.922,1.175-5.381-3.896l0.386-0.724c0.591-0.782,3.24-2.736,8.715-2.736c1.034,0,2.128,0.074,3.249,0.213
		l0.818,0.104l11.618-7.143c0.102,0.241,0.136,0.416,0.136,0.416l0.012,0.069c0.605,3.507-1.611,7.68-5.153,9.709l-1.419,0.809
		l0.916,5.225c-2.982,0.912-5.062,3.296-5.062,6.166c0,0.986,0.229,2.157,0.521,3.635c0.324,1.645,0.688,3.505,0.783,5.396
		c0,5.439-7.522,9.035-13.889,8.829l-0.162-0.003c-0.265-0.01-4.317-0.329-5.312-1.112
		C655.622,69.917,655.469,69.596,655.521,69.353 M626.731,86.427c0.918-1.4,3.021-2.607,5.647-2.153l1.99,0.344l0.627-1.912
		c0.169-0.512,0.395-0.89,0.705-1.184c0.561-0.526,1.394-0.774,2.457-0.745c2.811,0.091,6.331,2.042,9.188,5.1
		c1.04,1.111,1.96,2.4,2.784,3.704c0.158,0.275,0.34,0.569,0.507,0.829c0.229,0.363,0.424,0.662,0.465,0.731
		c0.101,0.178,1.514,2.296,1.416,2.431c0.967-1.351,1.932-2.705,2.899-4.055c0.025-0.038-0.017-0.164-0.099-0.338
		c-0.217-0.465-0.729-1.27-1.036-1.746c-0.071-0.116-0.147-0.232-0.222-0.348c-0.004-0.008-0.01-0.02-0.015-0.028
		c-0.029-0.048-0.16-0.249-0.329-0.514c-0.323-0.502-0.785-1.231-0.989-1.63l6.087-9.7c1.519,0.315,2.812,0.363,3.426,0.363h0.151
		c8.578,0,17.455-4.935,17.455-13.195l-0.002-0.201c-0.107-2.25-0.528-4.396-0.868-6.12c-0.222-1.138-0.434-2.209-0.434-2.745
		c0-0.905,1.274-1.912,3.103-1.912h2.778l-1.259-7.169c3.907-2.864,6.305-7.531,6.182-11.991c4.206,3.216,7.174,8.796,7.718,14.732
		c0.159,1.722-0.182,4.134-0.741,6.669l-0.3,1.061l0.051,0.016c-0.996,4.137-2.463,8.395-3.236,10.412L692.12,67l1.746,0.987
		c3.131,1.767,5.056,3.06,5.056,7.171c0,4.714-4.256,8.328-8.368,9.094l-5.623,1.049l4.755,3.167
		c1.526,1.014,2.435,2.667,2.435,4.42c0,2.961-2.523,5.369-5.629,5.369h-1.792l-0.504,1.641c-1.747,5.671-3.644,8.443-9.74,9.034
		c0.281-1.723,0.478-3.378,0.478-5.724c0-0.55-0.048-2.094-0.071-2.59l-0.271-5.284l-3.728,3.774c-1.266,1.282-3.507,2.3-5.97,2.783
		v-4.61l-26.661-6.901l-9.485,2.458C626.632,90.726,626.204,87.236,626.731,86.427 M619.064,144.165l19.167-4.974l19.165,4.974
		H619.064z M660.221,140.094l-21.989-5.705l-21.99,5.705v-39.219l21.99-5.692l21.989,5.692V140.094z M670.451,132.469
		c-1.984,2.844-2.227,6.772-0.731,11.696h-4.827v-37.563c1.729-0.263,3.589-0.756,5.32-1.545c-0.098,1.64-0.324,2.933-0.631,4.666
		c-0.07,0.401-0.144,0.821-0.22,1.269l-0.464,2.712h2.764c4.132,0,7.211-0.645,9.578-1.863v15.681c0,0.403-0.312,0.728-0.695,0.728
		h-0.701C675.742,128.248,672.318,129.785,670.451,132.469 M721.115,133.474c-1.689,1.932-3.332,5.296-2.267,10.691h-28.558
		c3.067-0.302,5.298-1.018,6.837-2.611c1.868-1.94,2.035-4.592,1.972-6.485c0.062-0.166,0.372-0.804,1.77-1.435l2.462-1.119
		l-1.476-2.265c-2.439-3.738-1.376-11.91-0.43-16.352h0.22c9.684,0,15.947-2.005,22.55-4.123c1.725-0.553,3.502-1.122,5.379-1.668
		l0.057-0.019c0.039-0.013,1.97-0.623,4.598-1.235l9.311,15.298l0.083,0.128c0.929,1.32,1.046,2.192-0.645,4.153l-4.666,5.021
		l-7.648-1.416l-0.07-0.012C727.138,129.495,723.418,130.85,721.115,133.474 M723.63,144.165c-0.842-3.29-0.499-5.918,1.005-7.633
		c1.439-1.645,3.65-2.144,5.213-1.92l8.867,1.641l0.222,0.039h1.235l6.263-6.735l0.059-0.062c1.071-1.243,4.326-5.009,1.003-9.813
		l-8.373-13.759c1.387-0.196,2.777-0.32,4.064-0.32l0.057-0.004c0.042,0.008,4.24-0.058,8.739,2.554
		c0.609,1.302,1.456,3.019,2.4,4.925c1.758,3.555,3.947,7.977,4.557,9.765c0.194,0.561,0.786,2.268-1.312,4.431l-16.052,16.893
		H723.63z M778.337,144.165h-30.331l12.998-13.68c2.625-2.705,3.461-5.957,2.355-9.15c-0.631-1.843-2.347-5.374-4.134-8.992
		c5.159,2.39,12.983,4.541,28.901,5.818c1.918,0.158,2.424,0.81,2.804,2.547l0.697,6.852l-8.319,1.85
		c-2.785,0.55-4.975,2.377-6.007,5.024C776.162,137.353,776.551,140.79,778.337,144.165 M781.655,136.118
		c0.458-1.174,1.35-1.917,2.577-2.151l12.457-2.772l-1.126-11.079l-0.037-0.239c-0.307-1.451-1.233-5.873-7.019-6.346
		c-22.268-1.792-27.433-5.084-32.844-8.57c-0.008-0.016-0.016-0.033-0.021-0.05l-0.033,0.017l-0.35-0.228
		c-5.782-3.73-11.524-3.761-12.089-3.745c-6.307,0.004-14.287,2.493-14.938,2.7c-1.925,0.563-3.726,1.14-5.47,1.697
		c-6.972,2.235-12.996,4.173-23.112,3.871l-1.848-0.055l-0.476,1.78c-0.364,1.37-3.195,12.524-0.464,19.689
		c-2.449,1.923-2.447,4.148-2.434,4.446c0.101,2.45-0.479,3.055-0.671,3.252c-1.168,1.207-5.047,1.366-8.313,1.366h-0.041h-1.189
		l-0.701,0.96c-2.012,2.765-6.362,3.41-9.149,2.706c-1.227-3.717-1.258-6.558-0.078-8.253c1.396-2.001,4.352-2.218,5.558-2.218
		h0.701c2.958,0,5.364-2.412,5.364-5.377v-19.964c0.902-1.387,1.624-2.987,2.255-4.787c4.887-0.778,8.629-4.912,8.629-9.882
		c0-1.908-0.566-3.751-1.582-5.327c4.516-2.167,8.379-6.597,8.379-12.403c0-5.807-2.93-8.47-5.712-10.214
		c0.785-2.229,2.077-6.146,2.958-10.095l3.907-13.962c1.749-5.476,6.318-9.011,11.647-9.011h68.859
		c-2.913,4.091-7.054,6.027-12.788,6.027h-41.671l-2.176,4.647h37.344c-2.936,4.652-7.23,6.845-13.33,6.845h-27.077l-2.177,4.649
		h24.16c-2.927,4.479-7.176,6.596-13.163,6.596h-14.761l-2.176,4.646h15.471c0.143,0.191,0.53,0.896,0.53,2.781
		c0,2.985-2.517,5.415-5.613,5.415c-1.063,0-1.97-0.243-3.563-0.89c-0.684-0.29-1.366-0.578-2.051-0.867l-3.592,3.213
		c0.672,0.286,1.345,0.569,2.016,0.853v0.002c3.108,1.344,4.84,2.044,7.19,2.044c2.851,0,5.417-1.177,7.239-3.054
		c2.652,0.17,6.93,0.522,11.07,0.859c4.951,0.407,9.625,0.79,12.042,0.917c1.209,0.066,2.342,0.122,3.427,0.175
		c2.053,0.1,3.932,0.194,5.811,0.329c9.398,15.216,14.217,17.218,32.418,19.393c1.312,2.342,2.494,4.821,3.619,7.314v29.63
		l0.006,0.17c0.102,1.363,0.102,1.823-0.085,2.071c-0.631,0.825-3.441,1.994-4.418,2.396l-15.341,5.768
		C781.577,141.057,780.846,138.188,781.655,136.118"/>
	<polygon clip-path="url(#SVGID_2_)" fill-rule="evenodd" clip-rule="evenodd" fill="#C82326" points="639.033,90.379 
		611.571,95.591 611.571,144.009 621.406,144.009 638.974,139.964 657.543,144.165 664.893,144.165 664.893,95.591 	"/>
	<polygon clip-path="url(#SVGID_2_)" fill-rule="evenodd" clip-rule="evenodd" fill="#FFFFFF" points="639.123,95.057 
		615.87,99.383 615.631,140.437 639.033,135.386 660.746,139.964 660.807,99.322 	"/>
	<path clip-path="url(#SVGID_2_)" fill-rule="evenodd" clip-rule="evenodd" fill="#C82326" d="M650.854,118.871l-1.483,3.377
		c-0.268,0.631-0.831,0.917-0.831,0.917l1.63,0.506c-0.442-0.477-0.354-0.982-0.354-0.982l0.354-0.502l1.246,0.186
		c0.534,0.128,0.475,0.918,0.475,0.918l-0.387,0.632l1.982,0.473c-0.381-0.44-0.443-1.041-0.443-1.041l-1.481-4.422
		C651.179,118.457,650.854,118.871,650.854,118.871"/>
	<path clip-path="url(#SVGID_2_)" fill-rule="evenodd" clip-rule="evenodd" fill="#C82326" d="M619.512,105.066
		c0.563,0.222,0.803,0.755,0.803,0.755v2.94c-0.149,0.565-0.596,1.041-0.596,1.041l2.077-0.503c-0.447-0.1-0.655-0.476-0.655-0.476
		l0.06-1.011c0.148-0.347,0.537-0.377,0.537-0.377l0.588-0.035c1.303-0.438,1.422-1.291,1.422-1.291
		c0.358-2.023-1.27-1.769-1.27-1.769L619.512,105.066z"/>
	<path clip-path="url(#SVGID_2_)" fill-rule="evenodd" clip-rule="evenodd" fill="#C82326" d="M626.322,103.392l-1.27,4.298
		c-0.09,0.659-0.533,1.009-0.533,1.009l1.333-0.063c-0.268-0.255-0.297-0.79-0.297-0.79c0.267-1.073,1.121-1.137,1.121-1.137
		c0.921-0.163,1.192,0.538,1.192,0.538c0.057,0.502-0.151,1.073-0.151,1.073l3.291-0.794c-0.182-0.279-0.09-0.725-0.09-0.725
		l0.443-0.852l0.649,0.662c0.15,0.409-0.06,0.731-0.06,0.731l1.722-0.322c-0.389-0.155-0.479-0.476-0.479-0.476l-1.422-1.637
		l0.746-2.056c0.145-0.315,0.415-0.565,0.415-0.565l-1.217,0.159c-0.178,0.313,0.175,0.468,0.175,0.468l-0.53,1.454l-0.802-1.041
		c0.209-0.413-0.119-0.63-0.119-0.63l-1.391,0.217c0.059,0.476,0.473,0.572,0.473,0.572l1.304,1.703l-0.589,1.706
		c-0.12,0.447-0.715,0.6-0.715,0.6c-0.561-0.061-0.857-0.63-0.857-0.63l-1.896-3.569
		C626.621,103.075,626.322,103.392,626.322,103.392"/>
	<path clip-path="url(#SVGID_2_)" fill-rule="evenodd" clip-rule="evenodd" fill="#C82326" d="M619.569,112.456v1.234
		c0.387-0.598,0.887-0.727,0.887-0.727c0.45-0.222,0.744,0.282,0.744,0.282l-0.116,3.125c-0.151,0.507-0.39,0.855-0.39,0.855
		l1.87-0.41c-0.415-0.221-0.561-0.695-0.561-0.695l0.026-3.157c0.447-1.016,1.864-0.095,1.864-0.095l-0.027-1.106L619.569,112.456z"
		/>
	<path clip-path="url(#SVGID_2_)" fill-rule="evenodd" clip-rule="evenodd" fill="#C82326" d="M624.191,111.67
		c0.503,0.154,0.563,0.503,0.563,0.503l-0.06,3.155c-0.025,0.729-0.442,1.171-0.442,1.171l1.837-0.378
		c-0.386-0.222-0.503-0.726-0.503-0.726v-3.288c0.089-0.405,0.44-0.818,0.44-0.818L624.191,111.67z"/>
	<path clip-path="url(#SVGID_2_)" fill-rule="evenodd" clip-rule="evenodd" fill="#C82326" d="M627.187,111.065
		c0.324,0.288,0.381,0.604,0.381,0.604v3.252c-0.205,0.661-0.295,0.978-0.295,0.978l3.464-0.727
		c2.016-1.104,0.328-2.557,0.328-2.557c0.947-1.927-0.589-2.116-0.589-2.116L627.187,111.065z"/>
	<path clip-path="url(#SVGID_2_)" fill-rule="evenodd" clip-rule="evenodd" fill="#C82326" d="M632.369,109.899
		c0.413,0.127,0.678,0.63,0.678,0.63v3.285c-0.057,0.536-0.502,0.89-0.502,0.89l2.014-0.354c-0.411-0.187-0.532-0.66-0.532-0.66
		v-3.287c0.149-0.474,0.532-0.757,0.532-0.757L632.369,109.899z"/>
	<path clip-path="url(#SVGID_2_)" fill-rule="evenodd" clip-rule="evenodd" fill="#C82326" d="M619.452,120.383
		c0.713,0.067,0.798,0.601,0.798,0.601l-0.38,3.285c-0.118,0.634-0.651,1.012-0.651,1.012l1.894-0.378
		c-0.885-0.253-0.741-0.728-0.741-0.728l0.592-1.988l1.422,1.892l1.243-2.368l0.743,1.645c0.148,0.63-0.504,1.041-0.504,1.041
		l3.259-0.85c-0.861-0.164-0.592-0.856-0.592-0.856c0.592-1.294,1.985-0.757,1.985-0.757c0.471,0.79-0.031,1.357-0.031,1.357
		l3.524-0.694c-0.65-0.254-0.799-0.854-0.799-0.854l0.115-0.601l0.478-0.126c0.889,0.727,1.835,1.171,1.835,1.171l1.511-0.285
		c-1.216-0.283-2.046-1.263-2.046-1.263c0.981-0.509,0.92-1.768,0.92-1.768c0-1.517-1.569-1.327-1.569-1.327l-2.486,0.599
		c0.62,0.442,0.561,1.041,0.561,1.041l-0.056,3.003c-0.802,0.219-1.127-0.603-1.127-0.603l-1.897-2.873
		c-0.325-0.38-0.592-0.063-0.592-0.063l-0.861,3.918c-0.354,1.105-0.889,0.188-0.889,0.188l-0.799-2.432
		c0.033-0.604,0.652-1.106,0.652-1.106l-1.155,0.032c-0.386,0.191-0.622,0.786-0.622,0.786l-0.708,2.245l-1.129-1.829
		C620.787,119.877,619.452,120.383,619.452,120.383"/>
	<path clip-path="url(#SVGID_2_)" fill-rule="evenodd" clip-rule="evenodd" fill="#C82326" d="M623.215,127.27
		c-0.297,0.287-1.127,0.379-1.127,0.379c-1.599-0.191-2.308,1.168-2.308,1.168c-0.919,2.055,0.114,3.475,0.114,3.475
		c1.782,1.961,3.527-0.285,3.527-0.285c0.386-0.723-0.292-0.473-0.292-0.473c-1.192,1.389-2.343,0.189-2.343,0.189
		c-0.859-1.895,0-2.968,0-2.968c0.591-0.791,1.747-0.631,1.747-0.631c0.356,0.313,0.681,0.726,0.681,0.726V127.27z"/>
	<path clip-path="url(#SVGID_2_)" fill-rule="evenodd" clip-rule="evenodd" fill="#C82326" d="M623.927,127.302
		c0.474,0.314,0.621,0.822,0.621,0.822v3.44c-0.058,0.508-0.383,0.981-0.383,0.981l3.198-0.696c0.59-0.348,0.414-1.296,0.414-1.296
		c-0.353,0.665-1.217,0.853-1.217,0.853l-0.916,0.096l-0.06-1.356c0.594-0.762,1.244-0.287,1.244-0.287l-0.06-1.297
		c-0.532,0.636-1.214,0.441-1.214,0.441l0.029-1.259c0.152-0.475,0.652-0.412,0.652-0.412l0.798-0.03
		c0.328,0,0.533,0.348,0.533,0.348c0-1.011-0.947-1.011-0.947-1.011L623.927,127.302z"/>
	<path clip-path="url(#SVGID_2_)" fill-rule="evenodd" clip-rule="evenodd" fill="#C82326" d="M630.77,125.564
		c0.798,0.313,0.619,0.82,0.619,0.82v3.443c-0.059,0.505-0.652,1.043-0.652,1.043l3.472-0.762c0.589-0.345,0.411-1.293,0.411-1.293
		c-0.355,0.665-1.215,0.855-1.215,0.855l-0.916,0.093l-0.091-1.548c0.593-0.759,1.275-0.092,1.275-0.092l-0.06-1.297
		c-0.535,0.63-1.216,0.441-1.216,0.441l0.027-1.265c0.151-0.475,1.452-0.44,1.452-0.44c0.331,0,0.537,0.345,0.537,0.345
		c0-1.008-0.95-1.008-0.95-1.008L630.77,125.564z"/>
	<path clip-path="url(#SVGID_2_)" fill-rule="evenodd" clip-rule="evenodd" fill="#C82326" d="M640.932,101.497
		c0.616,0.472,0.738,1.202,0.738,1.202l1.188,4.169c0.409,0.409,0.798,0.059,0.798,0.059l1.451-3.819
		c0.295-0.631,0.738-1.041,0.738-1.041l-1.39-0.222c0.381,0.317,0.176,1.01,0.176,1.01l-1.126,2.623l-0.919-3.029
		c0.088-0.48,0.532-0.793,0.532-0.793L640.932,101.497z"/>
	<path clip-path="url(#SVGID_2_)" fill-rule="evenodd" clip-rule="evenodd" fill="#C82326" d="M644.989,106.867
		c0.651-0.254,0.887-1.046,0.887-1.046l1.602-3.028c0.443-0.571,0.739,0.032,0.739,0.032l1.186,3.631
		c0.238,0.792,0.827,1.453,0.827,1.453l-2.132-0.382c0.505-0.279,0.296-0.979,0.296-0.979c-0.83-1.638-1.865-0.597-1.865-0.597
		c-0.444,0.662,0.031,1.394,0.031,1.394L644.989,106.867z"/>
	<path clip-path="url(#SVGID_2_)" fill-rule="evenodd" clip-rule="evenodd" fill="#C82326" d="M650.674,103.234
		c0.357,0.413,0.443,0.949,0.443,0.949l-0.144,3.094c-0.09,0.474-0.564,0.728-0.564,0.728l1.541,0.377
		c-0.327-0.377-0.446-0.884-0.446-0.884v-1.041c0.119-0.538,0.413-0.602,0.413-0.602l1.868,3.095
		c0.682,0.473,0.682-0.409,0.682-0.409v-3.822c0.118-0.377,0.565-0.789,0.565-0.789l-1.335-0.061
		c0.266,0.153,0.235,0.407,0.235,0.407l-0.057,2.374c-1.041-0.352-2.163-3.035-2.163-3.035
		C651.179,103.107,650.674,103.234,650.674,103.234"/>
	<path clip-path="url(#SVGID_2_)" fill-rule="evenodd" clip-rule="evenodd" fill="#C82326" d="M644.899,109.423
		c-0.147-0.028-0.237,0.099-0.387,0.066c-1.956-0.634-2.78,0.062-2.78,0.062c-1.87,1.896-0.506,3.888-0.506,3.888
		c2.251,2.589,3.702-0.256,3.702-0.256c0.266-0.535,0.774-1.106,0.774-1.106l-2.347-0.533c0.83,0.533,0.83,1.073,0.83,1.073
		c0,1.294-1.124,1.199-1.124,1.199c-1.568-0.724-1.189-2.146-1.189-2.146c0.095-1.895,1.573-1.867,1.573-1.867
		c0.891-0.061,1.392,1.173,1.392,1.173L644.899,109.423z"/>
	<path clip-path="url(#SVGID_2_)" fill-rule="evenodd" clip-rule="evenodd" fill="#C82326" d="M645.846,109.996
		c0.388,0.22,0.388,0.565,0.388,0.565v3.094c-0.087,0.601-0.683,1.014-0.683,1.014s2.753,0.755,3.436,0.6l0.145-0.918
		c-0.765,0.602-2.07,0.287-2.07,0.287l0.149-1.454c0.529-0.38,1.124,0.537,1.124,0.537l-0.03-1.831
		c-0.445,0.566-1.094,0.313-1.094,0.313l0.059-1.04c0.029-0.54,0.386-0.442,0.386-0.442h0.593c0.501,0.156,0.948,0.6,0.948,0.6
		c-0.148-0.916-0.593-0.976-0.593-0.976L645.846,109.996z"/>
	<path clip-path="url(#SVGID_2_)" fill-rule="evenodd" clip-rule="evenodd" fill="#C82326" d="M649.697,110.814
		c0.473,0.379,0.532,1.038,0.532,1.038l-0.06,2.657c-0.028,0.631-0.74,0.885-0.74,0.885l3.557,0.884l0.533-1.356
		c-0.478,0.502-1.04,0.569-1.04,0.569h-0.886c-0.62-0.318-0.382-1.141-0.382-1.141v-2.402c0.203-0.472,0.56-0.785,0.56-0.785
		L649.697,110.814z"/>
	<path clip-path="url(#SVGID_2_)" fill-rule="evenodd" clip-rule="evenodd" fill="#C82326" d="M654.023,111.638
		c0.412,0.438,0.502,0.758,0.502,0.758l-0.059,3.253c-0.181,0.569-0.504,0.914-0.504,0.914l1.895,0.188
		c-0.413-0.409-0.503-1.042-0.503-1.042l0.121-3.062c0.148-0.317,0.442-0.539,0.442-0.539L654.023,111.638z"/>
	<path clip-path="url(#SVGID_2_)" fill-rule="evenodd" clip-rule="evenodd" fill="#C82326" d="M644.543,117.29
		c-1.097-0.382-2.104-0.382-2.104-0.382c-1.358,0.318-1.093,1.486-1.093,1.486c0.387,1.357,1.718,1.675,1.718,1.675
		c1.184,0.534,0.945,1.261,0.945,1.261c-0.53,0.635-1.39,0.38-1.39,0.38c-0.651-0.601-1.039-1.58-1.039-1.58
		c-0.768,1.454,0.8,1.963,0.8,1.963c1.688,0.563,2.163-0.224,2.163-0.224c0.829-1.073-0.029-1.992-0.029-1.992
		c-1.008-0.912-1.396-0.819-1.396-0.819c-1.478-0.788-0.379-1.514-0.379-1.514c0.886-0.54,1.774,1.167,1.774,1.167L644.543,117.29z"
		/>
	<path clip-path="url(#SVGID_2_)" fill-rule="evenodd" clip-rule="evenodd" fill="#C82326" d="M645.488,117.544v1.167
		c0.506-0.567,1.336-0.537,1.336-0.537v3.444c0,0.724-0.678,1.136-0.678,1.136l2.04,0.282c-0.265-0.282-0.385-0.817-0.385-0.817
		v-3.096c0.12-0.573,0.71-0.476,0.71-0.476c0.62,0.126,1.037,0.792,1.037,0.792v-1.139L645.488,117.544z"/>
	<path clip-path="url(#SVGID_2_)" fill-rule="evenodd" clip-rule="evenodd" fill="#C82326" d="M641.431,125.029
		c0.656,0.473,0.594,1.006,0.594,1.006l-1.125,2.623c-0.147,0.538-0.713,0.664-0.713,0.664l1.453,0.535
		c-0.354-0.565-0.209-1.041-0.209-1.041l0.832-1.484l1.005,1.99l1.423-1.706l0.536,2.057c0,0.628-0.536,0.945-0.536,0.945l5.157,1.2
		l0.145-1.265c-0.411,0.506-0.798,0.665-0.798,0.665l-1.185-0.349c-0.271-0.284-0.119-0.761-0.119-0.761l0.176-0.563
		c0.3-0.569,0.741,0.219,0.741,0.219l0.121-1.641c-0.595,0.406-0.976,0.094-0.976,0.094l0.057-0.761
		c0.443-1.105,1.718,0.255,1.718,0.255l0.148-0.728l-3.11-0.914c0.234,0.281,0.41,0.602,0.41,0.602l-0.202,3.41
		c-0.089,0.41-0.387,0.345-0.387,0.345c-0.474-0.253-0.44-0.569-0.44-0.569l-0.563-3.219c0.12-0.441,0.587-0.568,0.587-0.568
		c-0.798-0.35-1.214-0.162-1.214-0.162l-1.182,1.648l-0.801-1.867C642.291,125.029,641.431,125.029,641.431,125.029"/>
	<polygon clip-path="url(#SVGID_2_)" fill-rule="evenodd" clip-rule="evenodd" fill="#FFFFFF" points="650.912,120.604 
		650.44,121.491 651.269,121.552 	"/>
	<polygon clip-path="url(#SVGID_2_)" fill-rule="evenodd" clip-rule="evenodd" fill="#FFFFFF" points="647.563,104.275 
		647.176,104.91 647.858,104.971 	"/>
	<path clip-path="url(#SVGID_2_)" fill-rule="evenodd" clip-rule="evenodd" fill="#FFFFFF" d="M631.419,118.804v1.267
		c1.188,0.158,1.542-0.539,1.542-0.539c0.443-1.2-0.655-1.262-0.655-1.262C631.866,118.174,631.419,118.804,631.419,118.804"/>
	<polygon clip-path="url(#SVGID_2_)" fill-rule="evenodd" clip-rule="evenodd" fill="#FFFFFF" points="627.305,120.289 
		626.916,121.396 627.805,121.143 	"/>
	<path clip-path="url(#SVGID_2_)" fill-rule="evenodd" clip-rule="evenodd" fill="#FFFFFF" d="M628.606,113.529v1.174
		c0.384,0.438,1.425-0.033,1.425-0.033c1.033-0.349,0.586-1.108,0.586-1.108C630.15,112.646,628.606,113.529,628.606,113.529"/>
	<path clip-path="url(#SVGID_2_)" fill-rule="evenodd" clip-rule="evenodd" fill="#FFFFFF" d="M628.457,111.603l0.063,1.015
		c0.443,0.475,1.301,0.029,1.301,0.029c1.068-0.758,0.418-1.327,0.418-1.327C629.258,110.719,628.457,111.603,628.457,111.603"/>
	<polygon clip-path="url(#SVGID_2_)" fill-rule="evenodd" clip-rule="evenodd" fill="#FFFFFF" points="626.621,105.225 
		626.322,105.918 626.916,105.855 	"/>
	<path clip-path="url(#SVGID_2_)" fill-rule="evenodd" clip-rule="evenodd" fill="#C82326" d="M649.876,126.952l0.503,0.759
		l1.184,4.326c0.592,0.789,0.892,0.285,0.892,0.285l1.688-3.412l1.007-0.692l-1.72-0.41c0.355,0.376,0.118,0.882,0.118,0.882
		l-1.067,2.054l-0.857-2.56c0.116-0.567,0.566-0.755,0.566-0.755L649.876,126.952z"/>
	<path clip-path="url(#SVGID_2_)" fill-rule="evenodd" clip-rule="evenodd" fill="#C82326" d="M657.845,128.438
		c-1.065-0.507-1.955-0.158-1.955-0.158c-1.423,0.632-0.62,2.021-0.62,2.021c0.916,0.57,1.656,1.076,1.656,1.076
		c0.564,0.756,0,1.262,0,1.262c-0.832,0.475-1.422-0.127-1.422-0.127c-0.472-0.379-0.507-1.452-0.507-1.452
		c-0.265,0.317-0.499,0.885-0.53,1.104c0.858,1.737,3.113,0.854,3.113,0.854c1.091-1.295-0.037-2.368-0.037-2.368
		c-0.501-0.54-1.241-0.667-1.241-0.667c-0.89-1.006,0.358-1.387,0.358-1.387c0.798,0.094,1.213,0.949,1.213,0.949L657.845,128.438z"
		/>
	<path clip-path="url(#SVGID_2_)" fill-rule="evenodd" clip-rule="evenodd" fill="#FFFFFF" d="M621.141,105.445
		c0.357-0.757,1.186-0.475,1.186-0.475c1.302,0.096,0.592,1.423,0.592,1.423c-0.383,0.601-1.54,0.629-1.54,0.629
		C620.996,107.022,621.141,105.445,621.141,105.445"/>
	<path clip-path="url(#SVGID_2_)" fill="#706F6F" d="M2.467,155.179l14.798-24.33h4.096l4.318,24.33h-3.384l-1.257-7.003H10.47
		l-4.184,7.003H2.467z M11.973,145.669h8.616l-0.996-6.106c-0.391-2.413-0.636-4.433-0.737-6.059
		c-0.579,1.395-1.44,3.048-2.584,4.962L11.973,145.669z"/>
	<path clip-path="url(#SVGID_2_)" fill="#706F6F" d="M29.517,149.302l2.909,0.007c-0.013,1.36,0.36,2.375,1.12,3.045
		c0.76,0.671,1.795,1.006,3.105,1.006c1.192,0,2.136-0.239,2.83-0.716c0.695-0.476,1.042-1.085,1.042-1.827
		c0-0.534-0.216-1.016-0.649-1.445c-0.445-0.428-1.408-0.952-2.889-1.569c-1.703-0.711-2.826-1.258-3.37-1.64
		c-0.544-0.381-0.966-0.847-1.268-1.397c-0.301-0.549-0.452-1.164-0.452-1.844c0-1.391,0.563-2.537,1.69-3.437
		c1.127-0.9,2.608-1.351,4.442-1.351c2.031,0,3.636,0.463,4.815,1.39c1.18,0.925,1.796,2.377,1.848,4.041l-2.87,0.031
		c-0.039-1.047-0.415-1.853-1.13-2.417c-0.714-0.564-1.673-0.848-2.879-0.848c-0.943,0-1.71,0.212-2.299,0.636
		c-0.59,0.424-0.885,0.913-0.885,1.467c0,0.481,0.177,0.896,0.531,1.24c0.354,0.357,1.251,0.832,2.693,1.428
		c2.215,0.93,3.624,1.674,4.226,2.228c0.916,0.869,1.375,1.926,1.375,3.171c0,1.382-0.612,2.571-1.835,3.565
		c-1.224,0.993-2.921,1.49-5.093,1.49c-2.186,0-3.9-0.503-5.143-1.507c-1.242-1.005-1.864-2.423-1.864-4.254V149.302z"/>
	<path clip-path="url(#SVGID_2_)" fill="#706F6F" d="M48.533,149.308l2.991,0.001c-0.013,1.36,0.37,2.375,1.152,3.045
		c0.781,0.67,1.846,1.005,3.193,1.005c1.226,0,2.196-0.237,2.911-0.715c0.713-0.476,1.07-1.085,1.07-1.828
		c0-0.532-0.222-1.015-0.667-1.444c-0.458-0.429-1.448-0.952-2.97-1.569c-1.752-0.711-2.907-1.258-3.466-1.64
		c-0.559-0.381-0.994-0.848-1.304-1.397c-0.31-0.549-0.464-1.164-0.464-1.844c0-1.391,0.578-2.537,1.738-3.438
		c1.158-0.899,2.681-1.35,4.567-1.35c2.088,0,3.739,0.463,4.952,1.389c1.212,0.927,1.845,2.413,1.899,4.077l-2.951-0.004
		c-0.04-1.047-0.427-1.852-1.162-2.417c-0.734-0.564-1.721-0.848-2.96-0.848c-0.97,0-1.758,0.212-2.365,0.636
		c-0.606,0.424-0.909,0.913-0.909,1.467c0,0.481,0.182,0.896,0.545,1.24c0.364,0.357,1.287,0.832,2.77,1.428
		c2.277,0.931,3.726,1.673,4.345,2.228c0.943,0.869,1.414,1.926,1.414,3.171c0,1.382-0.629,2.57-1.887,3.564
		c-1.258,0.994-3.004,1.491-5.237,1.491c-2.247,0-4.01-0.503-5.288-1.507c-1.278-1.005-1.917-2.423-1.917-4.254V149.308z"/>
	<path clip-path="url(#SVGID_2_)" fill="#706F6F" d="M79.624,152.075c-2.141,2.32-4.329,3.48-6.564,3.48
		c-1.296,0-2.383-0.364-3.262-1.09c-0.88-0.729-1.319-1.663-1.319-2.809c0-0.727,0.191-1.957,0.573-3.688l2.146-9.834h3.055
		l-2.374,10.895c-0.204,0.909-0.307,1.608-0.307,2.097c0,0.669,0.212,1.177,0.635,1.521c0.424,0.345,1.018,0.518,1.783,0.518
		c1.079,0,2.155-0.339,3.227-1.017c1.072-0.678,1.857-1.528,2.356-2.549c0.498-1.02,0.944-2.39,1.336-4.109l1.721-7.355h3.056
		l-3.955,17.035h-2.826L79.624,152.075z"/>
	<path clip-path="url(#SVGID_2_)" fill="#706F6F" d="M88.528,155.179l3.256-17.012h2.361l-0.665,3.477
		c1.558-2.572,3.122-3.86,4.692-3.86c0.535,0,1.189,0.209,1.962,0.625l-0.877,2.307c-0.463-0.363-1.067-0.423-1.579-0.423
		c-0.975,0-2.045,0.836-3.014,1.985c-0.969,1.147-1.73,3.173-2.281,6.077l-1.33,6.824H88.528z"/>
	<path clip-path="url(#SVGID_2_)" fill="#706F6F" d="M115.026,149.257l3.026,0.066c-0.485,1.69-1.71,3.392-3.474,4.646
		c-1.469,1.059-3.106,1.587-4.911,1.587c-1.28,0-2.446-0.28-3.496-0.843c-1.051-0.561-1.886-1.401-2.506-2.519
		c-0.62-1.118-0.929-2.452-0.929-4c0-2.039,0.474-3.944,1.422-5.71c0.949-1.769,2.109-3.058,3.482-3.869
		c1.372-0.813,2.858-1.22,4.46-1.22c2.031,0,3.69,0.628,4.974,1.883c1.285,1.254,1.928,3.024,1.928,5.315
		c0,0.852-0.074,1.726-0.221,2.618h-12.978c-0.04,0.348-0.06,0.657-0.06,0.93c0,1.632,0.385,2.869,1.155,3.712
		c0.77,0.844,1.696,1.265,2.777,1.265c1.027,0,2.037-0.331,3.03-0.994C113.699,151.462,114.473,150.506,115.026,149.257
		 M106.291,144.954h9.886v-0.606c0-1.555-0.377-2.72-1.132-3.497c-0.755-0.776-1.719-1.164-2.891-1.164
		c-1.267,0-2.43,0.438-3.488,1.313S106.815,143.194,106.291,144.954 M109.779,135.678l3.108-4.5h3.773l-4.399,4.5H109.779z"/>
	<path clip-path="url(#SVGID_2_)" fill="#706F6F" d="M122.262,155.179l3.773-17.001h3.095l-0.622,2.802
		c1.203-1.259,2.259-2.104,3.168-2.536c0.909-0.434,1.875-0.649,2.896-0.649c1.119,0,2.063,0.273,2.833,0.816
		c0.769,0.545,1.28,1.335,1.532,2.369c0.913-1.067,1.883-1.863,2.908-2.394c1.024-0.528,2.098-0.792,3.22-0.792
		c1.426,0,2.537,0.327,3.334,0.982c0.796,0.653,1.195,1.603,1.195,2.847c0,0.544-0.145,1.418-0.434,2.621l-2.533,10.935h-3.094
		l2.607-11.238c0.218-0.917,0.327-1.578,0.327-1.985c0-0.575-0.194-1.016-0.582-1.32c-0.389-0.304-0.908-0.456-1.56-0.456
		c-0.859,0-1.76,0.243-2.703,0.729c-0.943,0.484-1.694,1.152-2.256,2c-0.562,0.849-1.06,2.19-1.494,4.026l-1.911,8.244h-3.095
		l2.641-11.479c0.186-0.778,0.279-1.338,0.279-1.68c0-0.566-0.192-1.015-0.576-1.345c-0.385-0.331-0.863-0.497-1.436-0.497
		c-1.383,0-2.693,0.537-3.93,1.609c-1.236,1.074-2.131,2.857-2.684,5.354l-1.804,8.036H122.262z"/>
	<path clip-path="url(#SVGID_2_)" fill="#706F6F" d="M165.959,149.513l2.935,0.142c-0.476,1.622-1.642,3.176-3.375,4.379
		c-1.443,1.015-3.051,1.522-4.824,1.522c-1.257,0-2.402-0.27-3.434-0.809c-1.032-0.539-1.852-1.344-2.461-2.417
		c-0.609-1.072-0.913-2.352-0.913-3.838c0-1.956,0.466-3.782,1.398-5.478c0.931-1.694,2.071-2.933,3.419-3.712
		c1.347-0.778,2.808-1.169,4.381-1.169c1.995,0,3.624,0.603,4.886,1.806c1.262,1.202,1.893,2.902,1.893,5.1
		c0,0.817-0.072,1.655-0.216,2.512H156.9c-0.04,0.334-0.06,0.631-0.06,0.894c0,1.563,0.378,2.752,1.135,3.56
		c0.757,0.81,1.666,1.213,2.728,1.213c1.008,0,2.001-0.316,2.976-0.953C164.656,151.628,165.416,150.711,165.959,149.513
		 M157.378,145.385h9.711v-0.582c0-1.491-0.371-2.607-1.112-3.354c-0.742-0.745-1.689-1.117-2.84-1.117
		c-1.245,0-2.386,0.42-3.426,1.26C158.672,142.43,157.895,143.696,157.378,145.385"/>
	<path clip-path="url(#SVGID_2_)" fill="#706F6F" d="M172.098,155.179l4.116-17.052h3.077l-0.71,2.972
		c1.434-1.264,2.738-2.139,3.912-2.626c1.174-0.485,2.311-0.73,3.409-0.73c1.54,0,2.786,0.366,3.74,1.096
		c0.953,0.732,1.43,1.769,1.43,3.112c0,0.599-0.175,1.571-0.525,2.918l-2.623,10.311h-3.376l2.769-10.806
		c0.27-1.06,0.406-1.84,0.406-2.343c0-0.59-0.241-1.053-0.722-1.39c-0.481-0.338-1.134-0.507-1.96-0.507
		c-1.711,0-3.251,0.53-4.618,1.591c-1.367,1.06-2.372,2.9-3.013,5.524l-1.937,7.93H172.098z"/>
	<path clip-path="url(#SVGID_2_)" fill="#706F6F" d="M201.405,152.819l-0.49,2.37c-0.666,0.181-1.312,0.272-1.94,0.272
		c-1.043,0-1.868-0.236-2.477-0.705c-0.609-0.47-0.913-1.099-0.913-1.889c0-0.374,0.141-1.239,0.422-2.599l2.043-9.856h-2.267
		l0.465-2.242h2.266l0.846-4.082l3.304-2.001l-1.26,6.083h2.809l-0.465,2.242h-2.809l-1.944,9.38
		c-0.245,1.213-0.368,1.926-0.368,2.141c0,0.376,0.1,0.65,0.301,0.821c0.201,0.171,0.498,0.257,0.894,0.257
		C200.41,153.012,200.937,152.947,201.405,152.819"/>
	<path clip-path="url(#SVGID_2_)" fill="#706F6F" d="M218.332,155.179l3.752-16.669h2.722l-0.766,3.406
		c1.794-2.521,3.597-3.782,5.407-3.782c0.616,0,1.37,0.204,2.261,0.612l-1.257,2.637c-0.535-0.355-1.097-0.534-1.686-0.534
		c-1.123,0-2.244,0.563-3.361,1.688c-1.117,1.125-1.993,3.11-2.629,5.956l-1.533,6.687H218.332z"/>
	<path clip-path="url(#SVGID_2_)" fill="#706F6F" d="M245.754,149.513l2.984,0.027c-0.487,1.621-1.661,3.291-3.435,4.493
		c-1.476,1.015-3.121,1.522-4.935,1.522c-1.287,0-2.458-0.27-3.514-0.808c-1.056-0.539-1.896-1.346-2.519-2.417
		c-0.623-1.073-0.934-2.353-0.934-3.839c0-1.956,0.477-3.781,1.43-5.478c0.953-1.695,2.12-2.932,3.499-3.712
		c1.379-0.779,2.873-1.169,4.483-1.169c2.042,0,3.708,0.602,5,1.805c1.291,1.203,1.937,2.903,1.937,5.102
		c0,0.815-0.074,1.653-0.222,2.511h-13.044c-0.041,0.334-0.061,0.631-0.061,0.893c0,1.564,0.387,2.752,1.161,3.562
		c0.774,0.808,1.705,1.212,2.792,1.212c1.032,0,2.047-0.317,3.045-0.953C244.419,151.629,245.197,150.712,245.754,149.513
		 M236.973,145.385h9.937v-0.582c0-1.491-0.38-2.608-1.138-3.354c-0.759-0.744-1.728-1.116-2.906-1.116
		c-1.273,0-2.442,0.42-3.505,1.259C238.297,142.43,237.501,143.695,236.973,145.385 M240.48,136.485l3.124-4.315h3.793l-4.422,4.315
		H240.48z"/>
	<path clip-path="url(#SVGID_2_)" fill="#706F6F" d="M264.211,152.075c-2.285,2.32-4.62,3.48-7.006,3.48
		c-1.383,0-2.543-0.364-3.481-1.09c-0.939-0.729-1.408-1.663-1.408-2.809c0-0.727,0.204-1.957,0.611-3.688l2.291-9.834h3.261
		l-2.534,10.895c-0.218,0.909-0.327,1.608-0.327,2.097c0,0.669,0.225,1.177,0.677,1.521c0.452,0.345,1.087,0.518,1.903,0.518
		c1.152,0,2.3-0.339,3.444-1.017s1.982-1.528,2.515-2.549c0.532-1.02,1.007-2.39,1.426-4.109l1.836-7.355h3.261l-4.219,17.035
		h-3.018L264.211,152.075z"/>
	<path clip-path="url(#SVGID_2_)" fill="#706F6F" d="M272.91,155.179l3.896-17.052h2.913l-0.673,2.972
		c1.357-1.264,2.592-2.139,3.703-2.626c1.112-0.485,2.187-0.73,3.226-0.73c1.458,0,2.638,0.366,3.54,1.096
		c0.903,0.732,1.353,1.769,1.353,3.112c0,0.599-0.165,1.571-0.496,2.918l-2.483,10.311h-3.195l2.621-10.806
		c0.256-1.06,0.384-1.84,0.384-2.343c0-0.59-0.227-1.053-0.683-1.39c-0.456-0.338-1.074-0.507-1.855-0.507
		c-1.619,0-3.077,0.53-4.371,1.591c-1.295,1.06-2.245,2.9-2.853,5.524l-1.832,7.93H272.91z"/>
	<path clip-path="url(#SVGID_2_)" fill="#706F6F" d="M294.213,155.179l3.864-17.058h3.17l-3.864,17.058H294.213z M298.803,134.925
		l0.746-3.292h3.169l-0.746,3.292H298.803z"/>
	<path clip-path="url(#SVGID_2_)" fill="#706F6F" d="M303.885,148.854c0-3.003,0.881-5.541,2.641-7.612
		c1.76-2.071,4.121-3.107,7.083-3.107c2.074,0,3.787,0.609,5.138,1.829c1.351,1.218,2.027,2.952,2.027,5.202
		c0,2.062-0.461,3.903-1.382,5.524c-0.921,1.622-2.116,2.839-3.582,3.65c-1.468,0.811-3.007,1.216-4.617,1.216
		c-2.115,0-3.862-0.6-5.24-1.797C304.574,152.561,303.885,150.926,303.885,148.854 M306.935,148.571c0,1.58,0.41,2.772,1.229,3.578
		c0.819,0.806,1.842,1.209,3.07,1.209c0.969,0,1.938-0.301,2.907-0.903c0.969-0.602,1.815-1.598,2.538-2.988
		c0.723-1.393,1.085-2.821,1.085-4.286c0-1.589-0.409-2.796-1.228-3.618c-0.819-0.821-1.829-1.231-3.03-1.231
		c-1.05,0-2.071,0.299-3.06,0.895c-0.99,0.597-1.822,1.583-2.497,2.958C307.273,145.561,306.935,147.022,306.935,148.571"/>
	<path clip-path="url(#SVGID_2_)" fill="#706F6F" d="M324.186,155.179l3.771-17.052h2.818l-0.651,2.972
		c1.314-1.264,2.508-2.139,3.584-2.626c1.076-0.485,2.117-0.73,3.123-0.73c1.411,0,2.552,0.366,3.426,1.096
		c0.873,0.732,1.31,1.769,1.31,3.112c0,0.599-0.161,1.571-0.481,2.918l-2.402,10.311h-3.093l2.536-10.806
		c0.248-1.06,0.372-1.84,0.372-2.343c0-0.59-0.22-1.053-0.662-1.39c-0.44-0.338-1.039-0.507-1.795-0.507
		c-1.566,0-2.978,0.53-4.23,1.591c-1.253,1.06-2.173,2.9-2.761,5.524l-1.773,7.93H324.186z"/>
	<path clip-path="url(#SVGID_2_)" fill="#706F6F" d="M345.117,155.179l3.842-17.052h2.872l-0.663,2.972
		c1.339-1.264,2.556-2.139,3.652-2.626c1.096-0.485,2.157-0.73,3.182-0.73c1.438,0,2.601,0.366,3.491,1.096
		c0.89,0.732,1.335,1.769,1.335,3.112c0,0.599-0.163,1.571-0.49,2.918l-2.448,10.311h-3.151l2.585-10.806
		c0.251-1.06,0.378-1.84,0.378-2.343c0-0.59-0.225-1.053-0.674-1.39c-0.449-0.338-1.059-0.507-1.829-0.507
		c-1.597,0-3.035,0.53-4.311,1.591c-1.277,1.06-2.214,2.9-2.813,5.524l-1.807,7.93H345.117z"/>
	<path clip-path="url(#SVGID_2_)" fill="#706F6F" d="M378.936,153.106c-1.175,0.9-2.278,1.533-3.309,1.899
		c-1.032,0.367-2.078,0.55-3.138,0.55c-1.662,0-3.041-0.434-4.137-1.302c-1.096-0.869-1.643-2.052-1.643-3.548
		c0-1.067,0.321-1.998,0.966-2.793c0.644-0.797,1.548-1.406,2.713-1.829c1.164-0.425,2.83-0.673,4.998-0.745
		c1.831-0.074,3.086-0.152,3.767-0.236c0.682-0.084,1.264-0.21,1.747-0.377c0.306-0.795,0.459-1.444,0.459-1.946
		c0-0.695-0.362-1.255-1.085-1.676c-0.724-0.421-1.771-0.632-3.143-0.632c-2.759,0-4.549,1.005-5.369,3.014l-3.247-0.098
		c1.394-3.411,4.345-5.254,8.809-5.254c2.203,0,3.95,0.421,5.243,1.263c1.292,0.843,1.938,1.901,1.938,3.178
		c0,0.875-0.171,1.901-0.512,3.078l-1.228,4.125c-0.393,1.313-0.589,2.376-0.589,3.188c0,0.56,0.121,1.297,0.366,2.213h-3.277
		C379.107,154.655,378.997,153.965,378.936,153.106 M380.339,146.734c-0.803,0.272-2.162,0.481-4.075,0.628
		c-1.956,0.146-3.3,0.335-4.03,0.565c-0.73,0.229-1.3,0.58-1.708,1.052c-0.409,0.471-0.613,1.015-0.613,1.632
		c0,0.849,0.325,1.519,0.976,2.009c0.651,0.492,1.519,0.738,2.605,0.738c1.027,0,2.019-0.229,2.973-0.69
		c0.955-0.46,1.733-1.124,2.333-1.994C379.401,149.806,379.914,148.492,380.339,146.734"/>
	<path clip-path="url(#SVGID_2_)" fill="#706F6F" d="M386.371,155.179l4.404-17.088h3.611l-4.403,17.088H386.371z M391.6,134.89
		l0.85-3.299h3.611l-0.85,3.299H391.6z"/>
	<path clip-path="url(#SVGID_2_)" fill="#706F6F" d="M396.351,149.091l2.828,0.017c-0.014,1.358,0.41,2.576,1.162,3.246
		c0.753,0.671,1.778,1.006,3.076,1.006c1.181,0,2.115-0.239,2.803-0.716c0.688-0.476,1.031-1.085,1.031-1.827
		c0-0.534-0.213-1.016-0.642-1.445c-0.441-0.428-1.395-0.952-2.861-1.569c-1.687-0.711-2.8-1.258-3.338-1.64
		c-0.539-0.382-0.957-0.847-1.256-1.397c-0.299-0.549-0.448-1.164-0.448-1.844c0-1.392,0.558-2.537,1.674-3.437
		c1.117-0.9,2.583-1.351,4.399-1.351c2.012,0,3.602,0.463,4.77,1.39c1.168,0.925,1.778,2.666,1.829,4.329l-2.817,0.021
		c-0.039-1.047-0.437-2.13-1.144-2.694c-0.708-0.565-1.658-0.848-2.851-0.848c-0.935,0-1.694,0.212-2.278,0.636
		s-0.876,0.913-0.876,1.467c0,0.481,0.175,0.896,0.526,1.24c0.35,0.356,1.239,0.832,2.667,1.428c2.194,0.93,3.589,1.674,4.185,2.228
		c0.908,0.868,1.362,1.926,1.362,3.171c0,1.382-0.606,2.57-1.818,3.565c-1.212,0.993-2.892,1.49-5.044,1.49
		c-2.164,0-3.861-0.503-5.092-1.507c-1.231-1.005-1.847-2.423-1.847-4.254V149.091z"/>
</g>
</svg>
