<?xml version="1.0" encoding="utf-8"?>
<!-- Generator: Adobe Illustrator 15.1.0, SVG Export Plug-In . SVG Version: 6.00 Build 0)  -->
<!DOCTYPE svg PUBLIC "-//W3C//DTD SVG 1.1//EN" "http://www.w3.org/Graphics/SVG/1.1/DTD/svg11.dtd">
<svg version="1.1" id="Calque_1" xmlns="http://www.w3.org/2000/svg" xmlns:xlink="http://www.w3.org/1999/xlink" x="0px" y="0px"
	 width="720px" height="181.417px" viewBox="0.119 0.25 720 181.417" enable-background="new 0.119 0.25 720 181.417"
	 xml:space="preserve">
<g id="Calque_2">
	<rect fill="#FFFFFF" width="720.239" height="181.918"/>
</g>
<g id="Calque_1_1_">
	<g>
		<g>
			<defs>
				<rect id="SVGID_1_" width="720.239" height="181.918"/>
			</defs>
			<clipPath id="SVGID_2_">
				<use xlink:href="#SVGID_1_"  overflow="visible"/>
			</clipPath>
			<path clip-path="url(#SVGID_2_)" fill="#CA342C" d="M0,181.918h720.239V0H0V181.918z M350.99,56.309
				c1.353-2.878,3.438-3.976,6.557-3.439c1.155,0.198,2.371,0.032,3.56,0.032c0.121,0.155,0.243,0.311,0.365,0.465
				c-0.347,0.176-0.752,0.287-1.029,0.538c-2.164,1.953-4.283,3.957-6.469,5.887c-0.397,0.352-1.023,0.578-1.56,0.614
				c-1.299,0.088-2.608,0.028-4.153,0.028C349.264,58.944,350.326,57.721,350.99,56.309 M106.374,69.152
				c3.107-5.742,10.266-7.425,15.376-4.589c1.161,0.645,2.121,1.649,3.254,2.551V53.433h7.583v38.366h-7.006v-3.286
				c-0.19-0.138-0.381-0.274-0.571-0.412c-0.129,0.331-0.188,0.716-0.398,0.983c-2.242,2.848-5.364,3.801-8.742,3.362
				c-6.918-0.896-10.96-5.632-11.476-12.666C104.118,76.02,104.575,72.478,106.374,69.152 M109.237,105.935
				c-1.403,1.339-2.613,2.494-3.822,3.647c-0.079-0.086-0.156-0.17-0.232-0.254C105.931,107.409,107.646,105.82,109.237,105.935
				 M31.993,77.925c-2.229,0.053-4.46,0.012-6.841,0.012v13.821h-8.227V53.4c0.402-0.019,0.789-0.055,1.178-0.056
				c5.114-0.003,10.232-0.088,15.346,0.04c2.086,0.051,4.236,0.314,6.227,0.915c6.242,1.878,8.365,7.78,7.698,12.786
				c-0.83,6.23-3.793,9.267-9.898,10.492C35.696,77.935,33.825,77.881,31.993,77.925 M48.838,114.766
				c-0.688-1.794-1.436-2.426-3.323-2.396c-0.739,0.012-1.568,0.092-2.184,0.443c-0.581,0.331-1.142,0.995-1.34,1.629
				c-0.262,0.838-0.098,1.779,0.862,2.256c1.245,0.615,2.512,1.186,3.758,1.793c2.133,1.043,2.7,1.877,2.556,3.701
				c-0.125,1.596-1.254,2.887-3.261,3.337c-2.106,0.474-4.216,0.492-5.92-1.202c-0.834-0.83-1.094-1.64-0.988-3.021
				c0.362-0.016,0.738-0.033,1.103-0.049c0.626,3.145,3.76,4.474,6.521,2.922c1.548-0.87,1.811-3.598-0.139-4.473
				c-1.342-0.603-2.716-1.142-4.024-1.81c-1.017-0.519-1.783-1.272-1.889-2.56c-0.128-1.564,0.56-2.594,1.863-3.307
				c2.122-1.16,5.339-0.932,6.67,0.607c0.579,0.669,0.859,1.597,1.274,2.408C50.194,115.206,48.965,115.098,48.838,114.766z
				 M64.385,114.702c-0.483-1.697-1.676-2.502-3.469-2.33c-0.704,0.067-1.436,0.172-2.083,0.435
				c-1.625,0.655-1.882,2.927-0.396,3.848c1.17,0.729,2.495,1.209,3.742,1.818c2.157,1.053,2.762,1.956,2.583,3.803
				c-0.15,1.535-1.386,2.909-3.326,3.292c-2.018,0.398-4.063,0.45-5.741-1.124c-0.868-0.815-1.254-1.813-1.147-3.142h1.141
				c0.392,3.191,2.623,3.869,6.049,3.046c0.926-0.224,1.566-0.886,1.692-1.937c0.143-1.193-0.195-2.148-1.316-2.683
				c-1.328-0.631-2.71-1.149-4.026-1.806c-1.367-0.682-2.159-1.78-1.878-3.385c0.092-0.522,0.279-1.101,0.609-1.496
				c1.843-2.215,6.253-2.383,8.025-0.26c0.532,0.637,0.729,1.555,1.104,2.399C65.01,115.517,64.594,115.438,64.385,114.702
				 M69.969,70.257c-1.238,0-2.463-0.097-3.667,0.017c-3.484,0.329-5.681,2.34-6.318,5.811c-0.222,1.206-0.262,2.456-0.274,3.688
				c-0.034,3.559-0.012,7.118-0.012,10.678v1.346h-7.474V63.951h6.981v4.757c1.567-1.431,2.963-2.989,4.636-4.155
				c1.769-1.235,3.887-1.579,6.128-1.083V70.257z M81.726,118.685c-0.417,1.937-0.913,3.856-1.289,5.802
				c-0.148,0.768-0.805,0.771-1.523,0.572l0.305-1.852c0,0-0.982,0.775-1.367,1.139c-1.508,1.418-3.296,1.705-5.214,1.205
				c-1.928-0.504-2.703-2.137-2.228-4.612c0.523-2.726,1.108-5.438,1.672-8.155c0.166-0.796,0.579-1.188,1.529-0.764
				c-0.503,2.324-1.04,4.662-1.502,7.018c-0.212,1.084-0.356,2.194-0.394,3.299c-0.048,1.418,0.758,2.127,2.192,2.297
				c3.145,0.373,4.959-1.508,5.757-3.827c0.883-2.571,1.375-5.283,1.955-7.951c0.188-0.866,0.537-1.168,1.498-0.897
				C82.653,114.211,82.207,116.452,81.726,118.685 M82.16,92.426c-0.595-0.057-1.202-0.059-1.781-0.189
				c-4.24-0.959-6.688-3.489-6.83-7.897c-0.219-6.743-0.057-13.497-0.057-20.386h7.325c0,0.476,0,0.9,0,1.326
				c0.006,5.197,0.01,10.396,0.021,15.592c0.001,0.438-0.004,0.888,0.083,1.312c0.671,3.326,2.087,4.524,5.267,4.498
				c3.082-0.026,4.984-1.599,5.516-4.71c0.213-1.248,0.256-2.536,0.266-3.808c0.031-4.276,0.012-8.556,0.012-12.833v-1.359h7.466
				v27.825h-7.019v-4.012c-0.447,0.417-0.679,0.587-0.853,0.803C89.145,91.61,85.965,92.784,82.16,92.426 M95.644,112.898
				c-2.319-0.94-5.579,1.86-6.407,6.099c-0.401,2.059-0.863,4.104-1.311,6.207h-1.274c0.286-1.432,0.541-2.809,0.836-4.177
				c0.597-2.752,1.267-5.489,1.797-8.254c0.174-0.899,0.537-1.026,1.305-0.829c-0.124,0.855-0.241,1.662-0.396,2.725
				c1.672-1.701,3.03-3.59,5.768-2.899C95.853,112.155,95.744,112.542,95.644,112.898 M108.109,122.197
				c0.364-0.641,0.656-1.194,1.585-0.836c-0.647,2.813-2.986,4.459-6.165,4.388c-2.654-0.061-4.158-1.188-4.911-3.682
				c-1.022-3.387,0.701-8.091,3.71-9.859c2.817-1.656,7.2-1.194,8.117,2.734c0.273,1.172,0.15,2.436,0.217,3.809l-10.77,0.121
				c-0.604,1.938,0.012,4.699,1.933,5.443C103.747,125.059,106.637,124.793,108.109,122.197z M134.068,119.763
				c-0.261,1.522-1.133,5.442-1.133,5.442l-1.354,0.041c0,0,1.202-5.594,1.731-8.313c0.165-0.851,0.213-1.745,0.164-2.611
				c-0.059-1.046-0.746-1.655-1.76-1.808c-2.364-0.354-4.25,0.595-5.004,2.88c-0.894,2.702-2.434,9.263-2.56,9.813h-1.259
				c0.287-1.438,0.548-2.814,0.838-4.186c0.346-1.629,0.742-3.248,1.061-4.882c0.106-0.54,0.112-1.123,0.043-1.67
				c-0.227-1.813-2.041-2.623-3.989-1.746c-2.193,0.987-3.193,2.931-3.757,5.11c-0.546,2.11-1.717,7.203-1.717,7.203l-1.203,0.135
				c0,0,1.888-8.771,2.852-13.248c0.335-0.021,0.668-0.039,1.055-0.063c-0.033,0.675-0.199,1.608-0.199,1.608
				s2.606-1.862,4.553-2.025c2.869-0.24,3.82,2.713,3.82,2.713s0.973-1.295,1.626-1.766c1.391-1,3.06-1.206,4.601-0.941
				c1.382,0.235,2.428,1.422,2.34,2.896C134.71,116.161,134.377,117.965,134.068,119.763 M140.483,68.48
				c3.153-4.036,7.421-5.513,12.47-5.155c6.906,0.491,11.124,5.964,11.893,12.046c0.172,1.367,0.213,2.751,0.323,4.241h-20.143
				c-0.468,4.121,2.264,7.236,6.201,7.317c2.771,0.056,5.106-0.729,6.646-3.21c0.116-0.189,0.41-0.375,0.625-0.379
				c1.953-0.029,3.906-0.018,6.008-0.018c-1.255,3.717-3.283,6.637-6.919,8.064c-4.576,1.795-9.152,1.64-13.501-0.732
				c-3.729-2.034-5.672-5.401-6.389-9.492C136.894,76.572,137.555,72.228,140.483,68.48 M143.612,124.325
				c2.568,0.772,4.793,0.426,6.283-2.146c0.248-0.429,0.705-0.788,0.705-0.788s0.658-0.131,1.251-0.082
				c-0.701,2.059-2.194,3.709-4.352,4.199c-3.523,0.802-6.128-0.092-7.129-3.469c-0.995-3.35,0.689-7.967,3.64-9.787
				c2.752-1.696,7.268-1.267,8.154,2.606c0.283,1.236,0.249,3.95,0.249,3.95h-10.63
				C141.268,120.997,142.047,123.853,143.612,124.325 M168.395,116.124c-0.515,2.768-1.125,5.517-1.693,8.272
				c-0.179,0.871-0.668,1.091-1.514,0.701c0.591-2.751,1.214-5.488,1.753-8.243c0.167-0.848,0.187-1.747,0.127-2.611
				c-0.069-0.986-1.044-1.68-2.241-1.744c-2.76-0.151-4.898,1.164-5.726,3.869c-0.798,2.607-1.343,5.295-1.931,7.961
				c-0.181,0.819-0.54,1.094-1.483,0.834c0.281-1.361,0.558-2.74,0.85-4.115c0.587-2.752,1.192-5.5,1.768-8.256
				c0.152-0.727,0.405-1.196,1.271-0.842v1.932c0.539-0.43,0.967-0.719,1.332-1.071c1.493-1.444,3.29-1.729,5.206-1.265
				C168.065,112.02,168.859,113.624,168.395,116.124 M177.611,113.006c-0.646,3.002-1.367,6.086-1.954,9.195
				c-0.364,1.924-0.106,2.137,1.815,2.186c0.234,0.005,0.467,0.039,0.796,0.066c-0.06,0.313-0.09,0.787-0.158,0.793
				c-0.968,0.073-1.982,0.256-2.894,0.035c-0.421-0.103-0.964-1.055-0.905-1.559c0.241-2.08,0.683-4.139,1.065-6.201
				c0.281-1.509,0.585-3.012,0.903-4.643c-0.866-0.055-1.567-0.1-2.358-0.148c0.398-1.667,1.824-0.404,2.659-1.193
				c0.266-1.152,0.584-2.525,0.917-3.963c0.442,0.022,0.82,0.041,1.247,0.063c-0.275,1.409-0.528,2.707-0.805,4.131
				c1.028,0.05,1.845,0.09,2.876,0.142C179.986,113.429,178.602,112.401,177.611,113.006 M188.462,90.547
				c-0.005-5.198-0.01-10.395-0.021-15.592c-0.001-0.438,0.015-0.888-0.067-1.314c-0.8-4.187-4.563-5.937-8.312-3.809
				c-2.215,1.26-2.683,3.499-2.723,5.775c-0.087,4.916-0.037,9.834-0.043,14.751c0,0.438,0,0.874,0,1.404h-7.482V63.945h7.034v3.722
				c0.1,0.032,0.2,0.064,0.299,0.097c0.222-0.241,0.451-0.476,0.66-0.728c2.413-2.901,5.535-4.041,9.244-3.712
				c0.634,0.058,1.274,0.096,1.896,0.215c4.959,0.948,6.618,4.295,6.784,8.055c0.292,6.583,0.206,13.182,0.274,19.773
				c0.001,0.113-0.045,0.229-0.084,0.415h-7.46C188.462,91.386,188.462,90.967,188.462,90.547 M201.861,112.926
				c-2.828-0.278-4.879,2.031-5.578,5.055c-0.277,1.198-0.492,2.408-0.755,3.609c-0.262,1.195-0.548,2.387-0.834,3.623h-1.242
				c0.278-1.422,0.52-2.766,0.807-4.1c0.611-2.83,1.282-5.646,1.85-8.486c0.183-0.912,0.651-0.812,1.28-0.683
				c-0.123,0.872-0.237,1.681-0.363,2.571c3.333-2.984,3.563-3.096,6.059-2.705C202.551,112.317,202.173,112.958,201.861,112.926
				 M201.298,77.04c0.208-3.305,1.089-6.36,3.198-8.973c2.305-2.857,5.348-4.284,8.965-4.7c3.011-0.346,5.888,0.044,8.643,1.249
				c3.75,1.641,6.349,5.368,6.269,8.954h-7.145c-1.246-3.973-4.223-5.684-7.849-4.453c-2.437,0.827-3.585,2.791-4.191,5.146
				c-0.701,2.723-0.707,5.45,0.194,8.126c1.092,3.245,3.183,4.673,6.476,4.533c2.727-0.117,4.712-1.987,5.473-5.155
				c0.027-0.11,0.074-0.215,0.137-0.396h7.094c-0.513,3.785-2.08,6.858-5.242,8.95c-5.225,3.455-13.938,2.958-18.4-1.998
				C202.023,85.103,201.033,81.282,201.298,77.04 M215.773,105.928c-1.169,1.294-2.212,2.666-3.61,3.636
				c-0.112-0.112-0.223-0.226-0.334-0.338c0.816-1.044,1.579-2.136,2.478-3.103C214.579,105.831,215.226,105.885,215.773,105.928
				 M217.293,118.771h-10.548c-0.799,3.146,0.773,5.302,2.35,5.747c2.402,0.68,4.7-0.236,5.907-2.445
				c0.447-0.814,0.447-0.814,1.566-0.718c-0.704,2.056-1.874,3.667-4.034,4.155c-3.521,0.797-6.125-0.092-7.125-3.477
				c-0.992-3.353,0.69-7.979,3.648-9.781c2.798-1.705,7.277-1.293,8.196,2.722C217.52,116.135,217.293,117.409,217.293,118.771
				 M233.23,118.191c-0.453,2.091-0.942,4.175-1.35,6.274c-0.142,0.734-0.46,0.945-1.217,0.717v-1.961
				c-0.55,0.445-0.978,0.752-1.355,1.111c-1.502,1.428-3.292,1.717-5.211,1.227c-1.92-0.489-2.692-1.98-2.251-4.479
				c0.494-2.811,1.13-5.596,1.702-8.392c0.165-0.806,0.629-1.037,1.503-0.679c-0.5,2.318-1.032,4.654-1.494,7.004
				c-0.213,1.085-0.362,2.195-0.401,3.299c-0.049,1.432,0.74,2.146,2.172,2.316c3.114,0.365,4.917-1.396,5.769-3.807
				c0.904-2.562,1.379-5.281,1.962-7.949c0.185-0.849,0.5-1.201,1.516-0.91C234.126,114.042,233.681,116.118,233.23,118.191
				 M250.712,116.172c-0.521,2.726-1.108,5.438-1.673,8.154c-0.164,0.789-0.573,1.192-1.529,0.789
				c0.59-2.771,1.197-5.477,1.725-8.195c0.167-0.85,0.202-1.741,0.159-2.608c-0.051-1.009-0.996-1.679-2.176-1.823
				c-3.14-0.381-4.954,1.485-5.759,3.818c-0.889,2.57-1.375,5.285-1.958,7.951c-0.187,0.853-0.509,1.199-1.491,0.888
				c0.449-2.196,0.884-4.397,1.354-6.592c0.425-1.978,0.93-3.937,1.32-5.917c0.147-0.76,0.487-0.917,1.201-0.707v1.988
				c0.568-0.467,0.996-0.78,1.379-1.143c1.505-1.421,3.295-1.709,5.212-1.212C250.406,112.066,251.186,113.693,250.712,116.172
				 M237.02,89.726c-2.934-2.049-4.404-5.099-5.002-8.559c-0.795-4.593-0.146-8.936,2.782-12.684
				c3.153-4.036,7.419-5.517,12.469-5.159c6.925,0.49,11.13,5.979,11.896,12.041c0.173,1.368,0.213,2.752,0.325,4.243h-20.139
				c-0.485,4.107,2.256,7.238,6.191,7.32c2.771,0.057,5.103-0.729,6.652-3.205c0.129-0.207,0.485-0.38,0.739-0.384
				c1.915-0.033,3.829-0.019,5.884-0.019c-1.075,3.299-2.768,6.064-5.835,7.535C247.512,93.483,242.076,93.262,237.02,89.726
				 M256.466,125.185h-1.31c0.691-3.231,1.36-6.367,2.031-9.503c0.207-0.971,0.465-1.932,0.617-2.909
				c0.131-0.845,0.556-1.073,1.504-0.8C258.363,116.368,257.417,120.766,256.466,125.185 M260.009,108.592h-1.148
				c0.212-2.207,0.161-2.762,1.657-2.352C260.353,107.006,260.186,107.78,260.009,108.592 M272.273,124.766
				c-1.801,1.262-5.66,1.459-6.964,0.018c-0.772-0.854-1.634-1.871-1.848-2.937c-0.712-3.562,0.551-7.86,3.994-9.712
				c2.652-1.428,7.358-1.204,8.345,2.757c0.163,0.647,0.172,1.333,0.225,1.772C275.891,120.061,275.01,122.85,272.273,124.766
				 M292.708,116.193c-0.525,2.726-1.11,5.438-1.673,8.155c-0.168,0.813-0.6,1.166-1.522,0.753c0.592-2.776,1.2-5.479,1.731-8.2
				c0.165-0.85,0.194-1.744,0.147-2.609c-0.055-0.998-1.018-1.658-2.195-1.805c-3.181-0.392-5.009,1.625-5.748,3.84
				c-0.863,2.582-1.372,5.284-1.95,7.953c-0.191,0.883-0.563,1.139-1.499,0.887c0.468-2.271,0.921-4.513,1.399-6.748
				c0.406-1.899,0.857-3.787,1.253-5.689c0.146-0.701,0.415-1.094,1.244-0.777v1.978c0.567-0.476,0.997-0.796,1.382-1.165
				c1.469-1.401,3.24-1.666,5.11-1.239C292.379,111.978,293.195,113.672,292.708,116.193 M309.755,116.038
				c-0.495,2.811-1.13,5.596-1.703,8.393c-0.165,0.806-0.63,1.037-1.504,0.679c0.5-2.319,1.033-4.655,1.495-7.006
				c0.214-1.085,0.363-2.194,0.4-3.298c0.05-1.434-0.74-2.146-2.172-2.314c-3.118-0.367-4.922,1.402-5.769,3.807
				c-0.902,2.563-1.379,5.281-1.961,7.949c-0.185,0.852-0.503,1.198-1.517,0.91c0.449-2.08,0.895-4.156,1.345-6.23
				c0.453-2.092,0.946-4.176,1.35-6.274c0.142-0.743,0.47-0.937,1.217-0.718v1.967c0.548-0.447,0.976-0.753,1.354-1.111
				c1.502-1.428,3.292-1.719,5.21-1.229C309.423,112.049,310.195,113.54,309.755,116.038 M312.755,83.027
				c-2.609,5.915-7.228,9.043-13.623,9.589c-6.146,0.524-11.55-1.1-15.782-5.768c-2.825-3.113-4.247-6.872-4.73-11.023
				c-0.606-5.215,0.07-10.204,2.792-14.754c3.16-5.278,7.923-8.005,14.037-8.503c4.838-0.393,9.291,0.545,13.137,3.627
				c3.146,2.522,4.751,5.901,5.312,9.957h-7.929c-1.306-4.314-4.055-6.515-8.485-6.82c-3.827-0.264-7.621,1.952-9.218,5.653
				c-2.114,4.899-2.237,9.942-0.187,14.874c2.248,5.41,7.53,6.945,12.281,5.491c3.413-1.045,4.98-3.825,5.638-7.131
				c0.185-0.928,0.523-1.157,1.394-1.136c2.192,0.054,4.386,0.018,6.695,0.018C314.161,79.262,313.568,81.186,312.755,83.027
				 M326.345,124.556c-0.367,0.397-0.573,0.834-0.857,0.894c-1.365,0.281-1.601,0.051-2.213-2.035
				c-0.329,0.306-0.597,0.545-0.857,0.793c-2.065,1.965-5.682,2.145-7.396,0.367c-1.499-1.554-1.157-4.715,0.81-5.557
				c1.643-0.703,6.134-1.344,6.573-1.367c2.233-0.109,3.376-1.843,2.529-3.926c-0.161-0.396-0.599-0.76-0.999-0.965
				c-2.554-1.311-5.76,0.048-6.591,2.794h-1.247c0.228-1.443,0.848-2.511,2.032-3.263c1.777-1.129,3.732-1.158,5.656-0.724
				c2.376,0.539,3.053,1.856,2.508,4.435c-0.47,2.215-0.983,4.416-1.479,6.623C324.474,124.131,324.548,124.25,326.345,124.556
				 M332.045,125.267c-0.472-0.026-0.847-0.048-1.281-0.074c0.912-4.312,1.778-8.505,2.725-12.679
				c0.077-0.342,1.305-0.629,1.42-0.528C333.959,116.388,333.01,120.792,332.045,125.267 M335.608,108.586h-1.16
				c0.243-2.131,0.125-2.762,1.675-2.34C335.955,107.016,335.782,107.792,335.608,108.586 M337.095,70.259
				c-1.265,0-2.493-0.093-3.701,0.017c-3.409,0.309-5.631,2.313-6.277,5.718c-0.242,1.281-0.274,2.615-0.285,3.926
				c-0.036,3.916-0.014,7.833-0.014,11.885h-7.484v-27.82h7.014v4.81c0.085,0.064,0.169,0.13,0.254,0.193
				c2.39-3.994,5.694-6.172,10.493-5.59L337.095,70.259L337.095,70.259z M348.344,114.702c-0.59-1.677-1.703-2.494-3.495-2.33
				c-0.703,0.063-1.433,0.17-2.083,0.432c-1.631,0.65-1.904,2.918-0.421,3.843c1.171,0.729,2.495,1.209,3.742,1.819
				c2.168,1.058,2.769,1.945,2.596,3.795c-0.145,1.546-1.365,2.88-3.315,3.305c-1.642,0.357-3.328,0.411-4.882-0.479
				c-1.402-0.803-2.107-1.994-2.05-3.756c0.408-0.031,0.782-0.063,1.153-0.094c0.428,3.262,2.589,3.924,6.053,3.112
				c0.928-0.218,1.574-0.877,1.703-1.925c0.146-1.19-0.177-2.155-1.301-2.69c-1.147-0.546-2.348-0.981-3.496-1.528
				c-2.036-0.969-2.608-1.896-2.429-3.775c0.12-1.289,1.32-2.576,3.105-2.887c1.959-0.34,4.055-0.605,5.526,1.228
				c0.524,0.653,0.738,1.56,1.095,2.351C349.661,115.264,348.468,115.054,348.344,114.702z M351.795,86.919
				c2.891,0.13,5.371-0.602,6.984-3.241c0.123-0.2,0.503-0.337,0.767-0.341c1.877-0.029,3.753-0.017,5.902-0.017
				c-0.435,0.98-0.757,1.852-1.189,2.661c-2.11,3.943-5.443,5.969-9.873,6.414c-4.012,0.404-7.725-0.266-10.953-2.759
				c-3.08-2.376-4.54-5.667-4.999-9.464c-0.529-4.386,0.279-8.452,3.107-11.921c3.14-3.854,7.32-5.258,12.223-4.938
				c6.927,0.453,11.22,5.963,11.967,12.104c0.163,1.337,0.214,2.686,0.331,4.226h-20.102
				C345.272,83.369,348.036,86.751,351.795,86.919 M398.447,79.293c-0.227,3.023-1.067,5.799-2.948,8.194
				c-2.352,2.992-5.502,4.51-9.248,4.885c-0.677,0.066-1.349,0.156-1.816,0.211c-7.204-0.234-12.89-3.581-14.208-11.65
				c-0.95-5.81,0.186-11.206,5.209-15.016c3.17-2.403,6.868-2.979,10.782-2.542c4.16,0.465,7.567,2.211,9.884,5.748
				C398.116,72.201,398.718,75.643,398.447,79.293 M411.465,91.762h-7.41V53.394h7.41V91.762z M430.083,86.923
				c2.896,0.114,5.366-0.638,6.959-3.289c0.104-0.177,0.441-0.297,0.673-0.299c1.916-0.023,3.833-0.014,5.894-0.014
				c-1.057,3.297-2.749,6.061-5.813,7.525c-5.605,2.686-11.172,2.451-16.24-1.335c-3.297-2.463-4.607-6.068-4.945-10.104
				c-0.34-4.066,0.508-7.802,3.051-11.005c3.151-3.97,7.389-5.429,12.391-5.08c6.922,0.482,11.139,5.963,11.912,12.026
				c0.176,1.37,0.217,2.755,0.332,4.288h-20.13C423.631,83.546,426.323,86.772,430.083,86.923 M541.98,150.04
				c-2.501,0.086-2.501,0.113-2.501,2.653v11.917c-1.102-0.848-2.061-1.568-2.995-2.316c-0.472-0.371-0.838-0.508-1.312,0.043
				c-2.701,3.147-6.12,3.287-9.727,2.108c-3.852-1.26-6.018-4.219-7.27-7.89c-1.986-5.821-1.832-11.543,1.299-16.959
				c2.758-4.77,8.191-6.866,13.166-5.141c1.104,0.385,2.088,1.098,3.326,1.766c0.876-0.607,1.973-1.368,3.191-2.215v10.613
				l-0.245,0.158c-0.187-0.291-0.452-0.558-0.55-0.878c-0.686-2.229-1.558-4.366-3.096-6.155c-2.031-2.363-4.549-3.457-7.678-2.686
				c-1.891,0.466-3.242,1.746-3.85,3.482c-0.768,2.193-1.467,4.496-1.641,6.793c-0.317,4.207-0.473,8.461,0.598,12.621
				c0.178,0.689,0.43,1.371,0.732,2.019c1.893,4.05,5.961,5.147,9.666,2.621c1.262-0.861,1.988-1.95,1.928-3.599
				c-0.102-2.637-0.053-5.277-0.016-7.918c0.012-0.766-0.211-1.108-1.012-1.063c-0.756,0.044-1.521-0.018-2.278,0.012
				c-0.79,0.03-0.993-0.32-0.729-1.123h11.725C542.973,149.654,542.858,150.008,541.98,150.04 M564.881,164.739h-21.883
				c-0.025-0.334-0.053-0.707-0.09-1.23h4.032v-27.94h-3.505v-1.31h21.102v10.447c-0.115,0.021-0.23,0.043-0.345,0.065
				c-0.125-0.42-0.271-0.836-0.367-1.261c-0.194-0.854-0.313-1.725-0.546-2.563c-1.059-3.824-3.131-5.38-7.128-5.393
				c-1.435-0.004-2.868-0.001-4.437-0.001v12.673c3.684,0.639,5.949-1.114,6.57-5.008c0.051-0.319,0.297-0.606,0.452-0.908
				c0.123,0.088,0.246,0.175,0.369,0.264v13.53c-0.08,0.062-0.162,0.121-0.244,0.181c-0.195-0.217-0.491-0.402-0.569-0.654
				c-0.229-0.762-0.313-1.565-0.555-2.318c-0.912-2.82-2.896-3.949-6.055-3.425v13.765c2.435-0.176,4.822-0.197,7.157-0.566
				c1.847-0.291,3.142-1.616,3.738-3.383c0.595-1.764,0.946-3.604,1.447-5.4c0.076-0.28,0.364-0.5,0.558-0.747
				c0.098,0.063,0.197,0.13,0.295,0.194v10.988H564.881z M616.451,164.754h-21.858v-1.234h3.922v-27.896
				c-1.848,0-3.682-0.143-5.483,0.043c-1.501,0.156-2.184,1.224-2.186,2.814c-0.006,8.318-0.002,16.635-0.002,24.952v1.288
				c-0.113,0.052-0.228,0.104-0.341,0.156c-2.811-4.016-5.621-8.028-8.428-12.045c-2.778-3.974-5.553-7.949-8.329-11.926
				c-0.117,0.039-0.235,0.079-0.354,0.119c-0.021,0.407-0.063,0.816-0.063,1.225c-0.008,5.719,0.084,11.438-0.053,17.153
				c-0.067,2.787,1.007,3.673,3.561,4.353c0.479,0.127,1.46-0.157,1.212,1.021H567.53c-0.07-0.081-0.143-0.163-0.211-0.245
				c0.234-0.209,0.437-0.498,0.713-0.611c0.915-0.377,1.896-0.604,2.771-1.051c0.953-0.484,1.391-1.375,1.389-2.475
				c-0.008-7.357,0.004-14.716-0.01-22.072c-0.004-1.732-0.912-2.673-2.627-2.762c-0.831-0.043-1.667-0.008-2.559-0.008
				c-0.031-0.516-0.053-0.86-0.082-1.348c2.533,0,5.004-0.033,7.47,0.041c0.345,0.012,0.749,0.516,0.997,0.879
				c4.398,6.43,8.773,12.873,13.162,19.311c0.25,0.367,0.561,0.689,0.842,1.034l0.328-0.114v-1.246c0-5.078,0.002-10.156,0-15.234
				c0-2.328-0.852-3.203-3.227-3.338c-0.476-0.025-0.947-0.066-1.49-0.106c-0.027-0.384-0.053-0.728-0.082-1.152h31.25v10.408
				c-0.104,0.03-0.207,0.06-0.313,0.087c-0.146-0.393-0.332-0.775-0.438-1.178c-0.316-1.188-0.54-2.402-0.909-3.572
				c-0.756-2.41-2.313-4.023-4.912-4.277c-2.092-0.205-4.201-0.224-6.396-0.328v12.729c2.952,0.871,5.354-0.515,6.328-3.642
				c0.143-0.454,0.191-0.94,0.353-1.387c0.096-0.271,0.322-0.494,0.49-0.738c0.124,0.285,0.347,0.568,0.353,0.854
				c0.035,1.601,0.018,3.199,0.018,4.8v8.026c-0.094,0.071-0.188,0.142-0.281,0.212c-0.206-0.232-0.507-0.434-0.597-0.706
				c-0.317-0.979-0.478-2.019-0.858-2.97c-0.971-2.426-2.853-2.945-5.25-2.809c-0.229,0.014-0.612,0.504-0.614,0.776
				c-0.039,4.078-0.039,8.157,0.002,12.236c0.004,0.247,0.438,0.704,0.665,0.698c1.991-0.035,3.988-0.067,5.964-0.274
				c2.024-0.212,3.526-1.377,4.243-3.259c0.617-1.62,0.931-3.354,1.407-5.028c0.149-0.521-0.072-1.383,1.031-1.262v11.077H616.451z
				 M686.295,164.774H658.84v-1.266h3.43c-0.225-0.627-0.379-1.1-0.559-1.561c-0.783-2.003-1.534-4.02-2.395-5.99
				c-0.174-0.392-0.762-0.842-1.168-0.853c-2.876-0.073-5.76-0.067-8.637-0.005c-0.383,0.008-0.966,0.404-1.097,0.754
				c-0.558,1.484-1.041,3.005-1.432,4.542c-0.485,1.924,0.313,2.935,2.315,3.085c0.232,0.018,0.465,0.029,0.755,0.046v1.06
				c-3.229,0-6.421,0.147-9.591-0.051c-2.132-0.135-3.544-1.882-3.692-4.074c-0.144-2.068-0.171-4.146-0.247-6.221
				c-0.104-2.738-1.668-4.271-4.395-4.285c-1.559-0.006-3.119,0.012-4.678,0.021c-0.074,0-0.146,0.044-0.309,0.096v13.363h3.699
				v1.332h-12.258v-1.271h3.865c0.031-0.513,0.078-0.936,0.078-1.356c0.004-8.438-0.016-16.877,0.023-25.315
				c0.006-1.043-0.266-1.457-1.342-1.346c-0.826,0.085-1.67,0.018-2.615,0.018c-0.021-0.449-0.041-0.815-0.066-1.297h2.48
				c4.237,0,8.479-0.041,12.719,0.026c1.258,0.021,2.545,0.226,3.76,0.56c5.583,1.529,6.012,7.797,3.303,11.075
				c-0.979,1.185-2.481,1.938-3.771,2.856c-0.341,0.242-0.765,0.363-1.415,0.664c0.688,0.201,1.088,0.322,1.487,0.437
				c2.429,0.694,3.687,2.052,3.88,4.576c0.195,2.543,0.156,5.104,0.283,7.653c0.023,0.449,0.252,1.135,0.568,1.265
				c0.431,0.179,1.265,0.125,1.53-0.176c0.716-0.813,1.429-1.74,1.783-2.749c3.024-8.596,5.962-17.223,8.96-25.826
				c0.156-0.449,0.553-0.962,0.97-1.137c0.628-0.268,1.042,0.128,1.296,0.81c2.301,6.195,4.637,12.378,6.967,18.563
				c1.18,3.131,2.412,6.242,3.527,9.396c0.347,0.981,0.803,1.452,1.867,1.306c0.576-0.08,1.175-0.016,1.826-0.016v-27.949h-3.723
				c-0.027-0.5-0.045-0.847-0.068-1.265h12.571c0.018,0.356,0.033,0.696,0.057,1.188h-3.801v28.25
				c1.839-0.283,3.625-0.398,5.313-0.865c1.781-0.495,2.777-1.993,3.327-3.678c0.454-1.391,0.657-2.859,1.042-4.274
				c0.135-0.492-0.125-1.454,1.021-1.173v11.057H686.295z M701.244,163.456v1.314H689.15c-0.027-0.372-0.056-0.747-0.097-1.296
				h3.809v-27.948h-3.716c-0.021-0.48-0.04-0.847-0.062-1.271h12.093c0.345,0.869,0.134,1.285-0.845,1.248
				c-0.914-0.032-1.83-0.008-2.836-0.008v27.959h3.747V163.456z M701.645,124.45H518.01c-0.021-0.436-0.057-0.824-0.057-1.213
				c-0.004-15.078,0.008-30.156-0.031-45.236c-0.002-0.993,0.299-1.395,1.224-1.614c2.554-0.607,5.089-1.288,7.629-1.946
				c0.34-0.088,0.671-0.211,0.921-0.291c-0.479-1.622-1.126-3.038-1.285-4.506c-0.393-3.601,1.895-6.482,5.554-7.169
				c1.271-0.238,2.313-0.618,3.292-1.579c1.694-1.659,3.928-1.604,6.096-1.189c2.447,0.468,4.521,1.745,6.439,3.286
				c0.275,0.221,0.549,0.44,0.968,0.776c1.362-2.186,2.681-4.299,4.034-6.471c-0.268-0.285-0.481-0.566-0.75-0.786
				c-1.136-0.94-1.871-2.12-1.326-3.564c0.53-1.405,1.887-1.847,3.292-2.032c1.811-0.239,3.647-0.382,5.433-0.76
				c0.852-0.181,1.71-0.695,2.371-1.278c0.441-0.388,0.714-1.155,0.753-1.771c0.075-1.155-1.009-1.817-2.03-1.263
				c-1.367,0.739-2.66,1.612-4.006,2.396c-1.619,0.943-3.355,1.309-5.163,0.688c-2.339-0.803-3.325-2.877-2.685-5.244
				c0.124-0.452,0.02-1.086-0.219-1.497c-1.05-1.814-0.92-3.391,0.266-5.123c1.596-2.329,3.02-4.776,4.58-7.127
				c2.049-3.079,3.801-6.461,6.324-9.095c5.084-5.309,11.435-5.784,18.131-3.436c5.53,1.939,9.521,5.57,11.818,11.001
				c0.078,0.182,0.164,0.363,0.262,0.536c0.057,0.101,0.146,0.185,0.354,0.442c0.201-0.413,0.377-0.732,0.519-1.065
				c1.993-4.698,5.357-7.769,10.459-8.721c0.854-0.16,1.749-0.138,2.624-0.138c30.158-0.007,60.314-0.006,90.47-0.006h0.962
				c-0.795,5.034-6.104,10.51-11.404,11.674c-1.579,0.346-3.23,0.41-4.854,0.518c-0.656,0.044-1.096,0.164-1.422,0.806
				c-2.454,4.829-6.373,7.861-11.742,8.383c-2.285,0.223-3.336,1.158-4.473,2.899c-2.518,3.864-6.253,5.941-10.85,6.397
				c-1.389,0.137-2.787,0.212-4.182,0.216c-8.038,0.019-16.078,0.009-24.117,0.009h-1.473v4.282c0.967,0.107,1.98,0.258,3,0.327
				c6.288,0.424,12.582,0.793,18.869,1.257c5.199,0.383,10.422,0.68,15.416,2.401c6.714,2.314,11.434,6.979,15.125,12.85
				c3.674,5.841,6.187,12.22,8.684,18.611c0.867,2.226,1.895,4.39,2.807,6.599c0.307,0.746,0.67,0.872,1.465,0.641
				c2.334-0.68,4.688-0.685,6.811,0.649c0.887,0.556,1.77,1.327,2.289,2.212c1.606,2.732,3.271,5.396,5.531,7.646
				c0.104,0.103,0.153,0.256,0.286,0.479c-2.669,0.584-5.214,1.376-7.927,0.99c-3.749-0.532-6.594-2.582-8.469-5.688
				c-2.072-3.432-3.727-7.12-5.56-10.698c-0.124-0.246-0.206-0.518-0.333-0.766c-0.068-0.134-0.188-0.242-0.432-0.551
				c-0.033,0.595-0.078,1.003-0.078,1.41c-0.004,4.72-0.045,9.439,0.02,14.158c0.031,2.112-0.813,3.664-2.626,4.603
				c-1.767,0.912-3.624,1.644-5.439,2.454c-0.429,0.188-0.856,0.375-1.28,0.563c0.011,0.108,0.024,0.217,0.036,0.325h32.735V124.45
				L701.645,124.45z"/>
		</g>
		<g>
			<defs>
				<rect id="SVGID_3_" width="720.239" height="181.918"/>
			</defs>
			<clipPath id="SVGID_4_">
				<use xlink:href="#SVGID_3_"  overflow="visible"/>
			</clipPath>
			<path clip-path="url(#SVGID_4_)" fill="#FFFFFF" d="M527.696,74.149c-0.479-1.622-1.126-3.038-1.285-4.506
				c-0.393-3.601,1.895-6.481,5.554-7.169c1.271-0.238,2.313-0.618,3.292-1.579c1.694-1.659,3.928-1.604,6.096-1.189
				c2.447,0.467,4.521,1.746,6.441,3.287c0.273,0.219,0.547,0.439,0.966,0.775c1.362-2.186,2.681-4.3,4.036-6.472
				c-0.27-0.284-0.483-0.565-0.75-0.786c-1.138-0.938-1.873-2.119-1.328-3.563c0.53-1.406,1.889-1.848,3.292-2.033
				c1.811-0.24,3.647-0.381,5.433-0.759c0.854-0.182,1.71-0.696,2.373-1.279c0.439-0.387,0.712-1.154,0.751-1.771
				c0.075-1.155-1.009-1.817-2.028-1.264c-1.367,0.739-2.662,1.613-4.008,2.397c-1.617,0.943-3.355,1.307-5.163,0.687
				c-2.339-0.803-3.325-2.877-2.685-5.243c0.124-0.453,0.021-1.086-0.219-1.497c-1.05-1.814-0.918-3.392,0.268-5.123
				c1.594-2.329,3.018-4.776,4.578-7.127c2.049-3.08,3.801-6.461,6.324-9.096c5.084-5.308,11.435-5.783,18.131-3.436
				c5.53,1.939,9.521,5.571,11.82,11.001c0.076,0.183,0.162,0.363,0.26,0.536c0.057,0.101,0.146,0.185,0.354,0.443
				c0.201-0.414,0.377-0.732,0.519-1.065c1.995-4.698,5.357-7.769,10.459-8.721c0.854-0.16,1.749-0.139,2.624-0.139
				c30.158-0.006,60.314-0.005,90.472-0.005h0.962c-0.797,5.034-6.106,10.509-11.406,11.673c-1.579,0.347-3.23,0.411-4.854,0.519
				c-0.656,0.043-1.096,0.164-1.422,0.806c-2.454,4.828-6.373,7.86-11.742,8.383c-2.283,0.223-3.336,1.157-4.471,2.899
				c-2.52,3.864-6.255,5.94-10.852,6.396c-1.389,0.138-2.787,0.212-4.182,0.216c-8.038,0.021-16.078,0.01-24.115,0.01h-1.475v4.282
				c0.967,0.108,1.98,0.258,3,0.326c6.288,0.425,12.582,0.793,18.869,1.257c5.199,0.384,10.422,0.681,15.418,2.402
				c6.712,2.314,11.432,6.979,15.125,12.85c3.672,5.841,6.187,12.22,8.682,18.611c0.867,2.226,1.895,4.39,2.807,6.599
				c0.307,0.744,0.672,0.871,1.465,0.643c2.334-0.682,4.688-0.687,6.811,0.647c0.887,0.556,1.77,1.325,2.289,2.212
				c1.606,2.732,3.271,5.396,5.531,7.646c0.104,0.103,0.153,0.256,0.286,0.479c-2.669,0.584-5.214,1.376-7.927,0.99
				c-3.749-0.532-6.592-2.584-8.469-5.688c-2.072-3.433-3.725-7.118-5.558-10.698c-0.126-0.246-0.208-0.518-0.335-0.766
				c-0.068-0.134-0.188-0.243-0.432-0.551c-0.033,0.595-0.078,1.003-0.078,1.41c-0.004,4.72-0.045,9.441,0.02,14.158
				c0.031,2.112-0.813,3.664-2.626,4.603c-1.767,0.912-3.624,1.646-5.439,2.453c-0.429,0.19-0.856,0.376-1.28,0.565
				c0.011,0.106,0.024,0.215,0.036,0.323h32.735v9.341H518.01c-0.021-0.437-0.057-0.824-0.057-1.214
				c-0.004-15.077,0.008-30.157-0.031-45.236c-0.002-0.994,0.299-1.395,1.224-1.615c2.554-0.606,5.089-1.287,7.629-1.945
				C527.115,74.352,527.446,74.229,527.696,74.149 M659.766,23h-1.689c-17.998,0-35.996,0.06-53.994-0.035
				c-5.719-0.031-9.303,3.849-10.41,7.887c-1.715,6.258-3.531,12.489-5.256,18.744c-0.084,0.303,0.201,0.873,0.488,1.086
				c1.798,1.33,3.119,2.967,3.619,5.187c1.049,4.645-0.725,9.011-4.771,11.756c-0.557,0.375-1.131,0.719-1.679,1.065
				c0.054,0.16,0.065,0.242,0.103,0.31c2.879,5.079-0.249,10.819-5.175,11.902c-0.265,0.058-0.647,0.169-0.726,0.357
				c-0.666,1.638-1.736,3.277-1.816,4.956c-0.243,5.029-0.08,10.075-0.094,15.116c-0.006,2.28-1.283,3.846-3.539,4.295
				c-0.735,0.146-1.506,0.127-2.262,0.174c-2.797,0.172-4.361,1.775-4.289,4.545c0.027,1.104,0.228,2.222,0.519,3.285
				c0.113,0.412,0.671,0.951,1.073,0.994c2.621,0.285,4.979-0.271,6.799-2.396c0.332-0.39,0.953-0.673,1.472-0.731
				c1.583-0.18,3.192-0.141,4.77-0.346c2.085-0.271,2.591-0.966,2.708-3.096c0.041-0.742,0.158-1.51,0.415-2.202
				c0.329-0.896,0.937-3.726,0.804-4.681c-0.65-4.631,0.066-9.135,1.155-13.623c0.215-0.879,0.542-1.127,1.442-1.071
				c4.535,0.278,9.014-0.163,13.389-1.398c4.906-1.386,9.754-3.016,14.705-4.219c2.836-0.689,5.832-1.043,8.748-1.003
				c3.57,0.049,6.8,1.551,9.762,3.562c3.002,2.039,6.308,3.376,9.83,4.251c5.32,1.323,10.74,1.938,16.188,2.354
				c3.296,0.252,5.439,2.12,5.854,5.395c0.34,2.69,0.58,5.394,0.918,8.084c0.097,0.775-0.297,0.957-0.904,1.088
				c-2.956,0.64-5.912,1.291-8.865,1.947c-1.786,0.396-2.83,1.494-2.645,3.276c0.145,1.384,0.726,2.729,1.186,4.067
				c0.281,0.82,0.832,0.967,1.693,0.631c3.783-1.479,7.605-2.869,11.396-4.336c1.074-0.416,2.15-0.895,3.107-1.524
				c0.437-0.288,0.832-1.013,0.834-1.541c0.039-8.036,0.012-16.076-0.01-24.115c-0.002-0.433-0.008-0.911-0.185-1.288
				c-0.819-1.773-1.679-3.53-2.583-5.264c-0.15-0.288-0.566-0.562-0.896-0.615c-2.201-0.364-4.412-0.661-6.619-0.988
				c-6.473-0.958-11.773-3.874-15.541-9.333c-1.043-1.513-2.119-3.008-3.076-4.574c-0.458-0.75-0.977-0.971-1.826-1.004
				c-3.152-0.12-6.305-0.301-9.451-0.532c-4.617-0.339-9.233-0.716-13.846-1.133c-1.289-0.117-2.378,0.035-3.371,0.979
				c-0.496,0.469-1.242,0.708-1.913,0.953c-3.618,1.327-6.62-0.502-9.794-1.833c2.191-2.504,2.191-2.503,5.133-1.496
				c0.15,0.05,0.312,0.077,0.464,0.123c3.811,1.128,7.002-1.819,6.179-5.703c-0.133-0.621-0.404-0.971-1.129-0.942
				c-1.357,0.052-2.719,0.015-4.078,0.014h-7.66c0.448-0.993,0.859-1.809,1.182-2.658c0.271-0.705,0.694-0.927,1.443-0.918
				c3.439,0.039,6.881,0.06,10.318-0.003c1.471-0.028,2.961-0.156,4.396-0.452c3.018-0.623,5.352-2.29,7.129-5.111h-19.641
				c0.451-1,0.868-1.806,1.178-2.651c0.301-0.825,0.769-1.103,1.68-1.098c7.357,0.041,14.719,0.079,22.076-0.011
				c3.759-0.046,6.875-1.596,9.136-4.685c0.187-0.258,0.304-0.57,0.587-1.119h-30.334c0.436-0.938,0.838-1.632,1.084-2.377
				c0.313-0.952,0.893-1.18,1.859-1.177c10.76,0.036,21.521,0.03,32.277,0.012c1.152-0.002,2.32-0.065,3.454-0.258
				C655.291,27.334,657.75,25.845,659.766,23 M577.974,66.898c1.371-0.251,2.413-0.457,3.464-0.633
				c2.711-0.454,4.994-1.612,6.585-3.936c1.72-2.512,2.085-6.929-1.892-9.105c-0.826-0.452-1.62-0.966-2.342-1.398
				c0.848-2.603,1.791-5.028,2.414-7.535c0.676-2.732,1.498-5.545,1.465-8.314c-0.049-4.528-1.924-8.513-5.229-11.722
				c-0.299-0.289-0.668-0.503-1.139-0.851c-0.265,3.929-1.795,7.012-4.664,9.437c-0.271,0.232-0.379,0.848-0.32,1.252
				c0.225,1.601,0.541,3.189,0.838,4.852c-1.043,0.051-1.965,0.04-2.868,0.153c-1.477,0.185-2.069,1.071-1.796,2.497
				c0.271,1.408,0.56,2.815,0.771,4.233c0.521,3.489-0.162,6.64-2.935,9.032c-3.758,3.24-8.197,4.308-13.055,3.749
				c-0.721-0.083-1.098,0.067-1.458,0.662c-1.114,1.847-2.187,3.729-3.449,5.473c-0.927,1.276-1.15,2.344-0.008,3.559
				c0.347,0.37,0.603,0.854,0.804,1.325c0.123,0.286,0.201,0.738,0.059,0.967c-0.555,0.906-1.207,1.754-1.915,2.752
				c-1.003-1.545-1.856-2.978-2.825-4.328c-1.982-2.756-4.433-4.93-7.814-5.811c-2.182-0.568-3.342,0.072-4.06,2.149
				c-0.098,0.285-0.249,0.554-0.372,0.824c-1.877-0.436-3.639-0.598-5.24,0.593c-0.795,0.593-1.334,1.354-1.061,2.357
				c0.287,1.064,0.717,2.097,1.15,3.115c0.316,0.745,0.907,0.87,1.688,0.645c1.912-0.55,3.841-1.047,5.773-1.522
				c0.478-0.12,1.033-0.214,1.496-0.096c6.791,1.731,13.566,3.514,20.357,5.242c0.679,0.173,0.93,0.441,0.895,1.126
				c-0.05,0.906-0.014,1.816-0.014,2.856c0.598-0.129,1.016-0.215,1.434-0.313c2.764-0.646,4.395-2.876,6.576-4.979v10.961
				c0.23,0,0.625,0.055,1-0.008c2.612-0.44,4.621-1.752,5.713-4.224c0.623-1.409,1.107-2.878,1.676-4.376
				c0.403,0,0.801,0.005,1.197-0.001c2.188-0.032,3.987-1.285,4.588-3.189c0.623-1.979-0.103-3.811-2.047-5.147
				C580.364,68.499,579.302,67.793,577.974,66.898 M557.542,79.504c-5.92-1.543-11.741-3.066-17.566-4.56
				c-0.354-0.091-0.781,0.013-1.154,0.107c-5.404,1.378-10.803,2.789-16.211,4.141c-0.918,0.229-1.146,0.659-1.145,1.569
				c0.035,9.917,0.021,19.833,0.021,29.75v1.275c0.541-0.109,0.934-0.166,1.313-0.267c5.244-1.36,10.482-2.744,15.732-4.08
				c0.594-0.149,1.283-0.196,1.867-0.054c3.479,0.861,6.94,1.799,10.409,2.699c2.214,0.576,4.431,1.135,6.731,1.723V79.504H557.542z
				 M605.311,115.125c0-1.449-0.099-2.731,0.02-3.994c0.485-5.373,5.305-8.117,9.445-7.584c1.895,0.242,3.754,0.726,5.641,1.043
				c0.387,0.066,0.969,0.027,1.204-0.215c1.414-1.463,2.776-2.98,4.106-4.523c0.633-0.73,0.701-1.6,0.188-2.45
				c-2.484-4.101-4.984-8.192-7.457-12.299c-0.351-0.582-0.707-0.704-1.371-0.489c-1.589,0.515-3.234,0.863-4.82,1.391
				c-6.68,2.221-13.398,4.206-20.533,4.228c-0.275,0.001-0.755,0.467-0.8,0.766c-0.735,4.93-1.858,9.916,1.618,14.453
				c-0.545,0.26-0.994,0.508-1.466,0.692c-1.31,0.51-2.005,1.245-1.985,2.853c0.035,2.678-1.572,4.578-4.127,5.407
				c-0.532,0.175-1.074,0.327-1.614,0.49c0.021,0.077,0.043,0.155,0.064,0.231H605.311L605.311,115.125z M638.417,89.072
				c0.218,0.564,0.353,0.966,0.528,1.348c0.686,1.487,1.402,2.956,2.072,4.448c1.693,3.764,1.239,6.291-1.596,9.26
				c-3.145,3.297-6.274,6.604-9.409,9.914c-0.253,0.268-0.448,0.588-0.806,1.061h24.754c-0.359-1.084-0.775-2.039-0.988-3.037
				c-1.023-4.781,1.377-8.423,5.566-9.102c1.803-0.293,3.57-0.805,5.364-1.17c0.71-0.145,1.037-0.441,0.943-1.203
				c-0.202-1.661-0.302-3.338-0.55-4.991c-0.154-1.017-0.738-1.747-1.883-1.862c-1.982-0.197-3.963-0.42-5.943-0.637
				c-5.836-0.639-11.613-1.536-17.096-3.771C639.131,89.227,638.862,89.188,638.417,89.072 M621.848,83.572
				c0.307,0.6,0.445,0.925,0.623,1.222c2.049,3.384,4.088,6.771,6.156,10.142c1.811,2.949,1.635,5.354-0.685,7.962
				c-1.384,1.554-2.891,3-4.202,4.608c-0.79,0.972-1.672,1.086-2.746,0.875c-1.486-0.293-2.966-0.608-4.457-0.863
				c-1.058-0.182-2.148-0.482-3.188-0.374c-3.411,0.364-5.129,3.187-4.371,6.88c0.148,0.732,0.281,1.214,1.235,1.202
				c4.317-0.052,8.638-0.009,12.957-0.044c0.425-0.004,0.968-0.197,1.255-0.497c4.314-4.505,8.604-9.032,12.875-13.578
				c1.14-1.212,1.459-2.594,0.688-4.181c-1.417-2.905-2.964-5.766-4.104-8.78c-0.974-2.577-2.789-3.725-5.256-4.263
				c-0.425-0.094-0.85-0.289-1.275-0.298C625.594,83.55,623.833,83.572,621.848,83.572 M554.109,42.177
				c-0.485,0.655-0.987,1.23-1.36,1.878c-0.244,0.424-0.303,0.955-0.442,1.439c0.563,0.025,1.183,0.212,1.674,0.038
				c0.735-0.262,1.384-0.779,2.068-1.184c1.032-0.608,2.036-1.269,3.103-1.805c1.691-0.851,3.368-0.732,4.784,0.565
				c1.493,1.368,2.271,3.081,1.782,5.156c-0.586,2.503-2.393,3.917-4.714,4.426c-2.033,0.445-4.183,0.366-6.274,0.57
				c-0.367,0.036-0.71,0.323-1.064,0.494c0.278,0.331,0.503,0.867,0.844,0.961c4.873,1.338,9.411,0.729,13.366-2.597
				c1.7-1.431,2.226-3.352,1.843-5.521c-0.262-1.49-0.571-2.971-0.812-4.464c-0.35-2.154-0.072-4.336,1.981-5.343
				c1.978-0.967,2.081-2.186,1.553-3.904c-0.047-0.151-0.008-0.334-0.07-0.472c-0.379-0.811,0.016-1.207,0.704-1.585
				c2.171-1.188,3.646-2.992,4.255-5.387c0.25-0.978,0.16-2.042,0.248-3.401c-3.027,1.861-5.695,3.454-8.311,5.131
				c-0.986,0.634-1.904,0.985-3.119,0.712c-0.916-0.205-1.915-0.135-2.867-0.05c-1.918,0.171-3.799,0.532-5.402,1.712
				c-0.875,0.644-1.379,2.068-1.049,2.992c0.365,1.024,1.258,1.032,2.159,1.138c0.864,0.102,2.213,0.17,2.448,0.674
				c0.51,1.09-0.756,1.747-1.404,2.515c-0.074,0.089-0.176,0.164-0.273,0.229c-0.892,0.594-1.92,0.274-2.146-0.765
				c-0.189-0.859-0.656-1.525-1.449-1.485c-0.652,0.034-1.42,0.465-1.881,0.959c-0.92,0.987-1.627,2.171-2.498,3.211
				c-0.593,0.708-0.446,1.208,0.221,1.686C552.674,41.188,553.36,41.656,554.109,42.177 M565.229,115.002
				c-0.203-1.301-0.479-2.586-0.592-3.883c-0.322-3.805,1.353-7.105,5.146-8.336c1.162-0.375,2.412-0.58,3.635-0.637
				c1.102-0.051,1.441-0.432,1.426-1.51c-0.051-3.676-0.018-7.352-0.023-11.026c0-0.331-0.064-0.663-0.102-1.014
				c-4.547,1.292-7.924,1.691-9.912,1.188c0.338-2.218,0.674-4.436,1.033-6.797c-1.293,0.373-2.305,0.763-3.352,0.938
				c-0.99,0.166-1.255,0.594-1.251,1.58c0.042,8.788,0.024,17.577,0.024,26.366c0,3.707,0,3.707,3.729,3.271
				C565.028,115.14,565.059,115.105,565.229,115.002 M644.34,37.46c0.111,0.013,0.268,0.046,0.424,0.046
				c6.555-0.008,13.111,0.033,19.664-0.057c2.443-0.035,4.724-0.869,6.609-2.465c1.021-0.866,1.854-1.956,2.897-3.081
				c-0.487-0.139-0.599-0.198-0.708-0.198c-8.112-0.008-16.229-0.017-24.344,0c-0.304,0.001-0.732,0.169-0.898,0.404
				C646.754,33.854,645.575,35.634,644.34,37.46 M658.676,41.308c-0.348-0.06-0.533-0.118-0.715-0.119
				c-8.033-0.005-16.065-0.017-24.098,0.027c-0.393,0.003-0.874,0.419-1.153,0.77c-1.069,1.335-2.075,2.721-3.097,4.093
				c-0.125,0.168-0.217,0.362-0.385,0.648c0.369,0.035,0.6,0.075,0.825,0.075c6.036,0,12.07,0.064,18.104-0.052
				c1.723-0.032,3.49-0.416,5.139-0.949C655.586,45.059,657.316,43.487,658.676,41.308 M660.553,28.056
				c0.213,0.024,0.367,0.059,0.523,0.059c6.27,0,12.543,0.11,18.809-0.074c1.924-0.057,3.889-0.759,5.719-1.467
				c1.585-0.613,2.787-1.876,3.815-3.461c-0.312-0.054-0.454-0.101-0.597-0.101c-8.027-0.005-16.055-0.01-24.081,0.004
				c-0.284,0.001-0.688,0.105-0.838,0.308C662.782,24.85,661.708,26.413,660.553,28.056 M668.676,71.677
				c-1.932-5.278-12.254-11.351-18.682-10.993C652.782,67.095,662.292,72.691,668.676,71.677 M524.713,114.808
				c0.021,0.08,0.043,0.161,0.064,0.241h29.666c-0.17-0.233-0.364-0.326-0.571-0.381c-2.703-0.713-5.474-1.229-8.092-2.172
				c-4.198-1.511-8.253-1.488-12.454,0.002C530.534,113.491,527.59,114.053,524.713,114.808 M573.734,20.124
				c-4.875-1.505-10.823,1.375-12.218,4.17c2.936-0.102,5.898,0.465,8.404-1.733C570.974,21.637,572.297,21.023,573.734,20.124
				 M694.232,105.683c-0.88-1.466-1.546-2.787-2.415-3.958c-0.967-1.303-3.234-1.582-4.688-0.693
				C688.825,103.452,690.784,105.42,694.232,105.683"/>
		</g>
		<g>
			<defs>
				<rect id="SVGID_5_" width="720.239" height="181.918"/>
			</defs>
			<clipPath id="SVGID_6_">
				<use xlink:href="#SVGID_5_"  overflow="visible"/>
			</clipPath>
			<path clip-path="url(#SVGID_6_)" fill="#FFFFFF" d="M670.555,163.485v-27.949h-3.723c-0.027-0.5-0.045-0.847-0.07-1.266h12.573
				c0.018,0.355,0.033,0.695,0.055,1.188h-3.799v28.25c1.839-0.283,3.623-0.397,5.312-0.865c1.781-0.494,2.777-1.992,3.327-3.678
				c0.454-1.389,0.657-2.858,1.044-4.273c0.133-0.491-0.127-1.454,1.021-1.174v11.058H658.84v-1.267h3.43
				c-0.225-0.627-0.379-1.1-0.559-1.561c-0.783-2.002-1.534-4.021-2.395-5.99c-0.174-0.391-0.762-0.842-1.168-0.852
				c-2.876-0.074-5.76-0.068-8.637-0.006c-0.383,0.009-0.966,0.402-1.097,0.755c-0.558,1.483-1.041,3.005-1.432,4.542
				c-0.485,1.924,0.313,2.934,2.315,3.085c0.232,0.017,0.465,0.026,0.755,0.046v1.059c-3.229,0-6.421,0.148-9.591-0.051
				c-2.132-0.134-3.544-1.881-3.692-4.074c-0.144-2.068-0.171-4.146-0.247-6.221c-0.104-2.738-1.668-4.271-4.395-4.285
				c-1.559-0.006-3.119,0.012-4.678,0.021c-0.074,0-0.146,0.045-0.309,0.096v13.363h3.699v1.332h-12.258v-1.271h3.867
				c0.029-0.512,0.076-0.935,0.076-1.356c0.006-8.438-0.016-16.877,0.023-25.315c0.004-1.043-0.266-1.457-1.342-1.345
				c-0.826,0.085-1.67,0.017-2.615,0.017c-0.021-0.451-0.041-0.815-0.066-1.297h2.48c4.237,0,8.48-0.041,12.717,0.026
				c1.26,0.021,2.547,0.226,3.762,0.56c5.583,1.53,6.012,7.797,3.303,11.076c-0.979,1.184-2.481,1.938-3.772,2.855
				c-0.339,0.242-0.763,0.363-1.413,0.664c0.688,0.201,1.088,0.322,1.487,0.438c2.427,0.693,3.687,2.051,3.88,4.575
				c0.195,2.544,0.156,5.104,0.283,7.653c0.023,0.449,0.252,1.135,0.568,1.266c0.431,0.178,1.265,0.125,1.53-0.178
				c0.716-0.813,1.429-1.738,1.783-2.748c3.024-8.596,5.962-17.223,8.96-25.826c0.156-0.447,0.553-0.962,0.97-1.139
				c0.628-0.266,1.042,0.129,1.296,0.813c2.301,6.194,4.637,12.379,6.967,18.563c1.18,3.131,2.412,6.244,3.527,9.396
				c0.347,0.979,0.803,1.452,1.865,1.305C669.303,163.418,669.904,163.485,670.555,163.485 M627.127,148.565
				c1.971,0,3.811,0.109,5.632-0.031c2.044-0.158,3.483-1.349,4.178-3.271c0.813-2.238,0.814-4.533,0.049-6.795
				c-0.472-1.398-1.382-2.647-2.849-2.791c-2.312-0.227-4.664-0.061-7.01-0.061V148.565L627.127,148.565z M658.688,153.801
				c-1.587-4.438-3.133-8.77-4.678-13.1l-0.32,0.033c-1.44,4.314-2.883,8.633-4.359,13.066H658.688L658.688,153.801z"/>
		</g>
		<g>
			<defs>
				<rect id="SVGID_7_" width="720.239" height="181.918"/>
			</defs>
			<clipPath id="SVGID_8_">
				<use xlink:href="#SVGID_7_"  overflow="visible"/>
			</clipPath>
			<path clip-path="url(#SVGID_8_)" fill="#FFFFFF" d="M25.153,77.938v13.818h-8.228V53.4c0.402-0.02,0.79-0.056,1.178-0.057
				c5.116-0.003,10.233-0.088,15.347,0.04c2.086,0.053,4.236,0.315,6.226,0.915c6.243,1.878,8.365,7.781,7.699,12.787
				c-0.83,6.23-3.794,9.268-9.898,10.492c-1.781,0.358-3.652,0.303-5.483,0.347C29.765,77.979,27.533,77.938,25.153,77.938
				 M25.131,71.669c3.395-0.139,6.632-0.096,9.824-0.455c2.844-0.32,4.407-2.296,4.449-4.927c0.06-3.765-1.051-5.679-4.251-6.138
				c-3.248-0.463-6.571-0.391-9.892-0.553c-0.071,0.471-0.125,0.66-0.125,0.849C25.13,64.079,25.131,67.71,25.131,71.669"/>
		</g>
		<g>
			<defs>
				<rect id="SVGID_9_" width="720.239" height="181.918"/>
			</defs>
			<clipPath id="SVGID_10_">
				<use xlink:href="#SVGID_9_"  overflow="visible"/>
			</clipPath>
			<path clip-path="url(#SVGID_10_)" fill="#FFFFFF" d="M132.587,91.797h-7.006v-3.284c-0.191-0.138-0.381-0.273-0.571-0.412
				c-0.129,0.331-0.188,0.716-0.398,0.983c-2.242,2.848-5.364,3.801-8.743,3.363c-6.917-0.899-10.959-5.633-11.475-12.666
				c-0.276-3.762,0.181-7.304,1.98-10.63c3.107-5.741,10.266-7.425,15.376-4.589c1.161,0.645,2.121,1.648,3.254,2.552V53.433h7.583
				V91.797z M125.702,77.851c-0.489-1.906-0.7-3.941-1.521-5.691c-2.011-4.282-8.306-4.54-10.888-0.579
				c-2.212,3.394-2.04,9.586,0.356,12.851c2.75,3.747,8.692,3.294,10.595-0.933C125.008,81.8,125.208,79.848,125.702,77.851"/>
		</g>
		<g>
			<defs>
				<rect id="SVGID_11_" width="720.239" height="181.918"/>
			</defs>
			<clipPath id="SVGID_12_">
				<use xlink:href="#SVGID_11_"  overflow="visible"/>
			</clipPath>
			<path clip-path="url(#SVGID_12_)" fill="#FFFFFF" d="M590.502,164.877c-2.811-4.016-5.621-8.027-8.43-12.045
				c-2.776-3.974-5.551-7.951-8.327-11.926c-0.117,0.039-0.237,0.079-0.354,0.119c-0.023,0.408-0.063,0.814-0.064,1.225
				c-0.006,5.717,0.086,11.438-0.051,17.153c-0.067,2.787,1.007,3.673,3.561,4.351c0.479,0.127,1.46-0.154,1.212,1.022H567.53
				c-0.07-0.081-0.143-0.163-0.211-0.245c0.234-0.209,0.437-0.498,0.713-0.611c0.915-0.377,1.896-0.604,2.771-1.051
				c0.953-0.486,1.391-1.375,1.389-2.474c-0.006-7.358,0.004-14.716-0.01-22.074c-0.004-1.733-0.91-2.672-2.627-2.76
				c-0.829-0.043-1.665-0.009-2.559-0.009c-0.031-0.516-0.053-0.86-0.082-1.348c2.533,0,5.004-0.035,7.47,0.041
				c0.345,0.01,0.749,0.517,0.997,0.879c4.398,6.431,8.773,12.873,13.162,19.312c0.25,0.364,0.561,0.688,0.842,1.034l0.328-0.115
				v-1.246c0-5.078,0.002-10.156,0-15.234c0-2.33-0.852-3.205-3.227-3.338c-0.474-0.027-0.949-0.065-1.492-0.105
				c-0.025-0.387-0.051-0.729-0.08-1.153h31.25v10.409c-0.104,0.027-0.207,0.059-0.313,0.086c-0.148-0.393-0.332-0.775-0.44-1.18
				c-0.314-1.188-0.54-2.4-0.907-3.57c-0.758-2.411-2.313-4.023-4.912-4.277c-2.092-0.205-4.199-0.223-6.396-0.328v12.729
				c2.952,0.871,5.354-0.517,6.326-3.644c0.143-0.455,0.193-0.938,0.354-1.387c0.098-0.269,0.322-0.492,0.49-0.738
				c0.124,0.285,0.347,0.568,0.353,0.855c0.035,1.6,0.018,3.2,0.018,4.799v8.028c-0.094,0.069-0.188,0.142-0.283,0.211
				c-0.204-0.233-0.505-0.435-0.595-0.706c-0.317-0.979-0.478-2.02-0.858-2.969c-0.971-2.428-2.853-2.946-5.25-2.811
				c-0.229,0.014-0.61,0.506-0.612,0.777c-0.041,4.079-0.041,8.158,0.002,12.234c0.002,0.248,0.437,0.705,0.663,0.701
				c1.991-0.037,3.988-0.067,5.964-0.274c2.024-0.212,3.526-1.377,4.243-3.261c0.617-1.618,0.929-3.354,1.407-5.027
				c0.149-0.521-0.072-1.382,1.031-1.264v11.078H594.59v-1.233h3.924v-27.897c-1.848,0-3.684-0.142-5.483,0.043
				c-1.503,0.155-2.186,1.225-2.186,2.815c-0.006,8.315-0.004,16.634-0.004,24.952v1.285
				C590.73,164.774,590.616,164.825,590.502,164.877"/>
		</g>
		<g>
			<defs>
				<rect id="SVGID_13_" width="720.239" height="181.918"/>
			</defs>
			<clipPath id="SVGID_14_">
				<use xlink:href="#SVGID_13_"  overflow="visible"/>
			</clipPath>
			<path clip-path="url(#SVGID_14_)" fill="#FFFFFF" d="M239.35,79.61c-0.484,4.105,2.257,7.237,6.191,7.318
				c2.772,0.059,5.103-0.727,6.653-3.204c0.129-0.207,0.485-0.381,0.739-0.385c1.915-0.032,3.829-0.017,5.884-0.017
				c-1.075,3.298-2.768,6.063-5.835,7.534c-5.471,2.627-10.906,2.404-15.963-1.131c-2.933-2.05-4.403-5.099-5.002-8.559
				c-0.794-4.592-0.145-8.936,2.783-12.683c3.153-4.036,7.419-5.519,12.469-5.159c6.925,0.489,11.13,5.979,11.896,12.041
				c0.174,1.368,0.214,2.751,0.326,4.243h-20.14V79.61z M251.871,74.888c-0.405-2.406-1.083-4.515-3.335-5.483
				c-2.457-1.058-4.951-0.891-7.11,0.808c-1.454,1.144-2.184,2.735-2.146,4.676L251.871,74.888L251.871,74.888z"/>
		</g>
		<g>
			<defs>
				<rect id="SVGID_15_" width="720.239" height="181.918"/>
			</defs>
			<clipPath id="SVGID_16_">
				<use xlink:href="#SVGID_15_"  overflow="visible"/>
			</clipPath>
			<path clip-path="url(#SVGID_16_)" fill="#FFFFFF" d="M145.026,79.612c-0.468,4.121,2.264,7.237,6.201,7.317
				c2.771,0.056,5.106-0.729,6.646-3.211c0.116-0.188,0.41-0.375,0.625-0.379c1.953-0.027,3.906-0.017,6.008-0.017
				c-1.255,3.717-3.283,6.637-6.919,8.063c-4.576,1.797-9.152,1.641-13.501-0.731c-3.729-2.034-5.672-5.401-6.389-9.492
				c-0.803-4.591-0.143-8.934,2.786-12.682c3.153-4.037,7.421-5.515,12.47-5.156c6.906,0.491,11.124,5.964,11.893,12.046
				c0.172,1.367,0.213,2.751,0.323,4.241L145.026,79.612L145.026,79.612z M145.023,74.877h12.357
				c0.237-3.563-2.509-6.105-6.443-6.037C147.508,68.9,144.717,71.711,145.023,74.877"/>
		</g>
		<g>
			<defs>
				<rect id="SVGID_17_" width="720.239" height="181.918"/>
			</defs>
			<clipPath id="SVGID_18_">
				<use xlink:href="#SVGID_17_"  overflow="visible"/>
			</clipPath>
			<path clip-path="url(#SVGID_18_)" fill="#FFFFFF" d="M169.815,63.945h7.034v3.723c0.1,0.031,0.2,0.063,0.299,0.096
				c0.222-0.241,0.451-0.476,0.66-0.728c2.413-2.902,5.536-4.041,9.244-3.712c0.633,0.058,1.273,0.097,1.896,0.215
				c4.959,0.948,6.618,4.295,6.784,8.054c0.292,6.583,0.206,13.183,0.274,19.774c0.001,0.113-0.045,0.228-0.084,0.415h-7.46
				c0-0.397,0-0.815,0-1.234c-0.005-5.198-0.01-10.395-0.02-15.592c-0.001-0.438,0.015-0.888-0.066-1.314
				c-0.801-4.187-4.564-5.937-8.312-3.809c-2.216,1.259-2.684,3.499-2.724,5.775c-0.087,4.916-0.037,9.834-0.043,14.751
				c0,0.438,0,0.874,0,1.404h-7.482V63.945z"/>
		</g>
		<g>
			<defs>
				<rect id="SVGID_19_" width="720.239" height="181.918"/>
			</defs>
			<clipPath id="SVGID_20_">
				<use xlink:href="#SVGID_19_"  overflow="visible"/>
			</clipPath>
			<path clip-path="url(#SVGID_20_)" fill="#FFFFFF" d="M73.493,63.954h7.325c0,0.476,0,0.9,0.001,1.326
				c0.005,5.197,0.009,10.396,0.02,15.592c0.001,0.438-0.003,0.888,0.083,1.312c0.672,3.326,2.088,4.524,5.267,4.499
				c3.083-0.027,4.985-1.6,5.516-4.71c0.214-1.248,0.257-2.537,0.267-3.809c0.031-4.276,0.011-8.556,0.012-12.833v-1.358h7.465
				v27.822h-7.019v-4.01c-0.446,0.417-0.679,0.587-0.853,0.803c-2.431,3.022-5.612,4.196-9.417,3.84
				c-0.595-0.057-1.202-0.061-1.781-0.19c-4.24-0.959-6.687-3.489-6.83-7.898C73.331,77.597,73.493,70.841,73.493,63.954"/>
		</g>
		<g>
			<defs>
				<rect id="SVGID_21_" width="720.239" height="181.918"/>
			</defs>
			<clipPath id="SVGID_22_">
				<use xlink:href="#SVGID_21_"  overflow="visible"/>
			</clipPath>
			<path clip-path="url(#SVGID_22_)" fill="#FFFFFF" d="M221.469,81.37h7.094c-0.513,3.785-2.079,6.858-5.242,8.95
				c-5.225,3.455-13.938,2.958-18.4-1.998c-2.897-3.219-3.888-7.04-3.622-11.282c0.208-3.305,1.088-6.359,3.197-8.973
				c2.305-2.857,5.347-4.284,8.965-4.7c3.011-0.346,5.888,0.044,8.644,1.249c3.75,1.641,6.348,5.368,6.268,8.954h-7.145
				c-1.246-3.972-4.222-5.684-7.849-4.453c-2.436,0.827-3.585,2.791-4.19,5.146c-0.702,2.723-0.707,5.45,0.194,8.127
				c1.091,3.244,3.182,4.672,6.476,4.532c2.726-0.116,4.711-1.987,5.472-5.155C221.359,81.656,221.407,81.551,221.469,81.37"/>
		</g>
		<g>
			<defs>
				<rect id="SVGID_23_" width="720.239" height="181.918"/>
			</defs>
			<clipPath id="SVGID_24_">
				<use xlink:href="#SVGID_23_"  overflow="visible"/>
			</clipPath>
			<path clip-path="url(#SVGID_24_)" fill="#FFFFFF" d="M59.698,91.795h-7.474V63.951h6.98v4.757
				c1.568-1.431,2.964-2.99,4.637-4.156c1.769-1.234,3.887-1.578,6.128-1.083v6.788c-1.238,0-2.463-0.096-3.667,0.019
				c-3.484,0.329-5.681,2.339-6.318,5.81c-0.222,1.206-0.262,2.456-0.274,3.688c-0.034,3.558-0.012,7.117-0.012,10.677V91.795z"/>
		</g>
		<g>
			<defs>
				<rect id="SVGID_25_" width="720.239" height="181.918"/>
			</defs>
			<clipPath id="SVGID_26_">
				<use xlink:href="#SVGID_25_"  overflow="visible"/>
			</clipPath>
			<path clip-path="url(#SVGID_26_)" fill="#FFFFFF" d="M559.109,142.575v13.53c-0.08,0.062-0.162,0.121-0.244,0.181
				c-0.193-0.217-0.493-0.402-0.567-0.654c-0.229-0.762-0.313-1.565-0.557-2.318c-0.912-2.82-2.896-3.949-6.055-3.426v13.766
				c2.435-0.176,4.822-0.197,7.157-0.564c1.847-0.293,3.142-1.618,3.738-3.385c0.595-1.764,0.946-3.604,1.447-5.4
				c0.076-0.28,0.364-0.5,0.558-0.748c0.098,0.064,0.197,0.131,0.295,0.195v10.99h-21.883c-0.025-0.334-0.053-0.709-0.09-1.23h4.03
				v-27.941h-3.503v-1.311h21.1v10.447c-0.113,0.022-0.229,0.045-0.343,0.066c-0.125-0.42-0.271-0.836-0.367-1.261
				c-0.194-0.854-0.313-1.724-0.546-2.563c-1.059-3.822-3.131-5.379-7.128-5.392c-1.435-0.003-2.868-0.001-4.437-0.001v12.673
				c3.684,0.64,5.949-1.114,6.57-5.008c0.051-0.319,0.297-0.606,0.452-0.908C558.863,142.399,558.986,142.486,559.109,142.575"/>
		</g>
		<g>
			<defs>
				<rect id="SVGID_27_" width="720.239" height="181.918"/>
			</defs>
			<clipPath id="SVGID_28_">
				<use xlink:href="#SVGID_27_"  overflow="visible"/>
			</clipPath>
			<path clip-path="url(#SVGID_28_)" fill="#FFFFFF" d="M530.993,148.907h11.725c0.256,0.747,0.141,1.104-0.737,1.133
				c-2.501,0.086-2.499,0.113-2.499,2.653v11.917c-1.104-0.849-2.063-1.566-2.997-2.314c-0.47-0.373-0.836-0.51-1.31,0.043
				c-2.701,3.146-6.12,3.285-9.727,2.106c-3.852-1.26-6.02-4.219-7.27-7.89c-1.986-5.821-1.832-11.543,1.299-16.96
				c2.756-4.769,8.191-6.865,13.164-5.14c1.104,0.385,2.09,1.096,3.328,1.766c0.876-0.607,1.973-1.368,3.189-2.215v10.613
				l-0.243,0.158c-0.187-0.291-0.454-0.559-0.552-0.878c-0.686-2.229-1.558-4.366-3.094-6.155c-2.031-2.363-4.549-3.457-7.678-2.686
				c-1.893,0.466-3.244,1.746-3.852,3.484c-0.766,2.191-1.467,4.494-1.641,6.791c-0.315,4.209-0.471,8.461,0.598,12.621
				c0.178,0.689,0.432,1.371,0.732,2.019c1.893,4.05,5.963,5.147,9.666,2.621c1.264-0.861,1.99-1.95,1.928-3.599
				c-0.1-2.637-0.051-5.279-0.014-7.918c0.012-0.766-0.211-1.109-1.012-1.063c-0.758,0.044-1.521-0.016-2.278,0.012
				C530.93,150.059,530.729,149.709,530.993,148.907"/>
		</g>
		<g>
			<defs>
				<rect id="SVGID_29_" width="720.239" height="181.918"/>
			</defs>
			<clipPath id="SVGID_30_">
				<use xlink:href="#SVGID_29_"  overflow="visible"/>
			</clipPath>
			<path clip-path="url(#SVGID_30_)" fill="#FFFFFF" d="M689.053,163.474h3.809v-27.948h-3.716c-0.023-0.48-0.04-0.847-0.062-1.271
				h12.093c0.345,0.871,0.134,1.287-0.845,1.25c-0.914-0.034-1.83-0.008-2.838-0.008v27.959h3.749v1.314H689.15
				C689.123,164.398,689.094,164.023,689.053,163.474"/>
		</g>
		<g>
			<defs>
				<rect id="SVGID_31_" width="720.239" height="181.918"/>
			</defs>
			<clipPath id="SVGID_32_">
				<use xlink:href="#SVGID_31_"  overflow="visible"/>
			</clipPath>
			<path clip-path="url(#SVGID_32_)" fill="#FFFFFF" d="M34.31,125.186h-1.533c-0.262-1.582-0.997-5.917-0.997-5.917l-8.719,0.021
				l-3.813,5.832l-1.598,0.019c0,0,4.566-7.5,6.817-11.201c1.302-2.144,2.639-4.265,3.882-6.438c0.578-1.01,1.269-1.459,2.551-1.014
				 M31.527,118.043c-0.569-3.504-1.12-6.896-1.671-10.293c-0.131-0.008-0.262-0.017-0.392-0.022
				c-1.945,3.392-3.888,6.78-5.916,10.315H31.527z"/>
		</g>
		<g>
			<defs>
				<rect id="SVGID_33_" width="720.239" height="181.918"/>
			</defs>
			<clipPath id="SVGID_34_">
				<use xlink:href="#SVGID_33_"  overflow="visible"/>
			</clipPath>
			<path clip-path="url(#SVGID_34_)" fill="#FFFFFF" d="M100.083,117.659h9.112c0.054-0.414,0.122-0.728,0.132-1.041
				c0.077-2.641-1.355-4.127-3.96-4.121C102.727,112.5,100.554,114.579,100.083,117.659"/>
		</g>
		<g>
			<defs>
				<rect id="SVGID_35_" width="720.239" height="181.918"/>
			</defs>
			<clipPath id="SVGID_36_">
				<use xlink:href="#SVGID_35_"  overflow="visible"/>
			</clipPath>
			<path clip-path="url(#SVGID_36_)" fill="#FFFFFF" d="M150.867,117.694c0.531-2.311-0.102-4.15-1.798-4.861
				c-3.674-1.539-7.003,1.594-7.119,4.861H150.867z"/>
		</g>
		<g>
			<defs>
				<rect id="SVGID_37_" width="720.239" height="181.918"/>
			</defs>
			<clipPath id="SVGID_38_">
				<use xlink:href="#SVGID_37_"  overflow="visible"/>
			</clipPath>
			<path clip-path="url(#SVGID_38_)" fill="#CA342C" d="M659.766,22.999c-2.016,2.846-4.478,4.335-7.519,4.854
				c-1.132,0.193-2.3,0.256-3.454,0.258c-10.757,0.018-21.518,0.024-32.277-0.012c-0.967-0.003-1.546,0.225-1.857,1.177
				c-0.248,0.745-0.65,1.439-1.086,2.377h30.336c-0.287,0.549-0.4,0.861-0.589,1.119c-2.261,3.089-5.377,4.639-9.136,4.685
				c-7.355,0.09-14.719,0.052-22.076,0.011c-0.911-0.005-1.379,0.273-1.68,1.098c-0.31,0.845-0.727,1.651-1.178,2.651h19.641
				c-1.777,2.822-4.111,4.488-7.129,5.111c-1.436,0.296-2.928,0.424-4.395,0.452c-3.439,0.063-6.879,0.042-10.32,0.003
				c-0.749-0.009-1.175,0.214-1.445,0.918c-0.318,0.849-0.731,1.664-1.18,2.658h7.66c1.359,0.001,2.721,0.038,4.078-0.014
				c0.725-0.028,0.998,0.321,1.129,0.942c0.823,3.884-2.368,6.831-6.179,5.702c-0.152-0.045-0.313-0.072-0.464-0.123
				c-2.941-1.006-2.941-1.007-5.133,1.496c3.172,1.332,6.174,3.161,9.794,1.833c0.671-0.244,1.417-0.483,1.913-0.952
				c0.993-0.943,2.082-1.096,3.371-0.979c4.61,0.417,9.229,0.794,13.846,1.133c3.146,0.231,6.301,0.412,9.451,0.532
				c0.852,0.033,1.368,0.254,1.826,1.004c0.957,1.566,2.031,3.063,3.076,4.574c3.768,5.459,9.068,8.375,15.539,9.333
				c2.207,0.327,4.42,0.624,6.621,0.988c0.332,0.054,0.748,0.326,0.896,0.615c0.904,1.733,1.764,3.49,2.583,5.264
				c0.175,0.377,0.185,0.855,0.185,1.288c0.021,8.039,0.049,16.078,0.008,24.115c-0.002,0.528-0.397,1.252-0.834,1.541
				c-0.955,0.631-2.031,1.107-3.105,1.523c-3.791,1.468-7.611,2.855-11.396,4.336c-0.861,0.337-1.412,0.189-1.693-0.631
				c-0.46-1.338-1.041-2.685-1.186-4.066c-0.188-1.783,0.856-2.882,2.645-3.277c2.953-0.654,5.909-1.308,8.863-1.945
				c0.607-0.133,1.001-0.313,0.906-1.088c-0.338-2.691-0.578-5.395-0.918-8.084c-0.412-3.274-2.558-5.144-5.854-5.396
				c-5.447-0.417-10.867-1.031-16.188-2.354c-3.522-0.875-6.828-2.212-9.83-4.251c-2.962-2.012-6.189-3.514-9.762-3.562
				c-2.918-0.04-5.912,0.313-8.75,1.003c-4.949,1.203-9.797,2.833-14.705,4.22c-4.373,1.234-8.852,1.676-13.387,1.397
				c-0.9-0.056-1.229,0.192-1.44,1.071c-1.093,4.487-1.81,8.993-1.159,13.624c0.135,0.953-0.475,3.785-0.802,4.68
				c-0.257,0.691-0.374,1.46-0.415,2.201c-0.117,2.131-0.623,2.824-2.708,3.097c-1.577,0.205-3.187,0.166-4.77,0.347
				c-0.519,0.059-1.14,0.342-1.472,0.73c-1.82,2.126-4.18,2.68-6.799,2.396c-0.402-0.043-0.958-0.582-1.073-0.994
				c-0.291-1.064-0.489-2.185-0.521-3.287c-0.07-2.771,1.494-4.373,4.291-4.545c0.754-0.047,1.524-0.025,2.262-0.174
				c2.256-0.447,3.533-2.014,3.541-4.295c0.012-5.039-0.151-10.085,0.09-15.115c0.08-1.679,1.15-3.318,1.818-4.956
				c0.076-0.188,0.461-0.3,0.724-0.357c4.928-1.083,8.056-6.823,5.177-11.901c-0.037-0.068-0.051-0.15-0.103-0.311
				c0.548-0.347,1.122-0.689,1.677-1.064c4.049-2.746,5.822-7.112,4.773-11.758c-0.502-2.219-1.819-3.855-3.619-5.186
				c-0.285-0.213-0.572-0.783-0.488-1.086c1.725-6.255,3.541-12.486,5.256-18.744c1.107-4.038,4.691-7.917,10.408-7.887
				c17.998,0.096,35.998,0.035,53.996,0.035h1.691V22.999z"/>
		</g>
		<g>
			<defs>
				<rect id="SVGID_39_" width="720.239" height="181.918"/>
			</defs>
			<clipPath id="SVGID_40_">
				<use xlink:href="#SVGID_39_"  overflow="visible"/>
			</clipPath>
			<path clip-path="url(#SVGID_40_)" fill="#CA342C" d="M577.974,66.898c1.328,0.896,2.39,1.602,3.44,2.322
				c1.944,1.337,2.668,3.168,2.045,5.147c-0.601,1.904-2.397,3.157-4.588,3.189c-0.396,0.006-0.794,0.001-1.195,0.001
				c-0.568,1.498-1.055,2.967-1.678,4.376c-1.09,2.471-3.099,3.783-5.711,4.223c-0.375,0.063-0.771,0.01-1,0.01v-10.96
				c-2.184,2.103-3.814,4.332-6.578,4.979c-0.418,0.097-0.836,0.184-1.432,0.313c0-1.04-0.036-1.951,0.012-2.857
				c0.037-0.684-0.214-0.953-0.893-1.126c-6.791-1.729-13.568-3.511-20.359-5.242c-0.461-0.118-1.017-0.023-1.496,0.096
				c-1.933,0.476-3.861,0.973-5.773,1.522c-0.778,0.225-1.369,0.1-1.688-0.644c-0.434-1.02-0.861-2.052-1.15-3.116
				c-0.271-1.003,0.266-1.766,1.063-2.357c1.602-1.189,3.361-1.028,5.238-0.593c0.125-0.271,0.274-0.539,0.374-0.824
				c0.718-2.077,1.876-2.718,4.06-2.148c3.38,0.88,5.832,3.054,7.813,5.81c0.971,1.351,1.822,2.783,2.825,4.328
				c0.708-0.998,1.36-1.845,1.917-2.752c0.143-0.229,0.064-0.68-0.059-0.966c-0.201-0.474-0.457-0.956-0.806-1.326
				c-1.143-1.215-0.919-2.282,0.01-3.559c1.263-1.742,2.335-3.626,3.449-5.473c0.358-0.595,0.735-0.745,1.456-0.662
				c4.857,0.56,9.299-0.509,13.057-3.749c2.771-2.392,3.456-5.543,2.933-9.032c-0.211-1.418-0.498-2.825-0.769-4.233
				c-0.275-1.425,0.317-2.312,1.796-2.497c0.901-0.113,1.823-0.102,2.866-0.153c-0.297-1.663-0.613-3.251-0.838-4.852
				c-0.057-0.404,0.051-1.02,0.322-1.252c2.867-2.425,4.397-5.507,4.664-9.437c0.469,0.348,0.84,0.562,1.137,0.851
				c3.307,3.209,5.182,7.194,5.23,11.722c0.031,2.769-0.789,5.582-1.467,8.315c-0.623,2.506-1.566,4.932-2.414,7.535
				c0.724,0.433,1.516,0.946,2.344,1.398c3.977,2.177,3.611,6.594,1.892,9.105c-1.591,2.323-3.876,3.481-6.587,3.936
				C580.387,66.441,579.345,66.647,577.974,66.898"/>
		</g>
		<g>
			<defs>
				<rect id="SVGID_41_" width="720.239" height="181.918"/>
			</defs>
			<clipPath id="SVGID_42_">
				<use xlink:href="#SVGID_41_"  overflow="visible"/>
			</clipPath>
			<path clip-path="url(#SVGID_42_)" fill="#CA342C" d="M557.54,79.504v32.306c-2.299-0.589-4.516-1.147-6.729-1.724
				c-3.469-0.899-6.931-1.838-10.409-2.699c-0.586-0.145-1.275-0.098-1.867,0.055c-5.25,1.335-10.49,2.717-15.734,4.08
				c-0.379,0.098-0.77,0.154-1.313,0.264v-1.272c0-9.917,0.014-19.833-0.021-29.75c-0.002-0.909,0.227-1.34,1.145-1.569
				c5.412-1.352,10.807-2.763,16.211-4.141c0.373-0.095,0.803-0.197,1.156-0.107C545.8,76.439,551.62,77.961,557.54,79.504"/>
		</g>
		<g>
			<defs>
				<rect id="SVGID_43_" width="720.239" height="181.918"/>
			</defs>
			<clipPath id="SVGID_44_">
				<use xlink:href="#SVGID_43_"  overflow="visible"/>
			</clipPath>
			<path clip-path="url(#SVGID_44_)" fill="#C52428" d="M605.311,115.125h-21.888c-0.021-0.078-0.045-0.155-0.064-0.231
				c0.538-0.164,1.08-0.317,1.614-0.491c2.553-0.831,4.162-2.729,4.127-5.408c-0.021-1.604,0.676-2.342,1.983-2.851
				c0.474-0.187,0.923-0.435,1.466-0.694c-3.475-4.537-2.354-9.521-1.618-14.452c0.045-0.3,0.524-0.765,0.802-0.766
				c7.135-0.021,13.854-2.006,20.533-4.228c1.586-0.526,3.229-0.876,4.82-1.392c0.662-0.214,1.021-0.091,1.371,0.491
				c2.473,4.105,4.971,8.196,7.457,12.298c0.514,0.852,0.443,1.719-0.188,2.451c-1.332,1.543-2.692,3.059-4.106,4.523
				c-0.235,0.24-0.817,0.278-1.206,0.213c-1.885-0.316-3.746-0.799-5.639-1.043c-4.143-0.531-8.962,2.213-9.447,7.586
				C605.212,112.394,605.311,113.674,605.311,115.125"/>
		</g>
		<g>
			<defs>
				<rect id="SVGID_45_" width="720.239" height="181.918"/>
			</defs>
			<clipPath id="SVGID_46_">
				<use xlink:href="#SVGID_45_"  overflow="visible"/>
			</clipPath>
			<path clip-path="url(#SVGID_46_)" fill="#CA342C" d="M638.416,89.071c0.446,0.117,0.716,0.156,0.96,0.256
				c5.484,2.236,11.264,3.136,17.098,3.772c1.98,0.217,3.961,0.438,5.943,0.637c1.146,0.115,1.729,0.847,1.883,1.862
				c0.248,1.654,0.348,3.33,0.55,4.992c0.094,0.761-0.233,1.059-0.943,1.203c-1.794,0.363-3.562,0.877-5.366,1.17
				c-4.188,0.678-6.588,4.318-5.564,9.101c0.215,0.998,0.631,1.953,0.988,3.037h-24.756c0.357-0.472,0.557-0.793,0.808-1.062
				c3.135-3.31,6.265-6.615,9.409-9.912c2.835-2.971,3.289-5.496,1.598-9.262c-0.67-1.492-1.391-2.962-2.074-4.446
				C638.768,90.038,638.635,89.636,638.416,89.071"/>
		</g>
		<g>
			<defs>
				<rect id="SVGID_47_" width="720.239" height="181.918"/>
			</defs>
			<clipPath id="SVGID_48_">
				<use xlink:href="#SVGID_47_"  overflow="visible"/>
			</clipPath>
			<path clip-path="url(#SVGID_48_)" fill="#CA342C" d="M621.848,83.571c1.982,0,3.746-0.021,5.508,0.015
				c0.426,0.008,0.849,0.203,1.275,0.298c2.467,0.538,4.282,1.685,5.254,4.262c1.141,3.014,2.689,5.875,4.104,8.78
				c0.771,1.587,0.453,2.969-0.687,4.181c-4.271,4.546-8.561,9.073-12.877,13.578c-0.285,0.3-0.83,0.493-1.255,0.497
				c-4.317,0.035-8.638-0.008-12.957,0.044c-0.952,0.012-1.085-0.47-1.233-1.202c-0.758-3.693,0.96-6.516,4.371-6.88
				c1.037-0.11,2.128,0.194,3.186,0.374c1.491,0.255,2.973,0.572,4.459,0.863c1.074,0.211,1.954,0.097,2.746-0.875
				c1.312-1.608,2.818-3.057,4.2-4.608c2.319-2.606,2.495-5.013,0.687-7.962c-2.068-3.37-4.107-6.758-6.156-10.141
				C622.292,84.496,622.155,84.172,621.848,83.571"/>
		</g>
		<g>
			<defs>
				<rect id="SVGID_49_" width="720.239" height="181.918"/>
			</defs>
			<clipPath id="SVGID_50_">
				<use xlink:href="#SVGID_49_"  overflow="visible"/>
			</clipPath>
			<path clip-path="url(#SVGID_50_)" fill="#CA342C" d="M554.109,42.177c-0.749-0.521-1.435-0.99-2.108-1.475
				c-0.667-0.478-0.813-0.979-0.219-1.686c0.871-1.04,1.576-2.224,2.498-3.212c0.459-0.493,1.229-0.924,1.879-0.958
				c0.793-0.041,1.262,0.626,1.449,1.485c0.229,1.039,1.257,1.359,2.146,0.765c0.1-0.066,0.199-0.141,0.273-0.231
				c0.65-0.767,1.914-1.424,1.404-2.514c-0.235-0.504-1.584-0.572-2.446-0.674c-0.901-0.106-1.794-0.114-2.159-1.138
				c-0.33-0.925,0.172-2.348,1.049-2.992c1.604-1.18,3.484-1.541,5.402-1.712c0.95-0.085,1.949-0.156,2.865,0.05
				c1.217,0.272,2.135-0.079,3.121-0.712c2.613-1.677,5.281-3.27,8.309-5.131c-0.086,1.359,0.004,2.423-0.246,3.401
				c-0.609,2.395-2.084,4.199-4.255,5.387c-0.688,0.378-1.085,0.774-0.706,1.585c0.064,0.138,0.023,0.321,0.07,0.471
				c0.528,1.719,0.425,2.938-1.553,3.905c-2.054,1.007-2.329,3.189-1.981,5.343c0.24,1.493,0.552,2.974,0.813,4.464
				c0.381,2.168-0.143,4.09-1.843,5.519c-3.955,3.327-8.495,3.936-13.366,2.598c-0.343-0.094-0.565-0.63-0.844-0.961
				c0.354-0.171,0.695-0.458,1.063-0.494c2.094-0.204,4.241-0.125,6.274-0.569c2.323-0.51,4.13-1.924,4.716-4.426
				c0.486-2.075-0.291-3.788-1.784-5.156c-1.416-1.297-3.091-1.416-4.782-0.565c-1.066,0.536-2.07,1.197-3.103,1.804
				c-0.687,0.406-1.333,0.923-2.07,1.185c-0.491,0.174-1.11-0.013-1.672-0.039c0.14-0.483,0.196-1.014,0.442-1.438
				C553.122,43.407,553.624,42.833,554.109,42.177"/>
		</g>
		<g>
			<defs>
				<rect id="SVGID_51_" width="720.239" height="181.918"/>
			</defs>
			<clipPath id="SVGID_52_">
				<use xlink:href="#SVGID_51_"  overflow="visible"/>
			</clipPath>
			<path clip-path="url(#SVGID_52_)" fill="#CA342C" d="M565.229,115.002c-0.17,0.104-0.201,0.139-0.238,0.143
				c-3.729,0.436-3.729,0.436-3.729-3.271c0-8.789,0.018-17.578-0.024-26.366c-0.004-0.985,0.261-1.414,1.251-1.58
				c1.047-0.175,2.059-0.565,3.352-0.938c-0.359,2.363-0.695,4.58-1.033,6.797c1.988,0.504,5.365,0.105,9.912-1.187
				c0.037,0.349,0.102,0.681,0.102,1.013c0.008,3.677-0.027,7.353,0.023,11.027c0.016,1.077-0.324,1.459-1.426,1.51
				c-1.223,0.056-2.473,0.259-3.635,0.636c-3.794,1.23-5.469,4.531-5.146,8.334C564.75,112.417,565.026,113.702,565.229,115.002"/>
		</g>
		<g>
			<defs>
				<rect id="SVGID_53_" width="720.239" height="181.918"/>
			</defs>
			<clipPath id="SVGID_54_">
				<use xlink:href="#SVGID_53_"  overflow="visible"/>
			</clipPath>
			<path clip-path="url(#SVGID_54_)" fill="#CA342C" d="M644.34,37.46c1.234-1.826,2.414-3.607,3.646-5.351
				c0.166-0.234,0.593-0.403,0.896-0.403c8.114-0.018,16.231-0.009,24.344-0.001c0.109,0,0.221,0.059,0.708,0.198
				c-1.044,1.125-1.876,2.215-2.899,3.081c-1.884,1.596-4.166,2.431-6.607,2.465c-6.555,0.091-13.107,0.049-19.664,0.057
				C644.608,37.506,644.452,37.473,644.34,37.46"/>
		</g>
		<g>
			<defs>
				<rect id="SVGID_55_" width="720.239" height="181.918"/>
			</defs>
			<clipPath id="SVGID_56_">
				<use xlink:href="#SVGID_55_"  overflow="visible"/>
			</clipPath>
			<path clip-path="url(#SVGID_56_)" fill="#CA342C" d="M658.676,41.308c-1.36,2.179-3.09,3.751-5.379,4.493
				c-1.646,0.533-3.416,0.917-5.139,0.949c-6.034,0.116-12.068,0.052-18.104,0.052c-0.228,0-0.456-0.04-0.825-0.075
				c0.17-0.286,0.26-0.479,0.385-0.648c1.021-1.372,2.025-2.758,3.097-4.093c0.279-0.351,0.761-0.767,1.153-0.77
				c8.03-0.044,16.063-0.032,24.096-0.027C658.143,41.19,658.329,41.249,658.676,41.308"/>
		</g>
		<g>
			<defs>
				<rect id="SVGID_57_" width="720.239" height="181.918"/>
			</defs>
			<clipPath id="SVGID_58_">
				<use xlink:href="#SVGID_57_"  overflow="visible"/>
			</clipPath>
			<path clip-path="url(#SVGID_58_)" fill="#CA342C" d="M660.553,28.056c1.152-1.642,2.229-3.206,3.353-4.731
				c0.147-0.203,0.552-0.308,0.838-0.308c8.024-0.014,16.052-0.01,24.081-0.004c0.143,0,0.285,0.046,0.595,0.101
				c-1.026,1.584-2.23,2.848-3.815,3.461c-1.83,0.707-3.795,1.41-5.719,1.466c-6.266,0.185-12.537,0.074-18.809,0.074
				C660.92,28.115,660.766,28.081,660.553,28.056"/>
		</g>
		<g>
			<defs>
				<rect id="SVGID_59_" width="720.239" height="181.918"/>
			</defs>
			<clipPath id="SVGID_60_">
				<use xlink:href="#SVGID_59_"  overflow="visible"/>
			</clipPath>
			<path clip-path="url(#SVGID_60_)" fill="#C52428" d="M668.676,71.677c-6.387,1.015-15.896-4.582-18.682-10.993
				C656.422,60.326,666.745,66.4,668.676,71.677"/>
		</g>
		<g>
			<defs>
				<rect id="SVGID_61_" width="720.239" height="181.918"/>
			</defs>
			<clipPath id="SVGID_62_">
				<use xlink:href="#SVGID_61_"  overflow="visible"/>
			</clipPath>
			<path clip-path="url(#SVGID_62_)" fill="#C52428" d="M524.713,114.808c2.877-0.755,5.82-1.317,8.613-2.31
				c4.201-1.49,8.256-1.513,12.454-0.002c2.62,0.942,5.389,1.459,8.092,2.172c0.207,0.055,0.403,0.146,0.571,0.381h-29.666
				C524.756,114.969,524.737,114.888,524.713,114.808"/>
		</g>
		<g>
			<defs>
				<rect id="SVGID_63_" width="720.239" height="181.918"/>
			</defs>
			<clipPath id="SVGID_64_">
				<use xlink:href="#SVGID_63_"  overflow="visible"/>
			</clipPath>
			<path clip-path="url(#SVGID_64_)" fill="#C52428" d="M573.734,20.124c-1.437,0.9-2.76,1.514-3.813,2.437
				c-2.506,2.198-5.469,1.631-8.404,1.733C562.911,21.499,568.859,18.618,573.734,20.124"/>
		</g>
		<g>
			<defs>
				<rect id="SVGID_65_" width="720.239" height="181.918"/>
			</defs>
			<clipPath id="SVGID_66_">
				<use xlink:href="#SVGID_65_"  overflow="visible"/>
			</clipPath>
			<path clip-path="url(#SVGID_66_)" fill="#C52428" d="M694.232,105.683c-3.448-0.263-5.407-2.231-7.104-4.651
				c1.454-0.889,3.724-0.607,4.688,0.693C692.686,102.896,693.352,104.217,694.232,105.683"/>
		</g>
		<g>
			<defs>
				<rect id="SVGID_67_" width="720.239" height="181.918"/>
			</defs>
			<clipPath id="SVGID_68_">
				<use xlink:href="#SVGID_67_"  overflow="visible"/>
			</clipPath>
			<path clip-path="url(#SVGID_68_)" fill="#C52428" d="M627.127,148.564v-12.948c2.346,0,4.696-0.164,7.01,0.061
				c1.467,0.143,2.377,1.392,2.849,2.791c0.766,2.262,0.764,4.556-0.047,6.795c-0.696,1.924-2.136,3.115-4.18,3.273
				C630.94,148.674,629.098,148.564,627.127,148.564"/>
		</g>
		<g>
			<defs>
				<rect id="SVGID_69_" width="720.239" height="181.918"/>
			</defs>
			<clipPath id="SVGID_70_">
				<use xlink:href="#SVGID_69_"  overflow="visible"/>
			</clipPath>
			<path clip-path="url(#SVGID_70_)" fill="#C52428" d="M658.688,153.801h-9.357c1.479-4.434,2.919-8.75,4.359-13.065l0.32-0.032
				C655.555,145.034,657.101,149.364,658.688,153.801"/>
		</g>
		<g>
			<defs>
				<rect id="SVGID_71_" width="720.239" height="181.918"/>
			</defs>
			<clipPath id="SVGID_72_">
				<use xlink:href="#SVGID_71_"  overflow="visible"/>
			</clipPath>
			<path clip-path="url(#SVGID_72_)" fill="#CA342C" d="M25.131,71.669c0-3.959,0.058-11.602,0.129-12.072
				c3.32,0.162,6.644,0.09,9.892,0.553c3.201,0.459,4.312,2.373,4.251,6.138c-0.042,2.631-1.605,4.606-4.449,4.927
				C31.764,71.574,28.526,71.531,25.131,71.669"/>
		</g>
		<g>
			<defs>
				<rect id="SVGID_73_" width="720.239" height="181.918"/>
			</defs>
			<clipPath id="SVGID_74_">
				<use xlink:href="#SVGID_73_"  overflow="visible"/>
			</clipPath>
			<path clip-path="url(#SVGID_74_)" fill="#CA342C" d="M124.182,72.16c-2.011-4.282-8.306-4.54-10.888-0.579
				c-2.212,3.394-2.04,9.586,0.356,12.851c2.75,3.747,8.771,3.329,10.595-0.933C126.081,79.205,125.002,73.91,124.182,72.16z"/>
		</g>
		<g>
			<defs>
				<rect id="SVGID_75_" width="720.239" height="181.918"/>
			</defs>
			<clipPath id="SVGID_76_">
				<use xlink:href="#SVGID_75_"  overflow="visible"/>
			</clipPath>
			<path clip-path="url(#SVGID_76_)" fill="#CA342C" d="M358.283,74.875h-12.358c-0.373-2.992,2.359-5.889,5.631-6.031
				C355.637,68.666,358.412,71.12,358.283,74.875"/>
		</g>
		<g>
			<defs>
				<rect id="SVGID_77_" width="720.239" height="181.918"/>
			</defs>
			<clipPath id="SVGID_78_">
				<use xlink:href="#SVGID_77_"  overflow="visible"/>
			</clipPath>
			<path clip-path="url(#SVGID_78_)" fill="#CA342C" d="M251.871,74.888h-12.592c-0.038-1.94,0.693-3.532,2.146-4.676
				c2.159-1.698,4.653-1.865,7.11-0.808C250.787,70.374,251.466,72.482,251.871,74.888"/>
		</g>
		<g>
			<defs>
				<rect id="SVGID_79_" width="720.239" height="181.918"/>
			</defs>
			<clipPath id="SVGID_80_">
				<use xlink:href="#SVGID_79_"  overflow="visible"/>
			</clipPath>
			<path clip-path="url(#SVGID_80_)" fill="#CA342C" d="M145.023,74.877c-0.306-3.166,2.485-5.978,5.914-6.037
				c3.934-0.068,6.68,2.475,6.443,6.037H145.023z"/>
		</g>
		<g>
			<defs>
				<rect id="SVGID_81_" width="720.239" height="181.918"/>
			</defs>
			<clipPath id="SVGID_82_">
				<use xlink:href="#SVGID_81_"  overflow="visible"/>
			</clipPath>
			<path clip-path="url(#SVGID_82_)" fill="#CA342C" d="M424.149,74.879c-0.326-3.152,2.475-5.979,5.9-6.039
				c3.939-0.069,6.668,2.45,6.455,6.039H424.149z"/>
		</g>
		<g>
			<defs>
				<rect id="SVGID_83_" width="720.239" height="181.918"/>
			</defs>
			<clipPath id="SVGID_84_">
				<use xlink:href="#SVGID_83_"  overflow="visible"/>
			</clipPath>
			<path clip-path="url(#SVGID_84_)" fill="#CA342C" d="M389.982,72.478c-1.005-2.457-3.006-3.606-5.657-3.641
				c-2.702-0.034-4.777,1.081-5.83,3.58c-1.516,3.606-1.524,7.322-0.002,10.931c1.057,2.497,3.134,3.61,5.834,3.573
				c2.652-0.035,4.647-1.187,5.659-3.641C391.19,80.361,391.237,75.548,389.982,72.478z"/>
		</g>
		<g>
			<defs>
				<rect id="SVGID_85_" width="720.239" height="181.918"/>
			</defs>
			<clipPath id="SVGID_86_">
				<use xlink:href="#SVGID_85_"  overflow="visible"/>
			</clipPath>
			<path clip-path="url(#SVGID_86_)" fill="#C52428" d="M31.527,118.043h-7.979c2.028-3.535,3.971-6.926,5.916-10.315
				c0.13,0.007,0.261,0.017,0.392,0.022C30.408,111.147,30.958,114.542,31.527,118.043"/>
		</g>
		<g>
			<defs>
				<rect id="SVGID_87_" width="720.239" height="181.918"/>
			</defs>
			<clipPath id="SVGID_88_">
				<use xlink:href="#SVGID_87_"  overflow="visible"/>
			</clipPath>
			<path clip-path="url(#SVGID_88_)" fill="#C52428" d="M324.23,118.345c-0.123,4.393-2.513,6.592-6.058,6.282
				c-1.295-0.113-2.379-0.867-2.607-1.91c-0.313-1.438,0.223-2.661,1.587-3.239c0.828-0.351,1.739-0.563,2.632-0.69
				C321.26,118.577,322.755,118.487,324.23,118.345"/>
		</g>
		<g>
			<defs>
				<rect id="SVGID_89_" width="720.239" height="181.918"/>
			</defs>
			<clipPath id="SVGID_90_">
				<use xlink:href="#SVGID_89_"  overflow="visible"/>
			</clipPath>
			<path clip-path="url(#SVGID_90_)" fill="#CA342C" d="M100.083,117.659c0.471-3.08,2.644-5.158,5.284-5.162
				c2.605-0.006,4.037,1.48,3.96,4.121c-0.01,0.313-0.078,0.627-0.132,1.041H100.083z"/>
		</g>
		<g>
			<defs>
				<rect id="SVGID_91_" width="720.239" height="181.918"/>
			</defs>
			<clipPath id="SVGID_92_">
				<use xlink:href="#SVGID_91_"  overflow="visible"/>
			</clipPath>
			<path clip-path="url(#SVGID_92_)" fill="#CA342C" d="M150.867,117.694h-8.917c0.116-3.27,3.445-6.4,7.119-4.861
				C150.765,113.542,151.398,115.383,150.867,117.694"/>
		</g>
		<g>
			<defs>
				<rect id="SVGID_93_" width="720.239" height="181.918"/>
			</defs>
			<clipPath id="SVGID_94_">
				<use xlink:href="#SVGID_93_"  overflow="visible"/>
			</clipPath>
			<path clip-path="url(#SVGID_94_)" fill="#CA342C" d="M215.961,117.7h-8.979c-0.086-3.328,3.818-6.16,6.819-5.015
				C215.639,113.388,216.375,115.025,215.961,117.7"/>
		</g>
		<g>
			<defs>
				<rect id="SVGID_95_" width="720.239" height="181.918"/>
			</defs>
			<clipPath id="SVGID_96_">
				<use xlink:href="#SVGID_95_"  overflow="visible"/>
			</clipPath>
			<path clip-path="url(#SVGID_96_)" fill="#CA342C" d="M274.632,116.993c0.038,2.077-0.567,3.863-1.703,5.467
				c-1.221,1.726-2.913,2.418-5,2.146c-1.603-0.209-2.973-1.502-3.205-3.276c-0.356-2.729,0.224-5.252,2.176-7.313
				c1.44-1.521,3.602-2.018,5.378-1.237C274.148,113.598,274.697,115.184,274.632,116.993"/>
		</g>
		<g>
			<defs>
				<rect id="SVGID_97_" width="720.239" height="181.918"/>
			</defs>
			<clipPath id="SVGID_98_">
				<use xlink:href="#SVGID_97_"  overflow="visible"/>
			</clipPath>
			<path clip-path="url(#SVGID_98_)" fill="#FFFFFF" d="M348.259,60.434c1.004-1.49,2.066-2.714,2.729-4.125
				c1.354-2.878,3.438-3.976,6.558-3.438c1.155,0.197,2.371,0.031,3.56,0.031c0.121,0.155,0.244,0.31,0.365,0.466
				c-0.348,0.175-0.751,0.286-1.028,0.538c-2.164,1.952-4.284,3.957-6.47,5.886c-0.397,0.352-1.023,0.579-1.561,0.615
				C351.115,60.495,349.805,60.434,348.259,60.434"/>
		</g>
		<g>
			<defs>
				<rect id="SVGID_99_" width="720.239" height="181.918"/>
			</defs>
			<clipPath id="SVGID_100_">
				<use xlink:href="#SVGID_99_"  overflow="visible"/>
			</clipPath>
			<path clip-path="url(#SVGID_100_)" fill="#FFFFFF" d="M523.867,88.48v1.046c0.329-0.508,0.753-0.615,0.753-0.615
				c0.381-0.188,0.629,0.238,0.629,0.238l-0.1,2.646c-0.127,0.429-0.328,0.724-0.328,0.724l1.582-0.347
				c-0.35-0.188-0.475-0.588-0.475-0.588l0.023-2.674c0.377-0.86,1.578-0.08,1.578-0.08l-0.023-0.938L523.867,88.48z"/>
		</g>
		<g>
			<defs>
				<rect id="SVGID_101_" width="720.239" height="181.918"/>
			</defs>
			<clipPath id="SVGID_102_">
				<use xlink:href="#SVGID_101_"  overflow="visible"/>
			</clipPath>
			<path clip-path="url(#SVGID_102_)" fill="#FFFFFF" d="M527.782,87.814c0.426,0.132,0.477,0.427,0.477,0.427l-0.051,2.673
				c-0.021,0.616-0.375,0.99-0.375,0.99l1.555-0.319c-0.325-0.188-0.427-0.614-0.427-0.614v-2.784
				c0.076-0.344,0.374-0.693,0.374-0.693L527.782,87.814z"/>
		</g>
		<g>
			<defs>
				<rect id="SVGID_103_" width="720.239" height="181.918"/>
			</defs>
			<clipPath id="SVGID_104_">
				<use xlink:href="#SVGID_103_"  overflow="visible"/>
			</clipPath>
			<path clip-path="url(#SVGID_104_)" fill="#FFFFFF" d="M526.957,101.024c-0.252,0.243-0.956,0.32-0.956,0.32
				c-1.354-0.162-1.954,0.99-1.954,0.99c-0.776,1.737,0.097,2.94,0.097,2.94c1.51,1.661,2.987-0.241,2.987-0.241
				c0.327-0.613-0.246-0.4-0.246-0.4c-1.011,1.177-1.985,0.162-1.985,0.162c-0.729-1.606,0-2.514,0-2.514
				c0.502-0.671,1.479-0.533,1.479-0.533c0.306,0.265,0.579,0.612,0.579,0.612V101.024L526.957,101.024z"/>
		</g>
		<g>
			<defs>
				<rect id="SVGID_105_" width="720.239" height="181.918"/>
			</defs>
			<clipPath id="SVGID_106_">
				<use xlink:href="#SVGID_105_"  overflow="visible"/>
			</clipPath>
			<path clip-path="url(#SVGID_106_)" fill="#FFFFFF" d="M527.557,101.051c0.4,0.267,0.525,0.695,0.525,0.695v2.912
				c-0.049,0.432-0.324,0.832-0.324,0.832l2.707-0.589c0.5-0.294,0.352-1.098,0.352-1.098c-0.297,0.563-1.029,0.722-1.029,0.722
				l-0.776,0.082l-0.051-1.15c0.503-0.644,1.054-0.244,1.054-0.244l-0.049-1.096c-0.451,0.537-1.03,0.373-1.03,0.373l0.025-1.066
				c0.129-0.399,0.554-0.348,0.554-0.348l0.676-0.025c0.277,0,0.449,0.293,0.449,0.293c0-0.854-0.801-0.854-0.801-0.854
				L527.557,101.051z"/>
		</g>
		<g>
			<defs>
				<rect id="SVGID_107_" width="720.239" height="181.918"/>
			</defs>
			<clipPath id="SVGID_108_">
				<use xlink:href="#SVGID_107_"  overflow="visible"/>
			</clipPath>
			<path clip-path="url(#SVGID_108_)" fill="#FFFFFF" d="M533.35,99.581c0.678,0.267,0.525,0.694,0.525,0.694v2.914
				c-0.049,0.429-0.553,0.884-0.553,0.884l2.938-0.643c0.501-0.293,0.351-1.098,0.351-1.098c-0.302,0.563-1.029,0.727-1.029,0.727
				l-0.774,0.078l-0.076-1.311c0.5-0.645,1.077-0.08,1.077-0.08l-0.051-1.098c-0.452,0.533-1.026,0.374-1.026,0.374l0.021-1.071
				c0.129-0.4,1.23-0.373,1.23-0.373c0.277,0,0.454,0.291,0.454,0.291c0-0.852-0.807-0.852-0.807-0.852L533.35,99.581z"/>
		</g>
		<g>
			<defs>
				<rect id="SVGID_109_" width="720.239" height="181.918"/>
			</defs>
			<clipPath id="SVGID_110_">
				<use xlink:href="#SVGID_109_"  overflow="visible"/>
			</clipPath>
			<path clip-path="url(#SVGID_110_)" fill="#FFFFFF" d="M541.958,79.2c0.519,0.4,0.624,1.02,0.624,1.02l1.006,3.528
				c0.348,0.349,0.676,0.052,0.676,0.052l1.229-3.235c0.249-0.533,0.624-0.882,0.624-0.882l-1.175-0.188
				c0.322,0.268,0.146,0.855,0.146,0.855l-0.951,2.221l-0.779-2.564c0.074-0.406,0.451-0.672,0.451-0.672L541.958,79.2z"/>
		</g>
		<g>
			<defs>
				<rect id="SVGID_111_" width="720.239" height="181.918"/>
			</defs>
			<clipPath id="SVGID_112_">
				<use xlink:href="#SVGID_111_"  overflow="visible"/>
			</clipPath>
			<path clip-path="url(#SVGID_112_)" fill="#FFFFFF" d="M550.206,80.671c0.303,0.351,0.377,0.805,0.377,0.805l-0.123,2.619
				c-0.074,0.4-0.477,0.615-0.477,0.615l1.304,0.32c-0.277-0.32-0.379-0.75-0.379-0.75V83.4c0.102-0.457,0.35-0.511,0.35-0.511
				l1.583,2.621c0.578,0.401,0.578-0.347,0.578-0.347v-3.236c0.1-0.318,0.479-0.669,0.479-0.669l-1.13-0.051
				c0.225,0.13,0.197,0.345,0.197,0.345l-0.047,2.012c-0.883-0.3-1.833-2.571-1.833-2.571
				C550.633,80.565,550.206,80.671,550.206,80.671"/>
		</g>
		<g>
			<defs>
				<rect id="SVGID_113_" width="720.239" height="181.918"/>
			</defs>
			<clipPath id="SVGID_114_">
				<use xlink:href="#SVGID_113_"  overflow="visible"/>
			</clipPath>
			<path clip-path="url(#SVGID_114_)" fill="#FFFFFF" d="M545.317,85.913c-0.127-0.025-0.201,0.082-0.328,0.056
				c-1.654-0.537-2.354,0.052-2.354,0.052c-1.585,1.604-0.429,3.291-0.429,3.291c1.905,2.192,3.136-0.215,3.136-0.215
				c0.225-0.454,0.653-0.938,0.653-0.938l-1.984-0.452c0.702,0.452,0.702,0.909,0.702,0.909c0,1.096-0.953,1.015-0.953,1.015
				c-1.328-0.612-1.006-1.816-1.006-1.816c0.08-1.604,1.332-1.58,1.332-1.58c0.754-0.051,1.178,0.992,1.178,0.992L545.317,85.913z"
				/>
		</g>
		<g>
			<defs>
				<rect id="SVGID_115_" width="720.239" height="181.918"/>
			</defs>
			<clipPath id="SVGID_116_">
				<use xlink:href="#SVGID_115_"  overflow="visible"/>
			</clipPath>
			<path clip-path="url(#SVGID_116_)" fill="#FFFFFF" d="M546.117,86.398c0.329,0.187,0.329,0.479,0.329,0.479v2.619
				c-0.072,0.508-0.579,0.857-0.579,0.857s2.333,0.641,2.91,0.508l0.123-0.776c-0.647,0.508-1.752,0.242-1.752,0.242l0.125-1.232
				c0.448-0.321,0.952,0.455,0.952,0.455l-0.025-1.549c-0.377,0.479-0.927,0.264-0.927,0.264l0.051-0.881
				c0.023-0.457,0.325-0.375,0.325-0.375h0.502c0.424,0.133,0.804,0.508,0.804,0.508c-0.125-0.774-0.503-0.826-0.503-0.826
				L546.117,86.398z"/>
		</g>
		<g>
			<defs>
				<rect id="SVGID_117_" width="720.239" height="181.918"/>
			</defs>
			<clipPath id="SVGID_118_">
				<use xlink:href="#SVGID_117_"  overflow="visible"/>
			</clipPath>
			<path clip-path="url(#SVGID_118_)" fill="#FFFFFF" d="M549.377,87.09c0.4,0.32,0.451,0.879,0.451,0.879l-0.051,2.25
				c-0.023,0.534-0.627,0.75-0.627,0.75l3.012,0.747l0.453-1.146c-0.406,0.425-0.881,0.48-0.881,0.48h-0.753
				c-0.522-0.269-0.321-0.965-0.321-0.965V88.05c0.171-0.398,0.474-0.666,0.474-0.666L549.377,87.09z"/>
		</g>
		<g>
			<defs>
				<rect id="SVGID_119_" width="720.239" height="181.918"/>
			</defs>
			<clipPath id="SVGID_120_">
				<use xlink:href="#SVGID_119_"  overflow="visible"/>
			</clipPath>
			<path clip-path="url(#SVGID_120_)" fill="#FFFFFF" d="M553.042,87.787c0.352,0.372,0.426,0.644,0.426,0.644l-0.049,2.754
				c-0.152,0.481-0.428,0.772-0.428,0.772l1.604,0.158c-0.35-0.346-0.425-0.882-0.425-0.882l0.103-2.593
				c0.125-0.269,0.375-0.456,0.375-0.456L553.042,87.787z"/>
		</g>
		<g>
			<defs>
				<rect id="SVGID_121_" width="720.239" height="181.918"/>
			</defs>
			<clipPath id="SVGID_122_">
				<use xlink:href="#SVGID_121_"  overflow="visible"/>
			</clipPath>
			<path clip-path="url(#SVGID_122_)" fill="#FFFFFF" d="M545.014,92.575c-0.93-0.324-1.781-0.324-1.781-0.324
				c-1.149,0.27-0.928,1.258-0.928,1.258c0.328,1.15,1.455,1.421,1.455,1.421c1.004,0.452,0.801,1.065,0.801,1.065
				c-0.449,0.537-1.176,0.321-1.176,0.321c-0.553-0.508-0.881-1.338-0.881-1.338c-0.649,1.231,0.678,1.661,0.678,1.661
				c1.432,0.479,1.832-0.188,1.832-0.188c0.7-0.908-0.023-1.688-0.023-1.688c-0.855-0.771-1.184-0.694-1.184-0.694
				c-1.252-0.667-0.32-1.28-0.32-1.28c0.75-0.459,1.504,0.986,1.504,0.986L545.014,92.575z"/>
		</g>
		<g>
			<defs>
				<rect id="SVGID_123_" width="720.239" height="181.918"/>
			</defs>
			<clipPath id="SVGID_124_">
				<use xlink:href="#SVGID_123_"  overflow="visible"/>
			</clipPath>
			<path clip-path="url(#SVGID_124_)" fill="#FFFFFF" d="M545.814,92.79v0.986c0.428-0.48,1.133-0.454,1.133-0.454v2.917
				c0,0.612-0.573,0.961-0.573,0.961l1.727,0.239c-0.225-0.239-0.326-0.692-0.326-0.692v-2.621c0.104-0.483,0.604-0.401,0.604-0.401
				c0.524,0.106,0.877,0.67,0.877,0.67V93.43L545.814,92.79z"/>
		</g>
		<g>
			<defs>
				<rect id="SVGID_125_" width="720.239" height="181.918"/>
			</defs>
			<clipPath id="SVGID_126_">
				<use xlink:href="#SVGID_125_"  overflow="visible"/>
			</clipPath>
			<path clip-path="url(#SVGID_126_)" fill="#FFFFFF" d="M542.379,99.127c0.555,0.397,0.502,0.852,0.502,0.852l-0.952,2.221
				c-0.125,0.457-0.604,0.563-0.604,0.563l1.23,0.45c-0.3-0.478-0.178-0.881-0.178-0.881l0.703-1.256l0.852,1.687l1.205-1.446
				l0.455,1.742c0,0.531-0.455,0.801-0.455,0.801l4.367,1.016l0.123-1.068c-0.348,0.427-0.675,0.563-0.675,0.563l-1.005-0.295
				c-0.229-0.242-0.102-0.645-0.102-0.645l0.148-0.479c0.254-0.481,0.629,0.186,0.629,0.186l0.104-1.389
				c-0.504,0.344-0.826,0.078-0.826,0.078l0.047-0.644c0.377-0.937,1.455,0.215,1.455,0.215l0.125-0.614l-2.633-0.775
				c0.198,0.238,0.349,0.511,0.349,0.511l-0.172,2.888c-0.074,0.348-0.327,0.293-0.327,0.293c-0.402-0.216-0.373-0.484-0.373-0.484
				l-0.479-2.725c0.102-0.373,0.497-0.48,0.497-0.48c-0.677-0.297-1.025-0.139-1.025-0.139l-1.002,1.397l-0.678-1.581
				C543.11,99.127,542.379,99.127,542.379,99.127"/>
		</g>
		<g>
			<defs>
				<rect id="SVGID_127_" width="720.239" height="181.918"/>
			</defs>
			<clipPath id="SVGID_128_">
				<use xlink:href="#SVGID_127_"  overflow="visible"/>
			</clipPath>
			<path clip-path="url(#SVGID_128_)" fill="#FFFFFF" d="M550.908,98.19l1.681,0.4c-0.323-0.375-0.377-0.883-0.377-0.883
				l-1.255-3.746c-0.323-0.399-0.597-0.051-0.597-0.051l-1.258,2.861c-0.226,0.533-0.703,0.775-0.703,0.775l1.381,0.43
				c-0.375-0.404-0.301-0.832-0.301-0.832l0.301-0.428l1.054,0.158c0.453,0.108,0.402,0.777,0.402,0.777L550.908,98.19z
				 M550.008,96.131l0.398-0.752l0.303,0.803L550.008,96.131z"/>
		</g>
		<g>
			<defs>
				<rect id="SVGID_129_" width="720.239" height="181.918"/>
			</defs>
			<clipPath id="SVGID_130_">
				<use xlink:href="#SVGID_129_"  overflow="visible"/>
			</clipPath>
			<path clip-path="url(#SVGID_130_)" fill="#FFFFFF" d="M548.024,84.307l1.807,0.323c0,0-0.5-0.561-0.701-1.229l-1.006-3.076
				c0,0-0.248-0.509-0.625-0.026l-1.354,2.564c0,0-0.201,0.67-0.751,0.885l1.33,0.404c0,0-0.402-0.619-0.027-1.181
				c0,0,0.877-0.881,1.58,0.506C548.276,83.477,548.452,84.07,548.024,84.307 M547.246,82.09l0.327-0.537l0.25,0.589L547.246,82.09z
				"/>
		</g>
		<g>
			<defs>
				<rect id="SVGID_131_" width="720.239" height="181.918"/>
			</defs>
			<clipPath id="SVGID_132_">
				<use xlink:href="#SVGID_131_"  overflow="visible"/>
			</clipPath>
			<path clip-path="url(#SVGID_132_)" fill="#FFFFFF" d="M534.231,95.73c0.752,0.612,1.552,0.989,1.552,0.989l1.281-0.242
				c-1.03-0.238-1.733-1.068-1.733-1.068c0.832-0.431,0.779-1.496,0.779-1.496c0-1.285-1.328-1.123-1.328-1.123l-2.107,0.506
				c0.525,0.375,0.479,0.883,0.479,0.883l-0.051,2.542c-0.678,0.187-0.953-0.511-0.953-0.511l-1.605-2.433
				c-0.275-0.321-0.502-0.055-0.502-0.055l-0.729,3.317c-0.302,0.938-0.754,0.16-0.754,0.16l-0.678-2.06
				c0.029-0.511,0.553-0.937,0.553-0.937l-0.977,0.027c-0.327,0.16-0.526,0.665-0.526,0.665l-0.601,1.899l-0.955-1.549
				c-0.477-0.484-1.607-0.057-1.607-0.057c0.605,0.057,0.678,0.508,0.678,0.508l-0.322,2.782c-0.101,0.536-0.553,0.856-0.553,0.856
				l1.604-0.32c-0.748-0.214-0.627-0.615-0.627-0.615l0.502-1.686l1.203,1.604l1.053-2.005l0.629,1.392
				c0.125,0.533-0.426,0.883-0.426,0.883l2.76-0.721c-0.73-0.138-0.502-0.726-0.502-0.726c0.502-1.095,1.682-0.642,1.682-0.642
				c0.399,0.67-0.025,1.15-0.025,1.15l2.982-0.588c-0.549-0.216-0.676-0.725-0.676-0.725l0.1-0.508L534.231,95.73z M533.903,93.856
				c0,0,0.377-0.533,0.75-0.452c0,0,0.929,0.052,0.555,1.066c0,0-0.301,0.592-1.305,0.456V93.856z M530.086,96.049l0.33-0.937
				l0.424,0.722L530.086,96.049z"/>
		</g>
		<g>
			<defs>
				<rect id="SVGID_133_" width="720.239" height="181.918"/>
			</defs>
			<clipPath id="SVGID_134_">
				<use xlink:href="#SVGID_133_"  overflow="visible"/>
			</clipPath>
			<path clip-path="url(#SVGID_134_)" fill="#FFFFFF" d="M533.6,88.616c0.803-1.632-0.498-1.793-0.498-1.793l-2.783,0.479
				c0.271,0.244,0.32,0.512,0.32,0.512v2.754c-0.174,0.56-0.25,0.828-0.25,0.828l2.934-0.615
				C535.03,89.845,533.6,88.616,533.6,88.616 M531.393,87.758c0,0,0.679-0.749,1.508-0.241c0,0,0.553,0.483-0.354,1.124
				c0,0-0.726,0.377-1.102-0.025L531.393,87.758z M532.725,90.354c0,0-0.88,0.399-1.205,0.029v-0.994c0,0,1.309-0.748,1.701,0.028
				C533.221,89.417,533.6,90.06,532.725,90.354"/>
		</g>
		<g>
			<defs>
				<rect id="SVGID_135_" width="720.239" height="181.918"/>
			</defs>
			<clipPath id="SVGID_136_">
				<use xlink:href="#SVGID_135_"  overflow="visible"/>
			</clipPath>
			<path clip-path="url(#SVGID_136_)" fill="#FFFFFF" d="M535.808,83.88c-0.325-0.133-0.401-0.404-0.401-0.404l-1.205-1.385
				l0.633-1.741c0.121-0.267,0.352-0.479,0.352-0.479l-1.031,0.136c-0.148,0.265,0.148,0.396,0.148,0.396l-0.447,1.231l-0.682-0.881
				c0.178-0.351-0.1-0.534-0.1-0.534l-1.177,0.184c0.049,0.403,0.397,0.484,0.397,0.484l1.104,1.442l-0.498,1.444
				c-0.104,0.378-0.605,0.508-0.605,0.508c-0.474-0.051-0.727-0.533-0.727-0.533l-1.605-3.022c-0.125-0.188-0.379,0.08-0.379,0.08
				l-1.074,3.64c-0.076,0.559-0.451,0.854-0.451,0.854l1.131-0.054c-0.229-0.215-0.255-0.669-0.255-0.669
				c0.227-0.907,0.95-0.962,0.95-0.962c0.779-0.139,1.01,0.455,1.01,0.455c0.049,0.426-0.129,0.909-0.129,0.909l2.787-0.672
				c-0.152-0.237-0.074-0.615-0.074-0.615l0.375-0.721l0.549,0.562c0.129,0.348-0.051,0.618-0.051,0.618L535.808,83.88z
				 M529.584,82.945l0.254-0.588l0.248,0.533L529.584,82.945z"/>
		</g>
		<g>
			<defs>
				<rect id="SVGID_137_" width="720.239" height="181.918"/>
			</defs>
			<clipPath id="SVGID_138_">
				<use xlink:href="#SVGID_137_"  overflow="visible"/>
			</clipPath>
			<path clip-path="url(#SVGID_138_)" fill="#FFFFFF" d="M549.53,100.754l0.426,0.644l1.001,3.664
				c0.503,0.668,0.757,0.239,0.757,0.239l1.43-2.889l0.854-0.586l-1.456-0.348c0.301,0.318,0.1,0.747,0.1,0.747l-0.904,1.737
				l-0.728-2.166c0.1-0.48,0.481-0.641,0.481-0.641L549.53,100.754z"/>
		</g>
		<g>
			<defs>
				<rect id="SVGID_139_" width="720.239" height="181.918"/>
			</defs>
			<clipPath id="SVGID_140_">
				<use xlink:href="#SVGID_139_"  overflow="visible"/>
			</clipPath>
			<path clip-path="url(#SVGID_140_)" fill="#FFFFFF" d="M556.278,102.013c-0.902-0.431-1.656-0.134-1.656-0.134
				c-1.203,0.533-0.522,1.711-0.522,1.711c0.774,0.482,1.401,0.91,1.401,0.91c0.476,0.642,0,1.07,0,1.07
				c-0.705,0.4-1.205-0.107-1.205-0.107c-0.397-0.321-0.427-1.229-0.427-1.229c-0.228,0.269-0.425,0.748-0.45,0.935
				c0.728,1.473,2.634,0.724,2.634,0.724c0.927-1.097-0.029-2.005-0.029-2.005c-0.425-0.457-1.052-0.563-1.052-0.563
				c-0.752-0.854,0.305-1.177,0.305-1.177c0.675,0.079,1.027,0.804,1.027,0.804L556.278,102.013z"/>
		</g>
		<g>
			<defs>
				<rect id="SVGID_141_" width="720.239" height="181.918"/>
			</defs>
			<clipPath id="SVGID_142_">
				<use xlink:href="#SVGID_141_"  overflow="visible"/>
			</clipPath>
			<path clip-path="url(#SVGID_142_)" fill="#FFFFFF" d="M526.331,81.61l-2.513,0.613c0.478,0.188,0.681,0.641,0.681,0.641v2.488
				c-0.127,0.479-0.505,0.883-0.505,0.883l1.759-0.428c-0.377-0.084-0.555-0.401-0.555-0.401l0.051-0.856
				c0.127-0.294,0.453-0.319,0.453-0.319l0.5-0.029c1.104-0.371,1.203-1.094,1.203-1.094
				C527.708,81.394,526.331,81.61,526.331,81.61 M526.705,83.347c-0.327,0.508-1.306,0.532-1.306,0.532
				c-0.324,0-0.201-1.336-0.201-1.336c0.303-0.64,1.004-0.401,1.004-0.401C527.305,82.223,526.705,83.347,526.705,83.347"/>
		</g>
	</g>
	<path fill="#FFFFFF" d="M334.678,111.784"/>
</g>
</svg>
