<?xml version="1.0" encoding="utf-8"?>
<!-- Generator: Adobe Illustrator 15.1.0, SVG Export Plug-In . SVG Version: 6.00 Build 0)  -->
<!DOCTYPE svg PUBLIC "-//W3C//DTD SVG 1.1//EN" "http://www.w3.org/Graphics/SVG/1.1/DTD/svg11.dtd">
<svg version="1.1" xmlns="http://www.w3.org/2000/svg" xmlns:xlink="http://www.w3.org/1999/xlink" x="0px" y="0px" width="720px"
	 height="181.417px" viewBox="0 0 720 181.417" enable-background="new 0 0 720 181.417" xml:space="preserve">
<g id="Calque_2">
	<rect x="-0.12" y="-0.244" fill-rule="evenodd" clip-rule="evenodd" fill="#FFFFFF" width="720.239" height="181.919"/>
</g>
<g id="Calque_1">
	<g>
		<defs>
			<rect id="SVGID_1_" x="-0.12" y="-0.244" width="720.239" height="181.919"/>
		</defs>
		<clipPath id="SVGID_2_">
			<use xlink:href="#SVGID_1_"  overflow="visible"/>
		</clipPath>
		<path clip-path="url(#SVGID_2_)" fill-rule="evenodd" clip-rule="evenodd" fill="#CA342C" d="M-0.12,181.676h720.239V-0.244H-0.12
			V181.676z M350.869,56.065c1.354-2.878,3.439-3.976,6.558-3.439c1.154,0.198,2.371,0.032,3.56,0.032
			c0.121,0.155,0.243,0.311,0.364,0.465c-0.345,0.176-0.751,0.287-1.028,0.538c-2.164,1.953-4.284,3.957-6.469,5.887
			c-0.398,0.352-1.023,0.578-1.56,0.614c-1.3,0.088-2.608,0.028-4.153,0.028C349.145,58.7,350.206,57.478,350.869,56.065
			 M106.254,68.908c3.107-5.742,10.265-7.425,15.376-4.589c1.161,0.645,2.122,1.649,3.255,2.551V53.189h7.582v38.366h-7.006V88.27
			c-0.19-0.138-0.381-0.274-0.571-0.412c-0.129,0.331-0.188,0.716-0.398,0.983c-2.242,2.848-5.365,3.802-8.742,3.362
			c-6.918-0.897-10.96-5.632-11.476-12.666C103.999,75.776,104.456,72.234,106.254,68.908 M109.118,105.691
			c-1.403,1.339-2.613,2.494-3.822,3.647c-0.078-0.085-0.155-0.169-0.232-0.253C105.812,107.164,107.526,105.576,109.118,105.691
			 M31.874,77.682c-2.229,0.053-4.46,0.012-6.84,0.012v13.821h-8.227V53.156c0.402-0.019,0.789-0.055,1.177-0.056
			c5.115-0.003,10.233-0.088,15.346,0.04c2.086,0.051,4.236,0.314,6.227,0.915c6.242,1.878,8.365,7.78,7.698,12.786
			c-0.83,6.23-3.793,9.267-9.898,10.492C35.577,77.691,33.706,77.638,31.874,77.682 M48.719,114.522
			c-0.688-1.794-1.436-2.426-3.323-2.397c-0.739,0.012-1.568,0.093-2.184,0.444c-0.581,0.331-1.142,0.995-1.34,1.629
			c-0.262,0.838-0.098,1.779,0.862,2.256c1.244,0.615,2.512,1.185,3.758,1.793c2.133,1.043,2.7,1.877,2.556,3.701
			c-0.125,1.595-1.254,2.886-3.261,3.337c-2.106,0.474-4.217,0.492-5.92-1.202c-0.835-0.83-1.095-1.64-0.989-3.022
			c0.363-0.016,0.739-0.033,1.103-0.049c0.626,3.145,3.76,4.474,6.521,2.923c1.548-0.871,1.811-3.599-0.139-4.473
			c-1.342-0.603-2.716-1.142-4.024-1.81c-1.017-0.519-1.783-1.272-1.889-2.56c-0.128-1.564,0.56-2.593,1.863-3.306
			c2.122-1.16,5.339-0.932,6.67,0.607c0.579,0.669,0.859,1.597,1.274,2.408C50.075,114.962,48.846,114.854,48.719,114.522z
			 M64.266,114.457c-0.483-1.697-1.677-2.502-3.469-2.33c-0.704,0.068-1.435,0.173-2.083,0.435
			c-1.624,0.656-1.882,2.927-0.396,3.848c1.171,0.729,2.495,1.209,3.742,1.818c2.157,1.053,2.762,1.956,2.583,3.803
			c-0.149,1.535-1.386,2.909-3.326,3.292c-2.018,0.399-4.064,0.45-5.741-1.124c-0.868-0.816-1.254-1.813-1.147-3.141h1.14
			c0.392,3.191,2.623,3.868,6.049,3.045c0.925-0.224,1.566-0.886,1.692-1.936c0.143-1.194-0.195-2.149-1.315-2.683
			c-1.329-0.631-2.711-1.15-4.027-1.805c-1.367-0.683-2.159-1.781-1.878-3.386c0.092-0.522,0.279-1.1,0.609-1.496
			c1.843-2.215,6.253-2.382,8.025-0.26c0.532,0.637,0.729,1.556,1.104,2.4C64.891,115.273,64.475,115.194,64.266,114.457
			 M69.85,70.014c-1.238,0-2.463-0.097-3.667,0.017c-3.485,0.329-5.681,2.34-6.318,5.811c-0.222,1.206-0.262,2.456-0.274,3.688
			c-0.034,3.559-0.012,7.118-0.012,10.678v1.347h-7.474V63.707h6.981v4.757c1.567-1.431,2.964-2.989,4.636-4.155
			c1.769-1.235,3.887-1.579,6.128-1.083V70.014z M81.606,118.441c-0.417,1.937-0.913,3.857-1.289,5.802
			c-0.148,0.767-0.805,0.771-1.523,0.572l0.305-1.851c0,0-0.982,0.775-1.367,1.138c-1.508,1.418-3.296,1.706-5.214,1.205
			c-1.927-0.504-2.703-2.136-2.228-4.612c0.523-2.725,1.108-5.438,1.672-8.155c0.166-0.796,0.579-1.188,1.529-0.764
			c-0.502,2.324-1.039,4.662-1.501,7.017c-0.213,1.084-0.357,2.195-0.394,3.299c-0.048,1.418,0.758,2.127,2.192,2.298
			c3.145,0.372,4.959-1.508,5.757-3.828c0.884-2.571,1.376-5.283,1.955-7.951c0.188-0.866,0.536-1.168,1.498-0.897
			C82.534,113.968,82.086,116.208,81.606,118.441 M82.04,92.184c-0.594-0.057-1.201-0.06-1.78-0.19
			c-4.241-0.959-6.688-3.489-6.83-7.897c-0.218-6.743-0.057-13.497-0.057-20.386h7.326c0,0.476,0,0.9,0,1.326
			c0.006,5.197,0.01,10.396,0.021,15.592c0.001,0.438-0.004,0.888,0.083,1.312c0.671,3.326,2.087,4.524,5.267,4.498
			c3.082-0.026,4.984-1.599,5.516-4.71c0.213-1.248,0.256-2.536,0.265-3.808c0.031-4.276,0.012-8.556,0.012-12.833v-1.359h7.466
			v27.825H92.31v-4.012c-0.447,0.417-0.678,0.587-0.852,0.803C89.025,91.366,85.846,92.539,82.04,92.184 M95.523,112.654
			c-2.319-0.94-5.578,1.861-6.406,6.098c-0.402,2.059-0.864,4.105-1.311,6.208h-1.274c0.285-1.432,0.54-2.809,0.836-4.177
			c0.597-2.752,1.267-5.489,1.797-8.254c0.173-0.9,0.536-1.027,1.305-0.829c-0.124,0.856-0.241,1.662-0.396,2.725
			c1.672-1.701,3.03-3.59,5.768-2.9C95.733,111.911,95.625,112.297,95.523,112.654 M107.989,121.953
			c0.364-0.641,0.656-1.194,1.586-0.836c-0.647,2.813-2.986,4.459-6.165,4.387c-2.654-0.06-4.158-1.187-4.911-3.681
			c-1.022-3.387,0.701-8.091,3.71-9.86c2.818-1.656,7.2-1.194,8.117,2.735c0.273,1.172,0.15,2.436,0.216,3.809l-10.769,0.121
			c-0.604,1.938,0.012,4.699,1.933,5.443S106.518,124.55,107.989,121.953z M133.948,119.52c-0.261,1.522-1.133,5.442-1.133,5.442
			l-1.354,0.041c0,0,1.201-5.593,1.731-8.313c0.165-0.851,0.213-1.745,0.164-2.611c-0.059-1.046-0.746-1.655-1.76-1.808
			c-2.364-0.354-4.25,0.595-5.005,2.88c-0.893,2.702-2.434,9.262-2.56,9.813h-1.259c0.287-1.438,0.548-2.814,0.839-4.185
			c0.345-1.629,0.741-3.248,1.06-4.882c0.106-0.54,0.112-1.123,0.043-1.67c-0.227-1.813-2.041-2.623-3.989-1.746
			c-2.193,0.988-3.192,2.931-3.757,5.11c-0.547,2.111-1.717,7.204-1.717,7.204l-1.203,0.134c0,0,1.888-8.771,2.852-13.248
			c0.335-0.021,0.669-0.039,1.055-0.063c-0.033,0.674-0.199,1.608-0.199,1.608s2.606-1.862,4.553-2.025
			c2.869-0.24,3.821,2.713,3.821,2.713s0.972-1.295,1.626-1.766c1.391-1,3.06-1.206,4.601-0.942c1.382,0.236,2.428,1.423,2.34,2.896
			C134.591,115.916,134.257,117.723,133.948,119.52 M140.363,68.236c3.153-4.036,7.421-5.513,12.47-5.155
			c6.906,0.491,11.124,5.964,11.892,12.046c0.173,1.367,0.214,2.751,0.324,4.241h-20.143c-0.468,4.121,2.264,7.236,6.2,7.317
			c2.772,0.056,5.106-0.729,6.647-3.21c0.116-0.189,0.41-0.375,0.625-0.379c1.953-0.029,3.906-0.018,6.008-0.018
			c-1.255,3.717-3.283,6.637-6.919,8.064c-4.576,1.795-9.152,1.64-13.501-0.732c-3.73-2.034-5.672-5.401-6.389-9.492
			C136.774,76.328,137.435,71.984,140.363,68.236 M143.493,124.081c2.567,0.772,4.793,0.426,6.283-2.146
			c0.248-0.428,0.705-0.788,0.705-0.788s0.657-0.13,1.251-0.082c-0.701,2.058-2.194,3.709-4.352,4.2
			c-3.523,0.801-6.128-0.093-7.13-3.469c-0.994-3.35,0.69-7.967,3.641-9.787c2.752-1.697,7.267-1.267,8.154,2.606
			c0.283,1.236,0.249,3.95,0.249,3.95h-10.63C141.148,120.753,141.928,123.609,143.493,124.081 M168.275,115.88
			c-0.515,2.767-1.125,5.516-1.693,8.272c-0.179,0.871-0.669,1.091-1.514,0.701c0.592-2.751,1.214-5.488,1.753-8.243
			c0.166-0.848,0.187-1.747,0.127-2.612c-0.069-0.986-1.044-1.679-2.242-1.744c-2.759-0.151-4.898,1.164-5.725,3.87
			c-0.798,2.607-1.343,5.294-1.931,7.961c-0.181,0.819-0.54,1.094-1.483,0.834c0.281-1.361,0.557-2.74,0.849-4.115
			c0.587-2.753,1.192-5.5,1.768-8.256c0.152-0.727,0.404-1.197,1.27-0.842v1.931c0.539-0.43,0.967-0.718,1.332-1.071
			c1.493-1.445,3.29-1.73,5.206-1.265C167.945,111.776,168.739,113.379,168.275,115.88 M177.492,112.764
			c-0.645,3.002-1.367,6.086-1.954,9.194c-0.364,1.924-0.106,2.138,1.815,2.186c0.235,0.005,0.468,0.039,0.796,0.067
			c-0.059,0.312-0.09,0.787-0.157,0.793c-0.968,0.073-1.982,0.255-2.894,0.034c-0.422-0.102-0.964-1.054-0.905-1.558
			c0.24-2.08,0.682-4.138,1.065-6.201c0.281-1.509,0.585-3.012,0.903-4.642c-0.866-0.056-1.568-0.1-2.358-0.149
			c0.399-1.667,1.823-0.404,2.659-1.194c0.266-1.151,0.584-2.525,0.916-3.962c0.443,0.022,0.82,0.041,1.247,0.063
			c-0.275,1.409-0.528,2.707-0.805,4.131c1.028,0.05,1.845,0.09,2.876,0.141C179.867,113.186,178.482,112.157,177.492,112.764
			 M188.343,90.304c-0.005-5.198-0.01-10.395-0.021-15.592c-0.001-0.438,0.015-0.888-0.067-1.314
			c-0.8-4.187-4.563-5.937-8.311-3.809c-2.215,1.26-2.683,3.499-2.723,5.775c-0.087,4.916-0.037,9.834-0.043,14.751
			c0,0.438,0,0.874,0,1.404h-7.483V63.701h7.035v3.722c0.1,0.032,0.2,0.064,0.299,0.097c0.221-0.241,0.451-0.476,0.66-0.728
			c2.413-2.901,5.535-4.041,9.244-3.712c0.634,0.058,1.273,0.096,1.896,0.215c4.959,0.948,6.618,4.295,6.784,8.055
			c0.292,6.583,0.206,13.182,0.274,19.773c0.001,0.113-0.045,0.229-0.084,0.414h-7.461
			C188.343,91.143,188.343,90.724,188.343,90.304 M201.742,112.683c-2.828-0.278-4.879,2.032-5.578,5.055
			c-0.277,1.198-0.492,2.408-0.755,3.609c-0.262,1.195-0.548,2.387-0.834,3.624h-1.243c0.279-1.423,0.52-2.766,0.808-4.1
			c0.611-2.83,1.282-5.646,1.85-8.486c0.183-0.913,0.651-0.812,1.28-0.683c-0.123,0.872-0.237,1.681-0.363,2.571
			c3.333-2.984,3.563-3.096,6.059-2.705C202.432,112.073,202.054,112.713,201.742,112.683 M201.18,76.796
			c0.208-3.305,1.088-6.36,3.197-8.973c2.305-2.857,5.348-4.284,8.966-4.7c3.011-0.346,5.888,0.044,8.643,1.249
			c3.75,1.641,6.349,5.368,6.269,8.954h-7.145c-1.246-3.973-4.223-5.684-7.849-4.453c-2.437,0.827-3.585,2.791-4.191,5.146
			c-0.701,2.723-0.707,5.45,0.194,8.126c1.092,3.245,3.183,4.673,6.476,4.533c2.727-0.117,4.712-1.987,5.473-5.155
			c0.027-0.11,0.074-0.215,0.137-0.396h7.094c-0.513,3.785-2.08,6.858-5.242,8.95c-5.225,3.455-13.939,2.958-18.4-1.998
			C201.903,84.859,200.914,81.038,201.18,76.796 M215.653,105.685c-1.169,1.294-2.212,2.666-3.61,3.636
			c-0.112-0.112-0.223-0.225-0.334-0.338c0.816-1.044,1.579-2.135,2.478-3.103C214.459,105.587,215.105,105.642,215.653,105.685
			 M217.174,118.527h-10.549c-0.798,3.145,0.774,5.301,2.35,5.747c2.402,0.68,4.7-0.237,5.907-2.445
			c0.446-0.814,0.446-0.814,1.566-0.718c-0.704,2.055-1.874,3.667-4.034,4.156c-3.521,0.796-6.125-0.093-7.125-3.477
			c-0.992-3.353,0.69-7.979,3.648-9.782c2.798-1.705,7.278-1.293,8.197,2.722C217.4,115.893,217.174,117.165,217.174,118.527
			 M233.111,117.947c-0.453,2.091-0.943,4.175-1.35,6.275c-0.142,0.734-0.461,0.945-1.218,0.716v-1.961
			c-0.549,0.446-0.977,0.752-1.355,1.111c-1.502,1.428-3.292,1.718-5.211,1.227c-1.92-0.489-2.692-1.981-2.251-4.478
			c0.495-2.811,1.13-5.596,1.702-8.392c0.165-0.806,0.629-1.037,1.504-0.679c-0.5,2.318-1.033,4.654-1.495,7.004
			c-0.213,1.085-0.362,2.195-0.401,3.299c-0.05,1.432,0.739,2.147,2.171,2.317c3.115,0.364,4.918-1.396,5.769-3.807
			c0.904-2.562,1.38-5.281,1.962-7.949c0.185-0.849,0.5-1.201,1.516-0.91C234.006,113.798,233.562,115.873,233.111,117.947
			 M250.592,115.93c-0.521,2.725-1.108,5.438-1.673,8.154c-0.164,0.789-0.572,1.192-1.529,0.788c0.59-2.771,1.197-5.476,1.726-8.194
			c0.166-0.85,0.201-1.742,0.158-2.609c-0.05-1.009-0.996-1.679-2.176-1.823c-3.141-0.381-4.954,1.485-5.76,3.818
			c-0.888,2.57-1.374,5.285-1.958,7.952c-0.187,0.852-0.51,1.198-1.491,0.887c0.449-2.196,0.883-4.398,1.354-6.592
			c0.425-1.977,0.93-3.936,1.32-5.917c0.148-0.759,0.487-0.917,1.201-0.707v1.989c0.567-0.468,0.996-0.781,1.379-1.143
			c1.505-1.421,3.295-1.709,5.213-1.212C250.287,111.822,251.066,113.449,250.592,115.93 M236.9,89.482
			c-2.934-2.049-4.404-5.099-5.002-8.559c-0.796-4.593-0.146-8.936,2.782-12.684c3.153-4.036,7.419-5.517,12.468-5.159
			c6.926,0.49,11.13,5.979,11.897,12.041c0.173,1.368,0.214,2.752,0.325,4.243h-20.139c-0.486,4.107,2.256,7.238,6.191,7.32
			c2.771,0.057,5.103-0.729,6.652-3.205c0.129-0.207,0.485-0.38,0.739-0.384c1.914-0.033,3.829-0.019,5.884-0.019
			c-1.075,3.299-2.768,6.064-5.835,7.535C247.392,93.239,241.957,93.019,236.9,89.482 M256.347,124.941h-1.31
			c0.691-3.232,1.36-6.367,2.031-9.503c0.207-0.97,0.465-1.931,0.617-2.909c0.131-0.845,0.556-1.073,1.504-0.8
			C258.244,116.123,257.297,120.522,256.347,124.941 M259.89,108.349h-1.148c0.212-2.206,0.161-2.762,1.657-2.352
			C260.233,106.764,260.065,107.536,259.89,108.349 M272.153,124.522c-1.801,1.262-5.66,1.459-6.964,0.018
			c-0.772-0.854-1.634-1.871-1.848-2.937c-0.711-3.562,0.551-7.86,3.994-9.712c2.652-1.428,7.358-1.204,8.345,2.757
			c0.162,0.647,0.172,1.333,0.225,1.773C275.771,119.817,274.891,122.606,272.153,124.522 M292.588,115.949
			c-0.526,2.725-1.11,5.439-1.673,8.155c-0.168,0.812-0.6,1.166-1.523,0.753c0.593-2.776,1.201-5.48,1.732-8.2
			c0.165-0.849,0.195-1.744,0.148-2.61c-0.055-0.998-1.018-1.657-2.195-1.804c-3.181-0.392-5.009,1.625-5.748,3.839
			c-0.863,2.582-1.372,5.285-1.95,7.954c-0.191,0.882-0.563,1.138-1.499,0.886c0.469-2.27,0.921-4.512,1.399-6.748
			c0.406-1.899,0.857-3.787,1.253-5.689c0.146-0.701,0.415-1.093,1.244-0.778v1.978c0.566-0.475,0.996-0.796,1.382-1.165
			c1.468-1.401,3.24-1.666,5.11-1.239C292.26,111.734,293.076,113.429,292.588,115.949 M309.636,115.793
			c-0.495,2.811-1.13,5.597-1.703,8.393c-0.165,0.806-0.629,1.037-1.504,0.679c0.5-2.319,1.034-4.655,1.495-7.006
			c0.214-1.085,0.363-2.195,0.401-3.298c0.05-1.433-0.74-2.147-2.172-2.315c-3.118-0.367-4.922,1.403-5.769,3.808
			c-0.902,2.563-1.379,5.28-1.961,7.949c-0.185,0.851-0.504,1.198-1.517,0.909c0.449-2.08,0.894-4.155,1.345-6.229
			c0.453-2.092,0.946-4.176,1.35-6.275c0.143-0.743,0.47-0.936,1.217-0.718v1.967c0.548-0.447,0.976-0.753,1.354-1.111
			c1.502-1.428,3.292-1.719,5.211-1.229C309.304,111.806,310.076,113.295,309.636,115.793 M312.636,82.783
			c-2.609,5.915-7.228,9.043-13.623,9.589c-6.147,0.524-11.55-1.1-15.782-5.768c-2.824-3.113-4.247-6.872-4.73-11.023
			c-0.606-5.215,0.07-10.204,2.792-14.754c3.159-5.278,7.922-8.005,14.036-8.503c4.839-0.393,9.291,0.545,13.138,3.627
			c3.146,2.522,4.751,5.901,5.312,9.957h-7.929c-1.306-4.314-4.055-6.515-8.485-6.82c-3.827-0.264-7.621,1.952-9.218,5.653
			c-2.114,4.899-2.237,9.942-0.187,14.874c2.248,5.41,7.53,6.945,12.281,5.491c3.413-1.045,4.98-3.825,5.638-7.131
			c0.185-0.928,0.523-1.157,1.394-1.136c2.192,0.054,4.386,0.018,6.695,0.018C314.042,79.019,313.449,80.942,312.636,82.783
			 M326.226,124.313c-0.367,0.398-0.573,0.834-0.857,0.893c-1.366,0.282-1.601,0.052-2.213-2.034
			c-0.329,0.305-0.597,0.545-0.857,0.793c-2.065,1.964-5.682,2.144-7.396,0.366c-1.499-1.553-1.158-4.714,0.809-5.556
			c1.643-0.703,6.134-1.344,6.573-1.367c2.233-0.11,3.376-1.843,2.529-3.926c-0.161-0.396-0.599-0.76-0.999-0.965
			c-2.554-1.31-5.76,0.048-6.591,2.794h-1.247c0.228-1.443,0.848-2.511,2.032-3.263c1.777-1.129,3.732-1.158,5.656-0.723
			c2.377,0.539,3.053,1.857,2.508,4.435c-0.47,2.214-0.983,4.416-1.479,6.622C324.354,123.889,324.429,124.007,326.226,124.313
			 M331.927,125.023c-0.473-0.027-0.848-0.048-1.282-0.074c0.912-4.311,1.778-8.505,2.725-12.679
			c0.077-0.341,1.305-0.629,1.419-0.528C333.84,116.145,332.891,120.547,331.927,125.023 M335.488,108.343h-1.16
			c0.243-2.13,0.125-2.761,1.675-2.34C335.835,106.772,335.662,107.547,335.488,108.343 M336.976,70.016
			c-1.265,0-2.493-0.093-3.701,0.017c-3.409,0.309-5.631,2.313-6.277,5.718c-0.242,1.281-0.274,2.615-0.285,3.926
			c-0.036,3.916-0.013,7.833-0.013,11.885h-7.484V63.741h7.014v4.81c0.085,0.064,0.169,0.13,0.254,0.193
			c2.39-3.994,5.694-6.172,10.493-5.59V70.016z M348.225,114.458c-0.59-1.677-1.703-2.494-3.495-2.331
			c-0.703,0.063-1.433,0.171-2.083,0.432c-1.631,0.651-1.904,2.918-0.421,3.843c1.171,0.729,2.495,1.209,3.742,1.819
			c2.169,1.058,2.769,1.945,2.596,3.796c-0.145,1.545-1.364,2.879-3.315,3.304c-1.641,0.358-3.327,0.411-4.881-0.478
			c-1.402-0.803-2.107-1.995-2.05-3.756c0.408-0.032,0.782-0.063,1.154-0.094c0.427,3.261,2.589,3.924,6.052,3.112
			c0.928-0.217,1.575-0.877,1.703-1.924c0.146-1.191-0.176-2.156-1.301-2.691c-1.147-0.546-2.348-0.981-3.495-1.528
			c-2.036-0.969-2.608-1.896-2.43-3.776c0.12-1.289,1.321-2.576,3.106-2.886c1.959-0.34,4.055-0.606,5.526,1.227
			c0.525,0.654,0.738,1.559,1.095,2.35C349.541,115.021,348.349,114.811,348.225,114.458z M351.676,86.676
			c2.891,0.13,5.37-0.602,6.984-3.241c0.123-0.2,0.503-0.337,0.767-0.341c1.877-0.029,3.754-0.017,5.901-0.017
			c-0.434,0.98-0.756,1.852-1.189,2.661c-2.11,3.943-5.443,5.969-9.873,6.414c-4.012,0.404-7.725-0.265-10.953-2.759
			c-3.08-2.376-4.54-5.667-4.999-9.464c-0.529-4.386,0.279-8.452,3.107-11.921c3.14-3.854,7.32-5.258,12.222-4.938
			c6.928,0.453,11.221,5.963,11.968,12.104c0.163,1.337,0.214,2.686,0.331,4.226H345.84
			C345.152,83.125,347.916,86.508,351.676,86.676 M398.326,79.05c-0.226,3.023-1.066,5.799-2.947,8.194
			c-2.352,2.992-5.503,4.51-9.248,4.884c-0.676,0.067-1.349,0.157-1.817,0.212c-7.204-0.235-12.89-3.581-14.208-11.651
			c-0.95-5.81,0.186-11.206,5.21-15.016c3.169-2.403,6.867-2.979,10.781-2.542c4.161,0.465,7.567,2.211,9.884,5.748
			C397.996,71.957,398.598,75.399,398.326,79.05 M411.346,91.519h-7.41V53.15h7.41V91.519z M429.964,86.68
			c2.896,0.114,5.365-0.638,6.958-3.289c0.104-0.177,0.442-0.297,0.674-0.299c1.916-0.023,3.832-0.014,5.892-0.014
			c-1.055,3.297-2.749,6.061-5.811,7.525c-5.606,2.686-11.172,2.451-16.241-1.335c-3.297-2.463-4.607-6.068-4.945-10.105
			c-0.34-4.066,0.507-7.802,3.051-11.005c3.152-3.97,7.389-5.429,12.39-5.08c6.922,0.482,11.138,5.963,11.913,12.026
			c0.175,1.37,0.217,2.755,0.331,4.288h-20.131C423.513,83.303,426.203,86.528,429.964,86.68 M541.858,149.795
			c-2.5,0.086-2.499,0.114-2.499,2.654v11.917c-1.102-0.848-2.061-1.568-2.997-2.316c-0.469-0.372-0.835-0.509-1.309,0.043
			c-2.701,3.147-6.119,3.287-9.727,2.108c-3.852-1.26-6.018-4.219-7.27-7.89c-1.986-5.821-1.832-11.543,1.3-16.959
			c2.756-4.769,8.191-6.866,13.165-5.14c1.103,0.384,2.088,1.097,3.327,1.765c0.875-0.607,1.972-1.368,3.19-2.214v10.613
			l-0.243,0.158c-0.188-0.291-0.454-0.558-0.552-0.878c-0.685-2.229-1.558-4.367-3.095-6.156c-2.031-2.362-4.548-3.456-7.677-2.685
			c-1.892,0.466-3.243,1.746-3.851,3.483c-0.766,2.193-1.467,4.495-1.64,6.792c-0.318,4.208-0.473,8.461,0.597,12.622
			c0.178,0.689,0.431,1.371,0.733,2.018c1.892,4.05,5.962,5.148,9.666,2.621c1.262-0.861,1.989-1.95,1.927-3.599
			c-0.101-2.636-0.051-5.277-0.014-7.917c0.011-0.766-0.211-1.109-1.012-1.063c-0.756,0.044-1.521-0.017-2.279,0.012
			c-0.79,0.03-0.992-0.32-0.729-1.123h11.724C542.854,149.41,542.737,149.766,541.858,149.795 M564.762,164.495h-21.883
			c-0.025-0.334-0.052-0.708-0.09-1.23h4.031v-27.941h-3.502v-1.31h21.1v10.447c-0.115,0.022-0.23,0.044-0.346,0.066
			c-0.124-0.42-0.271-0.836-0.367-1.261c-0.193-0.854-0.311-1.724-0.544-2.563c-1.059-3.823-3.131-5.379-7.128-5.392
			c-1.435-0.003-2.869-0.001-4.436-0.001v12.673c3.682,0.639,5.949-1.114,6.57-5.008c0.05-0.319,0.296-0.606,0.45-0.908
			c0.124,0.088,0.247,0.175,0.37,0.263v13.531c-0.081,0.061-0.163,0.121-0.244,0.181c-0.195-0.217-0.491-0.402-0.568-0.655
			c-0.229-0.761-0.313-1.565-0.556-2.318c-0.911-2.82-2.895-3.95-6.054-3.425v13.765c2.434-0.176,4.822-0.198,7.156-0.566
			c1.848-0.292,3.143-1.617,3.74-3.384c0.594-1.763,0.946-3.604,1.445-5.4c0.077-0.28,0.367-0.5,0.56-0.747
			c0.098,0.064,0.196,0.13,0.294,0.195V164.495z M616.329,164.512h-21.857v-1.235h3.922V135.38c-1.847,0-3.681-0.143-5.482,0.043
			c-1.503,0.155-2.186,1.223-2.187,2.814c-0.006,8.318-0.003,16.635-0.003,24.952v1.288c-0.113,0.052-0.227,0.104-0.339,0.156
			c-2.811-4.015-5.621-8.028-8.429-12.044c-2.778-3.974-5.553-7.95-8.329-11.926c-0.117,0.039-0.235,0.079-0.354,0.119
			c-0.021,0.407-0.063,0.816-0.063,1.224c-0.008,5.719,0.085,11.438-0.052,17.154c-0.066,2.787,1.006,3.672,3.561,4.352
			c0.478,0.127,1.46-0.157,1.212,1.021h-10.52c-0.07-0.081-0.141-0.163-0.211-0.245c0.236-0.209,0.438-0.499,0.714-0.611
			c0.914-0.377,1.897-0.604,2.771-1.051c0.953-0.485,1.39-1.376,1.389-2.475c-0.007-7.357,0.004-14.716-0.01-22.073
			c-0.003-1.732-0.911-2.672-2.627-2.761c-0.831-0.043-1.665-0.008-2.558-0.008c-0.032-0.516-0.053-0.86-0.082-1.347
			c2.533,0,5.003-0.034,7.469,0.04c0.345,0.012,0.749,0.516,0.998,0.879c4.397,6.43,8.773,12.874,13.162,19.311
			c0.25,0.367,0.56,0.69,0.842,1.034l0.328-0.114v-1.246c0-5.078,0.001-10.156-0.001-15.235c0-2.328-0.851-3.203-3.227-3.338
			c-0.475-0.025-0.947-0.066-1.49-0.106c-0.027-0.384-0.052-0.728-0.081-1.152h31.25v10.408c-0.104,0.03-0.208,0.059-0.313,0.087
			c-0.147-0.392-0.332-0.775-0.438-1.178c-0.316-1.188-0.541-2.402-0.909-3.572c-0.757-2.411-2.313-4.023-4.913-4.278
			c-2.091-0.205-4.2-0.223-6.397-0.327v12.729c2.952,0.871,5.354-0.514,6.328-3.642c0.143-0.454,0.193-0.94,0.354-1.387
			c0.097-0.27,0.323-0.493,0.491-0.737c0.123,0.284,0.346,0.567,0.352,0.854c0.034,1.6,0.017,3.199,0.017,4.799v8.027
			c-0.094,0.071-0.188,0.142-0.282,0.212c-0.204-0.233-0.506-0.434-0.595-0.706c-0.319-0.979-0.479-2.018-0.859-2.97
			c-0.971-2.425-2.854-2.945-5.251-2.809c-0.228,0.014-0.61,0.505-0.612,0.777c-0.04,4.078-0.04,8.157,0.002,12.236
			c0.003,0.247,0.437,0.704,0.663,0.699c1.99-0.036,3.988-0.068,5.965-0.275c2.024-0.212,3.526-1.377,4.243-3.259
			c0.616-1.62,0.93-3.354,1.407-5.028c0.149-0.521-0.072-1.383,1.03-1.262V164.512z M686.176,164.53h-27.455v-1.265h3.43
			c-0.224-0.627-0.378-1.1-0.559-1.561c-0.783-2.003-1.535-4.02-2.395-5.99c-0.172-0.392-0.76-0.843-1.167-0.853
			c-2.878-0.074-5.759-0.068-8.637-0.005c-0.383,0.008-0.967,0.404-1.097,0.754c-0.557,1.485-1.039,3.005-1.43,4.542
			c-0.487,1.924,0.313,2.934,2.314,3.085c0.232,0.018,0.465,0.029,0.754,0.046v1.06c-3.229,0-6.42,0.147-9.59-0.052
			c-2.132-0.134-3.542-1.881-3.692-4.073c-0.143-2.069-0.17-4.147-0.247-6.222c-0.104-2.738-1.668-4.271-4.394-4.284
			c-1.56-0.007-3.119,0.012-4.679,0.021c-0.073,0-0.146,0.044-0.308,0.096v13.363h3.7v1.332h-12.259v-1.271h3.866
			c0.03-0.513,0.077-0.936,0.077-1.357c0.005-8.438-0.014-16.877,0.025-25.315c0.004-1.043-0.267-1.457-1.343-1.346
			c-0.826,0.085-1.669,0.017-2.614,0.017c-0.023-0.449-0.042-0.815-0.067-1.296h2.48c4.239,0,8.479-0.042,12.718,0.026
			c1.258,0.021,2.545,0.226,3.761,0.56c5.581,1.529,6.012,7.797,3.303,11.075c-0.979,1.185-2.483,1.939-3.771,2.857
			c-0.34,0.241-0.764,0.363-1.415,0.664c0.688,0.201,1.088,0.321,1.488,0.436c2.427,0.694,3.685,2.052,3.879,4.576
			c0.195,2.543,0.157,5.104,0.284,7.654c0.022,0.449,0.251,1.134,0.567,1.264c0.433,0.179,1.265,0.125,1.53-0.176
			c0.717-0.814,1.429-1.74,1.783-2.749c3.025-8.595,5.963-17.222,8.961-25.826c0.156-0.449,0.553-0.962,0.968-1.137
			c0.63-0.268,1.043,0.128,1.297,0.81c2.302,6.195,4.638,12.378,6.968,18.564c1.18,3.13,2.411,6.242,3.527,9.395
			c0.347,0.981,0.802,1.452,1.866,1.305c0.577-0.08,1.175-0.015,1.828-0.015v-27.949h-3.723c-0.027-0.5-0.045-0.847-0.069-1.265
			h12.573c0.017,0.356,0.033,0.696,0.056,1.188h-3.802v28.25c1.84-0.283,3.626-0.398,5.313-0.865
			c1.781-0.495,2.778-1.993,3.328-3.678c0.453-1.39,0.657-2.859,1.042-4.274c0.134-0.492-0.126-1.454,1.022-1.172V164.53z
			 M701.125,163.211v1.315H689.03c-0.026-0.372-0.056-0.747-0.097-1.296h3.808v-27.948h-3.714c-0.022-0.481-0.041-0.847-0.062-1.271
			h12.093c0.343,0.869,0.133,1.285-0.845,1.248c-0.914-0.033-1.83-0.008-2.837-0.008v27.959H701.125z M701.525,124.206H517.891
			c-0.021-0.436-0.057-0.824-0.057-1.213c-0.004-15.079,0.009-30.157-0.031-45.236c-0.002-0.993,0.3-1.395,1.225-1.614
			c2.553-0.607,5.087-1.288,7.627-1.946c0.34-0.088,0.671-0.211,0.922-0.291c-0.479-1.622-1.127-3.038-1.286-4.506
			c-0.392-3.601,1.895-6.482,5.554-7.169c1.271-0.238,2.313-0.618,3.293-1.579c1.693-1.659,3.927-1.604,6.095-1.189
			c2.448,0.468,4.521,1.745,6.44,3.286c0.274,0.221,0.548,0.44,0.967,0.776c1.363-2.186,2.681-4.299,4.035-6.471
			c-0.268-0.285-0.483-0.566-0.75-0.786c-1.135-0.94-1.871-2.12-1.327-3.564c0.531-1.405,1.888-1.847,3.291-2.032
			c1.813-0.239,3.648-0.382,5.433-0.76c0.853-0.181,1.711-0.695,2.373-1.278c0.441-0.388,0.713-1.155,0.753-1.771
			c0.075-1.155-1.009-1.817-2.031-1.263c-1.367,0.739-2.661,1.612-4.007,2.396c-1.618,0.943-3.354,1.309-5.162,0.688
			c-2.339-0.803-3.325-2.877-2.684-5.244c0.123-0.452,0.019-1.086-0.22-1.497c-1.05-1.814-0.919-3.391,0.267-5.123
			c1.595-2.329,3.018-4.776,4.58-7.127c2.048-3.079,3.8-6.461,6.323-9.095c5.085-5.309,11.435-5.784,18.131-3.436
			c5.531,1.939,9.521,5.57,11.819,11.001c0.078,0.182,0.164,0.363,0.261,0.536c0.057,0.101,0.146,0.185,0.353,0.442
			c0.202-0.413,0.377-0.732,0.519-1.065c1.994-4.698,5.356-7.769,10.459-8.721c0.854-0.16,1.749-0.138,2.625-0.138
			c30.158-0.007,60.314-0.006,90.471-0.006h0.961c-0.796,5.034-6.104,10.51-11.406,11.674c-1.579,0.346-3.229,0.41-4.853,0.518
			c-0.656,0.044-1.096,0.164-1.422,0.806c-2.455,4.829-6.372,7.861-11.742,8.383c-2.284,0.223-3.336,1.158-4.472,2.899
			c-2.519,3.864-6.255,5.941-10.851,6.397c-1.388,0.137-2.786,0.212-4.18,0.216c-8.039,0.019-16.078,0.009-24.117,0.009h-1.474
			v4.282c0.967,0.107,1.98,0.258,3,0.327c6.289,0.424,12.583,0.793,18.869,1.257c5.2,0.383,10.422,0.68,15.417,2.401
			c6.713,2.314,11.433,6.979,15.125,12.85c3.673,5.841,6.188,12.22,8.683,18.611c0.868,2.226,1.894,4.39,2.806,6.599
			c0.308,0.746,0.671,0.872,1.465,0.641c2.334-0.68,4.688-0.685,6.812,0.649c0.886,0.556,1.769,1.327,2.289,2.212
			c1.604,2.732,3.271,5.397,5.53,7.647c0.104,0.102,0.155,0.255,0.287,0.478c-2.67,0.584-5.214,1.376-7.928,0.991
			c-3.747-0.533-6.592-2.583-8.468-5.689c-2.073-3.432-3.726-7.12-5.558-10.698c-0.126-0.247-0.208-0.518-0.335-0.766
			c-0.068-0.134-0.187-0.243-0.431-0.551c-0.033,0.595-0.079,1.003-0.079,1.411c-0.003,4.719-0.044,9.439,0.021,14.158
			c0.03,2.112-0.813,3.664-2.628,4.602c-1.766,0.912-3.623,1.644-5.44,2.454c-0.427,0.188-0.854,0.375-1.279,0.563
			c0.013,0.108,0.025,0.217,0.038,0.325h32.734V124.206z"/>
		<path clip-path="url(#SVGID_2_)" fill-rule="evenodd" clip-rule="evenodd" fill="#FFFFFF" d="M527.576,73.905
			c-0.479-1.622-1.127-3.038-1.285-4.506c-0.393-3.601,1.894-6.481,5.553-7.169c1.271-0.238,2.313-0.618,3.293-1.579
			c1.693-1.659,3.927-1.604,6.095-1.189c2.448,0.467,4.521,1.746,6.441,3.287c0.273,0.219,0.547,0.439,0.966,0.775
			c1.363-2.186,2.681-4.3,4.036-6.472c-0.269-0.284-0.484-0.565-0.75-0.786c-1.136-0.938-1.872-2.119-1.328-3.563
			c0.531-1.406,1.888-1.848,3.291-2.033c1.813-0.24,3.648-0.381,5.433-0.759c0.854-0.182,1.711-0.696,2.373-1.279
			c0.441-0.387,0.713-1.154,0.753-1.771c0.075-1.155-1.009-1.817-2.03-1.264c-1.367,0.739-2.662,1.613-4.008,2.397
			c-1.617,0.943-3.354,1.307-5.162,0.687c-2.339-0.803-3.325-2.877-2.684-5.243c0.123-0.453,0.02-1.086-0.22-1.497
			c-1.05-1.814-0.918-3.392,0.267-5.123c1.595-2.329,3.018-4.776,4.58-7.127c2.048-3.08,3.8-6.461,6.323-9.096
			c5.085-5.308,11.435-5.783,18.131-3.436c5.531,1.939,9.521,5.571,11.82,11.001c0.077,0.183,0.163,0.363,0.26,0.536
			c0.057,0.101,0.146,0.185,0.353,0.443c0.202-0.414,0.377-0.732,0.519-1.065c1.995-4.698,5.356-7.769,10.459-8.721
			c0.854-0.16,1.749-0.139,2.625-0.139c30.158-0.006,60.314-0.005,90.471-0.005h0.961c-0.796,5.034-6.104,10.509-11.406,11.673
			c-1.579,0.347-3.229,0.411-4.853,0.519c-0.656,0.043-1.095,0.164-1.422,0.806c-2.455,4.828-6.372,7.86-11.742,8.383
			c-2.284,0.223-3.336,1.157-4.471,2.899c-2.52,3.864-6.256,5.94-10.852,6.396c-1.388,0.138-2.786,0.212-4.18,0.216
			c-8.039,0.021-16.078,0.01-24.117,0.01h-1.474v4.282c0.967,0.108,1.98,0.258,3,0.326c6.289,0.425,12.583,0.793,18.87,1.257
			c5.199,0.384,10.421,0.681,15.417,2.402c6.712,2.314,11.432,6.979,15.125,12.85c3.672,5.841,6.187,12.22,8.682,18.611
			c0.868,2.226,1.894,4.39,2.806,6.599c0.308,0.745,0.672,0.871,1.465,0.642c2.335-0.681,4.688-0.686,6.812,0.648
			c0.886,0.556,1.769,1.326,2.289,2.212c1.604,2.732,3.271,5.397,5.531,7.647c0.103,0.102,0.154,0.255,0.286,0.478
			c-2.67,0.584-5.214,1.376-7.928,0.99c-3.747-0.532-6.592-2.583-8.468-5.688c-2.073-3.433-3.725-7.119-5.557-10.698
			c-0.126-0.247-0.208-0.518-0.335-0.766c-0.069-0.134-0.188-0.243-0.432-0.551c-0.033,0.595-0.079,1.003-0.079,1.41
			c-0.003,4.72-0.044,9.441,0.021,14.159c0.031,2.112-0.813,3.664-2.628,4.602c-1.766,0.912-3.623,1.645-5.44,2.453
			c-0.427,0.19-0.854,0.376-1.279,0.565c0.013,0.107,0.025,0.216,0.038,0.324h32.734v9.341H517.891
			c-0.021-0.437-0.057-0.825-0.057-1.214c-0.004-15.078,0.009-30.157-0.031-45.236c-0.002-0.994,0.3-1.395,1.225-1.615
			c2.553-0.606,5.087-1.287,7.627-1.945C526.994,74.108,527.325,73.985,527.576,73.905 M659.646,22.756h-1.689
			c-17.998,0-35.997,0.06-53.995-0.035c-5.718-0.031-9.303,3.849-10.409,7.887c-1.715,6.258-3.532,12.489-5.256,18.744
			c-0.084,0.303,0.201,0.873,0.488,1.086c1.797,1.33,3.118,2.967,3.619,5.187c1.049,4.645-0.725,9.011-4.772,11.756
			c-0.556,0.375-1.131,0.719-1.679,1.065c0.054,0.16,0.066,0.242,0.104,0.31c2.879,5.079-0.251,10.819-5.177,11.902
			c-0.263,0.058-0.646,0.169-0.724,0.357c-0.667,1.638-1.737,3.277-1.817,4.956c-0.242,5.029-0.08,10.075-0.093,15.115
			c-0.006,2.281-1.283,3.847-3.54,4.295c-0.736,0.147-1.506,0.127-2.261,0.174c-2.796,0.172-4.361,1.775-4.29,4.545
			c0.029,1.104,0.228,2.222,0.519,3.286c0.113,0.412,0.671,0.951,1.073,0.994c2.621,0.284,4.979-0.271,6.8-2.396
			c0.332-0.389,0.953-0.673,1.472-0.731c1.582-0.18,3.192-0.141,4.769-0.346c2.084-0.271,2.591-0.966,2.707-3.096
			c0.041-0.742,0.159-1.51,0.414-2.202c0.33-0.896,0.938-3.726,0.805-4.68c-0.65-4.631,0.066-9.136,1.157-13.623
			c0.215-0.879,0.541-1.127,1.442-1.071c4.534,0.278,9.013-0.163,13.387-1.398c4.908-1.386,9.754-3.016,14.705-4.219
			c2.837-0.689,5.832-1.043,8.749-1.003c3.571,0.049,6.798,1.551,9.762,3.562c3.002,2.039,6.309,3.376,9.829,4.251
			c5.321,1.323,10.741,1.938,16.188,2.354c3.295,0.252,5.439,2.12,5.853,5.395c0.34,2.69,0.581,5.393,0.918,8.084
			c0.098,0.775-0.297,0.956-0.904,1.088c-2.957,0.639-5.911,1.291-8.864,1.946c-1.786,0.396-2.831,1.495-2.646,3.277
			c0.146,1.384,0.728,2.729,1.186,4.067c0.282,0.82,0.833,0.967,1.693,0.631c3.784-1.479,7.606-2.869,11.397-4.336
			c1.075-0.416,2.151-0.894,3.107-1.524c0.438-0.288,0.832-1.013,0.834-1.541c0.04-8.037,0.013-16.076-0.01-24.115
			c-0.001-0.433-0.008-0.911-0.182-1.288c-0.822-1.773-1.681-3.53-2.585-5.264c-0.15-0.288-0.566-0.562-0.896-0.615
			c-2.201-0.364-4.413-0.661-6.62-0.988c-6.473-0.958-11.773-3.874-15.54-9.333c-1.044-1.513-2.119-3.008-3.076-4.574
			c-0.459-0.75-0.977-0.971-1.826-1.004c-3.153-0.12-6.305-0.301-9.452-0.532c-4.618-0.339-9.232-0.716-13.845-1.133
			c-1.289-0.117-2.379,0.035-3.372,0.979c-0.495,0.469-1.242,0.708-1.911,0.953c-3.621,1.327-6.623-0.502-9.795-1.833
			c2.19-2.504,2.19-2.503,5.132-1.496c0.151,0.05,0.311,0.077,0.463,0.123c3.813,1.128,7.001-1.819,6.18-5.703
			c-0.133-0.621-0.404-0.971-1.13-0.942c-1.357,0.052-2.719,0.015-4.077,0.014h-7.66c0.448-0.993,0.858-1.809,1.18-2.658
			c0.27-0.705,0.695-0.927,1.445-0.918c3.439,0.039,6.88,0.06,10.318-0.003c1.47-0.028,2.96-0.156,4.396-0.452
			c3.018-0.623,5.352-2.29,7.129-5.111h-19.64c0.45-1,0.868-1.806,1.177-2.651c0.301-0.825,0.768-1.103,1.68-1.098
			c7.358,0.041,14.719,0.079,22.076-0.011c3.758-0.046,6.876-1.596,9.135-4.685c0.188-0.258,0.304-0.57,0.588-1.119h-30.334
			c0.436-0.938,0.838-1.632,1.084-2.377c0.314-0.952,0.893-1.18,1.86-1.177c10.759,0.036,21.519,0.03,32.277,0.012
			c1.152-0.002,2.32-0.065,3.455-0.258C655.17,27.091,657.632,25.602,659.646,22.756 M577.856,66.654
			c1.369-0.251,2.412-0.457,3.461-0.633c2.711-0.454,4.996-1.612,6.587-3.936c1.719-2.512,2.084-6.929-1.892-9.105
			c-0.827-0.452-1.621-0.966-2.342-1.398c0.847-2.603,1.791-5.028,2.413-7.535c0.677-2.732,1.498-5.545,1.466-8.314
			c-0.049-4.528-1.924-8.513-5.23-11.722c-0.297-0.289-0.667-0.503-1.137-0.851c-0.267,3.929-1.796,7.012-4.664,9.437
			c-0.273,0.232-0.379,0.848-0.322,1.252c0.225,1.601,0.542,3.189,0.838,4.852c-1.043,0.051-1.964,0.04-2.868,0.153
			c-1.475,0.185-2.069,1.071-1.795,2.497c0.271,1.408,0.56,2.815,0.771,4.233c0.52,3.489-0.161,6.64-2.935,9.032
			c-3.758,3.24-8.197,4.308-13.055,3.749c-0.721-0.083-1.098,0.067-1.457,0.662c-1.115,1.847-2.187,3.729-3.451,5.473
			c-0.927,1.276-1.149,2.344-0.009,3.559c0.349,0.37,0.605,0.853,0.806,1.325c0.123,0.286,0.2,0.738,0.059,0.967
			c-0.556,0.906-1.208,1.754-1.915,2.752c-1.004-1.545-1.857-2.978-2.827-4.328c-1.981-2.756-4.433-4.93-7.813-5.811
			c-2.183-0.568-3.342,0.072-4.061,2.149c-0.098,0.285-0.248,0.554-0.372,0.824c-1.877-0.436-3.638-0.598-5.239,0.593
			c-0.796,0.593-1.334,1.354-1.062,2.357c0.289,1.064,0.717,2.097,1.151,3.115c0.316,0.745,0.906,0.87,1.687,0.645
			c1.912-0.55,3.841-1.047,5.774-1.522c0.479-0.12,1.034-0.214,1.497-0.096c6.79,1.731,13.566,3.514,20.357,5.242
			c0.68,0.173,0.93,0.441,0.894,1.126c-0.048,0.906-0.013,1.816-0.013,2.856c0.597-0.129,1.016-0.215,1.433-0.313
			c2.764-0.646,4.394-2.876,6.577-4.979v10.961c0.229,0,0.625,0.055,1-0.008c2.613-0.44,4.62-1.752,5.713-4.224
			c0.622-1.409,1.107-2.878,1.676-4.376c0.403,0,0.799,0.005,1.196-0.001c2.188-0.032,3.988-1.285,4.589-3.189
			c0.623-1.979-0.102-3.811-2.047-5.147C580.243,68.255,579.183,67.55,577.856,66.654 M557.421,79.261
			c-5.92-1.543-11.739-3.066-17.565-4.56c-0.354-0.091-0.783,0.013-1.156,0.107c-5.403,1.378-10.801,2.789-16.211,4.141
			c-0.918,0.229-1.146,0.659-1.144,1.569c0.035,9.917,0.021,19.833,0.021,29.75v1.274c0.542-0.109,0.935-0.166,1.313-0.266
			c5.245-1.361,10.483-2.744,15.733-4.08c0.594-0.15,1.282-0.197,1.867-0.054c3.479,0.861,6.94,1.799,10.41,2.7
			c2.213,0.575,4.43,1.134,6.73,1.722V79.261z M605.191,114.881c0-1.449-0.097-2.731,0.019-3.993
			c0.484-5.373,5.305-8.118,9.446-7.585c1.894,0.243,3.754,0.726,5.64,1.043c0.388,0.066,0.97,0.028,1.204-0.214
			c1.414-1.464,2.777-2.981,4.108-4.524c0.631-0.73,0.701-1.599,0.187-2.45c-2.485-4.101-4.984-8.192-7.457-12.299
			c-0.352-0.582-0.707-0.704-1.371-0.489c-1.589,0.515-3.234,0.863-4.82,1.391c-6.68,2.221-13.399,4.206-20.534,4.228
			c-0.276,0.001-0.756,0.467-0.801,0.766c-0.735,4.93-1.857,9.916,1.619,14.453c-0.544,0.259-0.993,0.508-1.467,0.692
			c-1.309,0.51-2.004,1.245-1.983,2.853c0.035,2.678-1.574,4.577-4.127,5.407c-0.535,0.175-1.076,0.327-1.614,0.49
			c0.021,0.077,0.043,0.155,0.065,0.232H605.191z M638.296,88.828c0.22,0.564,0.353,0.966,0.529,1.348
			c0.686,1.486,1.404,2.955,2.074,4.447c1.692,3.765,1.239,6.292-1.596,9.261c-3.146,3.296-6.277,6.604-9.409,9.913
			c-0.253,0.268-0.45,0.588-0.807,1.061h24.755c-0.359-1.084-0.775-2.039-0.989-3.037c-1.023-4.781,1.377-8.423,5.566-9.102
			c1.804-0.292,3.571-0.805,5.366-1.17c0.709-0.144,1.034-0.441,0.941-1.202c-0.201-1.662-0.3-3.338-0.549-4.992
			c-0.153-1.017-0.738-1.747-1.882-1.862c-1.983-0.198-3.963-0.42-5.944-0.637c-5.835-0.638-11.613-1.536-17.096-3.771
			C639.012,88.983,638.742,88.944,638.296,88.828 M621.729,83.328c0.305,0.6,0.444,0.925,0.623,1.222
			c2.048,3.384,4.088,6.771,6.156,10.142c1.81,2.95,1.634,5.354-0.687,7.962c-1.382,1.554-2.888,3-4.2,4.608
			c-0.792,0.972-1.672,1.086-2.746,0.875c-1.486-0.292-2.968-0.608-4.458-0.863c-1.057-0.181-2.148-0.483-3.186-0.374
			c-3.411,0.364-5.129,3.187-4.372,6.88c0.149,0.732,0.282,1.214,1.236,1.202c4.317-0.052,8.637-0.009,12.955-0.044
			c0.426-0.004,0.97-0.197,1.256-0.497c4.314-4.505,8.604-9.032,12.876-13.578c1.138-1.212,1.458-2.594,0.686-4.181
			c-1.415-2.905-2.963-5.766-4.103-8.78c-0.974-2.577-2.788-3.725-5.255-4.263c-0.427-0.094-0.85-0.289-1.276-0.298
			C625.475,83.307,623.713,83.328,621.729,83.328 M553.987,41.934c-0.483,0.655-0.985,1.23-1.358,1.878
			c-0.245,0.424-0.303,0.955-0.443,1.439c0.563,0.025,1.182,0.212,1.672,0.038c0.738-0.262,1.385-0.779,2.072-1.184
			c1.031-0.608,2.035-1.269,3.101-1.805c1.692-0.851,3.368-0.732,4.783,0.565c1.494,1.368,2.271,3.081,1.784,5.156
			c-0.586,2.503-2.393,3.917-4.714,4.426c-2.035,0.445-4.184,0.366-6.276,0.57c-0.367,0.036-0.71,0.323-1.063,0.494
			c0.277,0.331,0.501,0.867,0.844,0.961c4.872,1.338,9.41,0.729,13.367-2.597c1.699-1.431,2.224-3.352,1.842-5.521
			c-0.262-1.49-0.573-2.971-0.814-4.464c-0.348-2.154-0.072-4.336,1.983-5.343c1.978-0.967,2.082-2.186,1.553-3.904
			c-0.047-0.151-0.007-0.334-0.071-0.472c-0.379-0.811,0.017-1.207,0.706-1.585c2.17-1.188,3.645-2.992,4.254-5.387
			c0.25-0.978,0.16-2.042,0.247-3.401c-3.027,1.861-5.695,3.454-8.309,5.131c-0.987,0.634-1.905,0.985-3.121,0.712
			c-0.915-0.205-1.916-0.135-2.866-0.05c-1.918,0.171-3.8,0.532-5.402,1.712c-0.876,0.644-1.379,2.068-1.049,2.992
			c0.365,1.024,1.258,1.032,2.158,1.138c0.864,0.102,2.214,0.17,2.449,0.674c0.509,1.09-0.755,1.747-1.405,2.515
			c-0.074,0.089-0.175,0.164-0.273,0.23c-0.893,0.594-1.919,0.274-2.147-0.765c-0.188-0.859-0.656-1.525-1.449-1.485
			c-0.651,0.034-1.42,0.465-1.88,0.959c-0.921,0.987-1.627,2.171-2.498,3.211c-0.593,0.708-0.446,1.208,0.22,1.686
			C552.555,40.944,553.24,41.413,553.987,41.934 M565.109,114.759c-0.203-1.301-0.479-2.586-0.591-3.883
			c-0.324-3.804,1.353-7.105,5.146-8.335c1.161-0.376,2.412-0.58,3.634-0.637c1.102-0.051,1.441-0.432,1.426-1.51
			c-0.05-3.675-0.017-7.351-0.024-11.026c0-0.331-0.063-0.663-0.1-1.014c-4.547,1.292-7.924,1.691-9.912,1.188
			c0.337-2.218,0.673-4.436,1.032-6.797c-1.293,0.373-2.304,0.763-3.351,0.938c-0.991,0.166-1.255,0.594-1.25,1.58
			c0.041,8.788,0.023,17.577,0.023,26.366c0,3.707,0,3.707,3.729,3.271C564.907,114.896,564.939,114.861,565.109,114.759
			 M644.221,37.217c0.111,0.013,0.268,0.046,0.424,0.046c6.555-0.008,13.111,0.033,19.664-0.057
			c2.443-0.035,4.725-0.869,6.609-2.465c1.022-0.866,1.854-1.956,2.898-3.081c-0.488-0.139-0.599-0.198-0.708-0.198
			c-8.114-0.008-16.228-0.017-24.343,0c-0.305,0.001-0.733,0.169-0.899,0.404C646.635,33.61,645.455,35.391,644.221,37.217
			 M658.557,41.064c-0.348-0.06-0.533-0.118-0.715-0.119c-8.033-0.005-16.065-0.017-24.098,0.027
			c-0.392,0.003-0.874,0.419-1.153,0.77c-1.069,1.335-2.074,2.721-3.097,4.093c-0.125,0.168-0.216,0.362-0.384,0.648
			c0.369,0.035,0.6,0.075,0.827,0.075c6.034,0,12.07,0.064,18.102-0.052c1.723-0.032,3.491-0.416,5.139-0.949
			C655.468,44.815,657.196,43.244,658.557,41.064 M660.434,27.813c0.213,0.024,0.368,0.059,0.523,0.059
			c6.271,0,12.544,0.11,18.809-0.074c1.924-0.057,3.888-0.759,5.718-1.467c1.584-0.613,2.789-1.876,3.817-3.461
			c-0.312-0.054-0.454-0.101-0.598-0.101c-8.027-0.005-16.054-0.01-24.081,0.004c-0.284,0.001-0.688,0.105-0.837,0.308
			C662.661,24.606,661.588,26.169,660.434,27.813 M668.557,71.434c-1.931-5.278-12.253-11.351-18.681-10.993
			C652.661,66.852,662.171,72.447,668.557,71.434 M524.595,114.564c0.021,0.08,0.042,0.161,0.063,0.242h29.666
			c-0.169-0.234-0.364-0.327-0.571-0.382c-2.702-0.713-5.473-1.229-8.091-2.171c-4.198-1.511-8.253-1.488-12.455,0.001
			C530.414,113.246,527.471,113.81,524.595,114.564 M573.612,19.88c-4.875-1.505-10.821,1.375-12.215,4.17
			c2.935-0.102,5.897,0.465,8.403-1.733C570.854,21.394,572.179,20.78,573.612,19.88 M694.112,105.439
			c-0.88-1.465-1.546-2.787-2.415-3.958c-0.966-1.302-3.235-1.582-4.69-0.694C688.704,103.208,690.664,105.177,694.112,105.439"/>
		<path clip-path="url(#SVGID_2_)" fill-rule="evenodd" clip-rule="evenodd" fill="#FFFFFF" d="M670.436,163.241v-27.95h-3.722
			c-0.028-0.5-0.046-0.846-0.07-1.265h12.573c0.017,0.356,0.034,0.695,0.056,1.188h-3.802v28.25c1.84-0.284,3.626-0.398,5.313-0.866
			c1.781-0.494,2.778-1.992,3.328-3.677c0.453-1.389,0.657-2.859,1.042-4.274c0.134-0.491-0.126-1.454,1.022-1.173v11.057h-27.455
			v-1.267h3.43c-0.224-0.627-0.378-1.099-0.559-1.56c-0.783-2.002-1.535-4.021-2.395-5.99c-0.172-0.391-0.76-0.843-1.167-0.852
			c-2.878-0.075-5.759-0.069-8.637-0.006c-0.383,0.009-0.967,0.403-1.097,0.755c-0.557,1.483-1.039,3.005-1.43,4.542
			c-0.487,1.924,0.313,2.933,2.314,3.085c0.232,0.017,0.465,0.027,0.754,0.046v1.059c-3.229,0-6.42,0.148-9.59-0.052
			c-2.132-0.133-3.542-1.88-3.692-4.073c-0.143-2.069-0.17-4.146-0.247-6.222c-0.104-2.738-1.668-4.271-4.394-4.284
			c-1.56-0.007-3.119,0.011-4.678,0.021c-0.074,0-0.147,0.045-0.309,0.096v13.363h3.7v1.332h-12.259v-1.271h3.867
			c0.029-0.512,0.076-0.935,0.076-1.357c0.006-8.438-0.014-16.877,0.025-25.315c0.004-1.043-0.267-1.457-1.343-1.345
			c-0.826,0.085-1.669,0.016-2.614,0.016c-0.022-0.45-0.042-0.815-0.067-1.296h2.48c4.239,0,8.48-0.042,12.718,0.026
			c1.258,0.021,2.545,0.226,3.761,0.56c5.581,1.53,6.012,7.797,3.303,11.076c-0.979,1.183-2.483,1.938-3.771,2.855
			c-0.34,0.242-0.764,0.364-1.415,0.664c0.688,0.202,1.088,0.322,1.488,0.438c2.427,0.693,3.685,2.051,3.879,4.575
			c0.195,2.544,0.157,5.104,0.284,7.653c0.022,0.45,0.251,1.135,0.567,1.266c0.433,0.178,1.265,0.125,1.53-0.178
			c0.717-0.813,1.43-1.738,1.783-2.748c3.025-8.595,5.963-17.222,8.961-25.826c0.156-0.448,0.553-0.962,0.968-1.138
			c0.63-0.267,1.043,0.128,1.297,0.812c2.302,6.194,4.638,12.378,6.968,18.563c1.18,3.13,2.411,6.243,3.527,9.396
			c0.348,0.979,0.802,1.452,1.866,1.304C669.185,163.175,669.782,163.241,670.436,163.241 M627.009,148.321
			c1.97,0,3.81,0.11,5.63-0.031c2.046-0.158,3.484-1.349,4.18-3.272c0.811-2.238,0.813-4.533,0.049-6.795
			c-0.473-1.398-1.383-2.647-2.85-2.791c-2.311-0.226-4.663-0.06-7.009-0.06V148.321z M658.567,153.559
			c-1.585-4.438-3.131-8.77-4.676-13.1l-0.322,0.033c-1.439,4.315-2.881,8.632-4.359,13.066H658.567z"/>
		<path clip-path="url(#SVGID_2_)" fill-rule="evenodd" clip-rule="evenodd" fill="#FFFFFF" d="M25.034,77.694v13.819h-8.228V53.156
			c0.402-0.02,0.79-0.056,1.177-0.057c5.116-0.003,10.234-0.088,15.347,0.04c2.086,0.053,4.236,0.315,6.226,0.915
			c6.243,1.878,8.365,7.781,7.699,12.787c-0.83,6.23-3.794,9.268-9.898,10.492c-1.781,0.358-3.652,0.303-5.483,0.347
			C29.645,77.735,27.413,77.694,25.034,77.694 M25.013,71.426c3.394-0.139,6.631-0.096,9.823-0.455
			c2.844-0.32,4.407-2.296,4.449-4.927c0.06-3.765-1.051-5.679-4.251-6.138c-3.248-0.463-6.572-0.391-9.892-0.553
			c-0.071,0.471-0.125,0.66-0.125,0.849C25.012,63.835,25.013,67.467,25.013,71.426"/>
		<path clip-path="url(#SVGID_2_)" fill-rule="evenodd" clip-rule="evenodd" fill="#FFFFFF" d="M132.468,91.555h-7.006V88.27
			c-0.191-0.138-0.381-0.273-0.571-0.412c-0.129,0.331-0.188,0.716-0.398,0.983c-2.242,2.848-5.365,3.801-8.743,3.363
			c-6.917-0.899-10.959-5.633-11.475-12.666c-0.276-3.762,0.181-7.304,1.98-10.63c3.107-5.741,10.265-7.425,15.376-4.589
			c1.161,0.645,2.122,1.648,3.255,2.552V53.189h7.582V91.555z M125.583,77.607c-0.489-1.906-0.7-3.941-1.521-5.691
			c-2.01-4.282-8.305-4.54-10.887-0.579c-2.212,3.394-2.04,9.586,0.356,12.851c2.75,3.747,8.692,3.294,10.594-0.933
			C124.889,81.557,125.087,79.604,125.583,77.607"/>
		<path clip-path="url(#SVGID_2_)" fill-rule="evenodd" clip-rule="evenodd" fill="#FFFFFF" d="M590.383,164.634
			c-2.811-4.015-5.621-8.027-8.429-12.044c-2.778-3.974-5.552-7.951-8.329-11.926c-0.117,0.039-0.235,0.079-0.353,0.119
			c-0.023,0.408-0.063,0.815-0.064,1.224c-0.007,5.718,0.085,11.439-0.051,17.154c-0.066,2.787,1.006,3.672,3.561,4.351
			c0.478,0.127,1.46-0.155,1.212,1.022h-10.52c-0.07-0.081-0.141-0.163-0.211-0.245c0.236-0.209,0.438-0.499,0.714-0.612
			c0.914-0.376,1.897-0.604,2.771-1.05c0.953-0.486,1.39-1.376,1.389-2.474c-0.006-7.358,0.004-14.716-0.009-22.074
			c-0.004-1.733-0.911-2.672-2.627-2.76c-0.831-0.043-1.665-0.009-2.56-0.009c-0.031-0.516-0.052-0.86-0.081-1.347
			c2.533,0,5.003-0.035,7.469,0.04c0.346,0.011,0.749,0.517,0.998,0.879c4.397,6.431,8.773,12.874,13.162,19.312
			c0.25,0.365,0.561,0.689,0.842,1.034l0.328-0.115v-1.246c0-5.078,0.001-10.156-0.001-15.235c0-2.329-0.851-3.204-3.227-3.338
			c-0.474-0.026-0.948-0.065-1.491-0.105c-0.026-0.386-0.051-0.729-0.08-1.153h31.249v10.409c-0.103,0.028-0.207,0.058-0.311,0.086
			c-0.149-0.393-0.332-0.775-0.44-1.179c-0.314-1.188-0.541-2.401-0.908-3.571c-0.758-2.411-2.313-4.023-4.913-4.278
			c-2.091-0.205-4.199-0.222-6.397-0.327v12.729c2.953,0.871,5.354-0.516,6.328-3.644c0.142-0.454,0.193-0.938,0.354-1.386
			c0.098-0.269,0.323-0.493,0.491-0.738c0.123,0.285,0.346,0.568,0.352,0.855c0.034,1.6,0.017,3.2,0.017,4.799v8.028
			c-0.093,0.069-0.188,0.141-0.283,0.211c-0.203-0.233-0.505-0.435-0.594-0.706c-0.319-0.979-0.479-2.019-0.859-2.969
			c-0.971-2.427-2.854-2.946-5.251-2.81c-0.227,0.013-0.609,0.505-0.611,0.777c-0.041,4.079-0.041,8.158,0.002,12.235
			c0.003,0.247,0.436,0.704,0.662,0.7c1.99-0.037,3.988-0.067,5.966-0.274c2.023-0.212,3.525-1.377,4.242-3.261
			c0.616-1.618,0.93-3.353,1.407-5.027c0.149-0.521-0.072-1.382,1.03-1.263v11.077h-21.857v-1.233h3.923V135.38
			c-1.848,0-3.683-0.142-5.483,0.043c-1.503,0.155-2.186,1.224-2.187,2.815c-0.006,8.316-0.003,16.634-0.003,24.952v1.286
			C590.609,164.53,590.495,164.581,590.383,164.634"/>
		<path clip-path="url(#SVGID_2_)" fill-rule="evenodd" clip-rule="evenodd" fill="#FFFFFF" d="M239.23,79.366
			c-0.485,4.105,2.257,7.237,6.191,7.318c2.772,0.059,5.103-0.727,6.653-3.204c0.129-0.207,0.485-0.381,0.739-0.385
			c1.914-0.032,3.829-0.017,5.884-0.017c-1.075,3.298-2.768,6.063-5.835,7.534c-5.471,2.627-10.906,2.404-15.963-1.131
			c-2.933-2.05-4.403-5.099-5.002-8.559c-0.795-4.592-0.145-8.936,2.783-12.683c3.153-4.036,7.419-5.519,12.468-5.159
			c6.926,0.489,11.13,5.979,11.896,12.041c0.174,1.368,0.215,2.751,0.326,4.243H239.23z M251.751,74.645
			c-0.405-2.406-1.084-4.515-3.336-5.483c-2.456-1.058-4.951-0.891-7.11,0.808c-1.454,1.144-2.184,2.735-2.146,4.676H251.751z"/>
		<path clip-path="url(#SVGID_2_)" fill-rule="evenodd" clip-rule="evenodd" fill="#FFFFFF" d="M144.907,79.368
			c-0.468,4.121,2.264,7.237,6.2,7.317c2.772,0.056,5.106-0.729,6.647-3.211c0.116-0.188,0.41-0.375,0.625-0.379
			c1.953-0.027,3.906-0.017,6.008-0.017c-1.255,3.717-3.283,6.637-6.919,8.063c-4.576,1.797-9.152,1.641-13.501-0.731
			c-3.73-2.034-5.672-5.401-6.389-9.492c-0.803-4.591-0.143-8.934,2.786-12.682c3.153-4.037,7.421-5.515,12.47-5.156
			c6.906,0.491,11.124,5.964,11.892,12.046c0.173,1.367,0.214,2.751,0.324,4.241H144.907z M144.903,74.634h12.357
			c0.237-3.563-2.509-6.105-6.443-6.037C147.389,68.656,144.599,71.468,144.903,74.634"/>
		<path clip-path="url(#SVGID_2_)" fill-rule="evenodd" clip-rule="evenodd" fill="#FFFFFF" d="M169.695,63.701h7.035v3.723
			c0.1,0.031,0.2,0.063,0.299,0.096c0.221-0.241,0.451-0.476,0.66-0.728c2.413-2.902,5.535-4.041,9.244-3.712
			c0.634,0.058,1.273,0.097,1.896,0.215c4.959,0.948,6.618,4.295,6.784,8.054c0.292,6.583,0.206,13.183,0.274,19.774
			c0.001,0.113-0.045,0.228-0.084,0.414h-7.461c0-0.396,0-0.814,0-1.233c-0.005-5.198-0.01-10.395-0.02-15.592
			c-0.001-0.438,0.015-0.888-0.066-1.314c-0.801-4.187-4.564-5.937-8.311-3.809c-2.216,1.259-2.684,3.499-2.724,5.775
			c-0.087,4.916-0.037,9.834-0.043,14.751c0,0.438,0,0.874,0,1.404h-7.483V63.701z"/>
		<path clip-path="url(#SVGID_2_)" fill-rule="evenodd" clip-rule="evenodd" fill="#FFFFFF" d="M73.372,63.71h7.326
			c0,0.476,0,0.9,0.001,1.326c0.005,5.197,0.009,10.396,0.02,15.592c0.001,0.438-0.003,0.888,0.083,1.312
			c0.672,3.326,2.088,4.524,5.267,4.499c3.083-0.027,4.985-1.6,5.516-4.71c0.214-1.248,0.257-2.537,0.266-3.809
			c0.031-4.276,0.011-8.556,0.012-12.833v-1.358h7.465v27.823h-7.019v-4.011c-0.446,0.417-0.678,0.587-0.852,0.803
			c-2.431,3.022-5.612,4.195-9.418,3.84c-0.594-0.057-1.201-0.06-1.78-0.19c-4.241-0.959-6.687-3.489-6.83-7.898
			C73.211,77.354,73.372,70.598,73.372,63.71"/>
		<path clip-path="url(#SVGID_2_)" fill-rule="evenodd" clip-rule="evenodd" fill="#FFFFFF" d="M221.349,81.126h7.094
			c-0.513,3.785-2.079,6.858-5.242,8.95c-5.225,3.455-13.939,2.958-18.4-1.998c-2.897-3.219-3.888-7.04-3.621-11.282
			c0.207-3.305,1.087-6.359,3.196-8.973c2.305-2.857,5.348-4.284,8.966-4.7c3.011-0.346,5.888,0.044,8.644,1.249
			c3.75,1.641,6.348,5.368,6.268,8.954h-7.145c-1.246-3.972-4.222-5.684-7.849-4.453c-2.436,0.827-3.585,2.791-4.19,5.146
			c-0.702,2.723-0.707,5.45,0.194,8.127c1.091,3.244,3.182,4.672,6.476,4.532c2.726-0.116,4.711-1.987,5.472-5.155
			C221.239,81.412,221.287,81.308,221.349,81.126"/>
		<path clip-path="url(#SVGID_2_)" fill-rule="evenodd" clip-rule="evenodd" fill="#FFFFFF" d="M59.579,91.552h-7.474V63.707h6.98
			v4.757c1.568-1.431,2.965-2.99,4.637-4.156c1.769-1.234,3.887-1.578,6.128-1.083v6.788c-1.238,0-2.463-0.096-3.667,0.019
			c-3.485,0.329-5.681,2.339-6.318,5.81c-0.222,1.206-0.262,2.456-0.274,3.688c-0.034,3.558-0.012,7.117-0.012,10.677V91.552z"/>
		<path clip-path="url(#SVGID_2_)" fill-rule="evenodd" clip-rule="evenodd" fill="#FFFFFF" d="M558.988,142.33v13.531
			c-0.081,0.061-0.163,0.121-0.244,0.181c-0.194-0.217-0.492-0.402-0.567-0.655c-0.229-0.761-0.313-1.565-0.557-2.318
			c-0.911-2.82-2.895-3.95-6.054-3.426v13.766c2.434-0.176,4.822-0.198,7.156-0.565c1.848-0.292,3.143-1.618,3.74-3.385
			c0.594-1.763,0.946-3.604,1.445-5.4c0.077-0.28,0.367-0.5,0.56-0.748c0.098,0.065,0.196,0.131,0.294,0.196v10.989h-21.883
			c-0.025-0.334-0.052-0.708-0.09-1.23h4.031v-27.941h-3.502v-1.31h21.099v10.447c-0.114,0.022-0.229,0.044-0.345,0.066
			c-0.124-0.42-0.271-0.836-0.367-1.261c-0.193-0.854-0.311-1.724-0.544-2.563c-1.059-3.823-3.131-5.379-7.128-5.392
			c-1.435-0.003-2.869-0.001-4.436-0.001v12.673c3.682,0.639,5.949-1.114,6.569-5.008c0.051-0.319,0.297-0.606,0.451-0.908
			C558.742,142.155,558.865,142.242,558.988,142.33"/>
		<path clip-path="url(#SVGID_2_)" fill-rule="evenodd" clip-rule="evenodd" fill="#FFFFFF" d="M530.872,148.662h11.725
			c0.257,0.748,0.141,1.104-0.738,1.133c-2.5,0.086-2.499,0.114-2.499,2.654v11.917c-1.102-0.849-2.061-1.567-2.997-2.315
			c-0.469-0.373-0.835-0.51-1.308,0.043c-2.702,3.146-6.119,3.286-9.728,2.107c-3.851-1.26-6.018-4.219-7.269-7.89
			c-1.987-5.821-1.832-11.543,1.299-16.96c2.756-4.768,8.191-6.865,13.165-5.139c1.102,0.384,2.088,1.096,3.328,1.765
			c0.875-0.607,1.971-1.368,3.189-2.214v10.613l-0.243,0.158c-0.188-0.291-0.454-0.559-0.552-0.878
			c-0.685-2.229-1.558-4.367-3.095-6.156c-2.031-2.362-4.548-3.456-7.676-2.685c-1.893,0.466-3.244,1.746-3.852,3.484
			c-0.766,2.192-1.467,4.494-1.64,6.792c-0.318,4.208-0.472,8.46,0.597,12.621c0.178,0.689,0.432,1.371,0.733,2.018
			c1.892,4.05,5.962,5.148,9.666,2.621c1.262-0.861,1.989-1.95,1.927-3.599c-0.1-2.636-0.051-5.278-0.013-7.917
			c0.01-0.766-0.211-1.11-1.013-1.063c-0.757,0.044-1.521-0.016-2.279,0.012C530.812,149.815,530.609,149.466,530.872,148.662"/>
		<path clip-path="url(#SVGID_2_)" fill-rule="evenodd" clip-rule="evenodd" fill="#FFFFFF" d="M688.934,163.23h3.809v-27.948
			h-3.715c-0.023-0.481-0.041-0.847-0.062-1.271h12.093c0.343,0.87,0.133,1.286-0.846,1.249c-0.913-0.034-1.829-0.008-2.837-0.008
			v27.959h3.749v1.315H689.03C689.003,164.154,688.975,163.779,688.934,163.23"/>
		<path clip-path="url(#SVGID_2_)" fill-rule="evenodd" clip-rule="evenodd" fill="#FFFFFF" d="M34.19,124.942h-1.533
			c-0.262-1.582-0.997-5.917-0.997-5.917l-8.72,0.02l-3.813,5.833l-1.598,0.018c0,0,4.566-7.5,6.817-11.201
			c1.302-2.143,2.639-4.264,3.882-6.438c0.578-1.01,1.269-1.46,2.551-1.014 M31.408,117.8c-0.569-3.503-1.12-6.896-1.671-10.292
			c-0.131-0.008-0.262-0.017-0.392-0.023c-1.945,3.391-3.889,6.781-5.916,10.315H31.408z"/>
		<path clip-path="url(#SVGID_2_)" fill-rule="evenodd" clip-rule="evenodd" fill="#FFFFFF" d="M99.963,117.415h9.112
			c0.054-0.415,0.122-0.728,0.132-1.041c0.077-2.641-1.355-4.127-3.96-4.122C102.607,112.257,100.433,114.335,99.963,117.415"/>
		<path clip-path="url(#SVGID_2_)" fill-rule="evenodd" clip-rule="evenodd" fill="#FFFFFF" d="M150.748,117.45
			c0.531-2.31-0.102-4.151-1.798-4.862c-3.674-1.539-7.003,1.594-7.119,4.862H150.748z"/>
		<path clip-path="url(#SVGID_2_)" fill-rule="evenodd" clip-rule="evenodd" fill="#CA342C" d="M659.646,22.755
			c-2.016,2.846-4.478,4.335-7.518,4.854c-1.133,0.193-2.301,0.256-3.455,0.258c-10.758,0.018-21.518,0.024-32.276-0.012
			c-0.968-0.003-1.546,0.225-1.859,1.177c-0.247,0.745-0.649,1.439-1.085,2.377h30.335c-0.286,0.549-0.4,0.861-0.589,1.119
			c-2.259,3.089-5.377,4.639-9.135,4.685c-7.356,0.09-14.718,0.052-22.076,0.011c-0.912-0.005-1.379,0.273-1.68,1.098
			c-0.309,0.845-0.727,1.651-1.178,2.651h19.641c-1.777,2.822-4.111,4.488-7.129,5.111c-1.436,0.296-2.927,0.424-4.395,0.452
			c-3.439,0.063-6.879,0.042-10.319,0.003c-0.75-0.009-1.177,0.214-1.445,0.918c-0.32,0.849-0.732,1.664-1.18,2.658h7.659
			c1.359,0.001,2.721,0.038,4.079-0.014c0.725-0.028,0.997,0.321,1.128,0.942c0.822,3.884-2.366,6.831-6.179,5.702
			c-0.153-0.045-0.312-0.072-0.463-0.123c-2.942-1.006-2.942-1.007-5.132,1.496c3.172,1.332,6.174,3.161,9.795,1.833
			c0.669-0.244,1.416-0.483,1.911-0.952c0.993-0.943,2.083-1.096,3.372-0.979c4.611,0.417,9.227,0.794,13.845,1.133
			c3.147,0.231,6.3,0.412,9.452,0.532c0.851,0.033,1.367,0.254,1.826,1.004c0.957,1.566,2.031,3.063,3.075,4.574
			c3.768,5.459,9.068,8.375,15.54,9.333c2.207,0.327,4.419,0.624,6.621,0.988c0.331,0.054,0.747,0.326,0.896,0.615
			c0.904,1.733,1.764,3.49,2.585,5.264c0.174,0.377,0.182,0.855,0.183,1.288c0.021,8.039,0.048,16.077,0.008,24.115
			c-0.002,0.528-0.396,1.252-0.834,1.541c-0.956,0.63-2.031,1.108-3.106,1.524c-3.791,1.467-7.612,2.855-11.397,4.336
			c-0.86,0.336-1.412,0.189-1.693-0.631c-0.458-1.338-1.04-2.685-1.185-4.067c-0.187-1.783,0.858-2.882,2.645-3.277
			c2.953-0.655,5.907-1.308,8.863-1.946c0.608-0.132,1.002-0.313,0.905-1.088c-0.337-2.691-0.578-5.394-0.918-8.084
			c-0.412-3.274-2.558-5.143-5.853-5.395c-5.446-0.417-10.866-1.031-16.187-2.354c-3.521-0.875-6.828-2.212-9.83-4.251
			c-2.963-2.012-6.19-3.514-9.762-3.562c-2.917-0.04-5.912,0.313-8.749,1.003c-4.95,1.203-9.797,2.833-14.705,4.22
			c-4.374,1.234-8.853,1.676-13.387,1.397c-0.9-0.056-1.229,0.192-1.441,1.071c-1.092,4.487-1.809,8.992-1.159,13.623
			c0.135,0.954-0.474,3.785-0.803,4.68c-0.256,0.692-0.373,1.46-0.414,2.202c-0.118,2.13-0.623,2.824-2.707,3.096
			c-1.578,0.205-3.188,0.166-4.77,0.347c-0.519,0.058-1.141,0.342-1.473,0.73c-1.82,2.126-4.178,2.68-6.798,2.397
			c-0.403-0.043-0.96-0.583-1.074-0.995c-0.291-1.064-0.489-2.184-0.519-3.286c-0.072-2.771,1.494-4.373,4.29-4.545
			c0.755-0.047,1.524-0.026,2.262-0.174c2.255-0.448,3.533-2.014,3.54-4.295c0.012-5.039-0.15-10.086,0.091-15.115
			c0.08-1.679,1.151-3.318,1.818-4.956c0.077-0.188,0.462-0.3,0.723-0.357c4.927-1.083,8.057-6.823,5.178-11.901
			c-0.038-0.068-0.052-0.15-0.104-0.311c0.548-0.347,1.123-0.689,1.678-1.064c4.049-2.746,5.822-7.112,4.773-11.758
			c-0.501-2.219-1.821-3.855-3.619-5.186c-0.286-0.213-0.573-0.783-0.489-1.086c1.725-6.255,3.541-12.486,5.257-18.744
			c1.107-4.038,4.691-7.917,10.408-7.887c17.998,0.096,35.998,0.035,53.996,0.035H659.646z"/>
		<path clip-path="url(#SVGID_2_)" fill-rule="evenodd" clip-rule="evenodd" fill="#CA342C" d="M577.856,66.654
			c1.326,0.896,2.387,1.602,3.438,2.322c1.945,1.337,2.669,3.168,2.046,5.147c-0.6,1.904-2.399,3.157-4.588,3.189
			c-0.397,0.006-0.793,0.001-1.196,0.001c-0.568,1.498-1.054,2.967-1.677,4.376c-1.091,2.471-3.099,3.783-5.712,4.223
			c-0.375,0.063-0.771,0.01-1,0.01V74.962c-2.184,2.103-3.813,4.332-6.578,4.979c-0.417,0.097-0.836,0.184-1.432,0.313
			c0-1.04-0.034-1.951,0.012-2.857c0.037-0.684-0.213-0.953-0.893-1.126c-6.791-1.729-13.567-3.511-20.358-5.242
			c-0.462-0.118-1.017-0.023-1.497,0.096c-1.933,0.476-3.861,0.973-5.773,1.522c-0.78,0.225-1.37,0.1-1.688-0.644
			c-0.434-1.02-0.861-2.052-1.15-3.116c-0.271-1.003,0.266-1.766,1.063-2.357c1.601-1.189,3.361-1.028,5.238-0.593
			c0.124-0.271,0.274-0.539,0.372-0.824c0.719-2.077,1.878-2.718,4.061-2.148c3.38,0.88,5.832,3.054,7.813,5.81
			c0.97,1.351,1.823,2.783,2.827,4.328c0.707-0.998,1.359-1.845,1.915-2.752c0.142-0.229,0.065-0.68-0.058-0.966
			c-0.202-0.474-0.458-0.956-0.807-1.326c-1.141-1.215-0.918-2.282,0.009-3.559c1.265-1.742,2.337-3.626,3.451-5.473
			c0.359-0.595,0.736-0.745,1.457-0.662c4.857,0.56,9.297-0.509,13.056-3.749c2.772-2.392,3.454-5.543,2.934-9.032
			c-0.211-1.418-0.499-2.825-0.771-4.233c-0.274-1.425,0.32-2.312,1.795-2.497c0.904-0.113,1.825-0.102,2.868-0.153
			c-0.296-1.663-0.614-3.251-0.838-4.852c-0.057-0.404,0.05-1.02,0.322-1.252c2.868-2.425,4.397-5.507,4.664-9.437
			c0.47,0.348,0.84,0.562,1.137,0.851c3.307,3.209,5.182,7.194,5.23,11.722c0.032,2.769-0.789,5.582-1.466,8.315
			c-0.623,2.506-1.566,4.932-2.414,7.535c0.722,0.433,1.516,0.946,2.343,1.398c3.976,2.177,3.611,6.594,1.892,9.105
			c-1.591,2.323-3.876,3.481-6.587,3.936C580.269,66.197,579.226,66.403,577.856,66.654"/>
		<path clip-path="url(#SVGID_2_)" fill-rule="evenodd" clip-rule="evenodd" fill="#CA342C" d="M557.42,79.261v32.306
			c-2.3-0.589-4.517-1.147-6.729-1.723c-3.471-0.9-6.932-1.839-10.411-2.7c-0.585-0.145-1.274-0.097-1.867,0.055
			c-5.25,1.335-10.489,2.717-15.733,4.08c-0.38,0.098-0.771,0.155-1.313,0.264v-1.273c0-9.917,0.013-19.833-0.021-29.75
			c-0.003-0.909,0.226-1.34,1.144-1.569c5.411-1.352,10.807-2.763,16.211-4.141c0.373-0.095,0.802-0.197,1.157-0.107
			C545.682,76.195,551.5,77.718,557.42,79.261"/>
		<path clip-path="url(#SVGID_2_)" fill-rule="evenodd" clip-rule="evenodd" fill="#C52428" d="M605.191,114.881h-21.887
			c-0.022-0.077-0.044-0.155-0.065-0.231c0.538-0.164,1.079-0.317,1.614-0.491c2.553-0.831,4.162-2.729,4.127-5.408
			c-0.021-1.605,0.675-2.342,1.982-2.851c0.475-0.186,0.924-0.435,1.468-0.694c-3.476-4.537-2.354-9.522-1.619-14.452
			c0.045-0.3,0.524-0.765,0.801-0.766c7.136-0.021,13.854-2.006,20.534-4.228c1.586-0.526,3.231-0.876,4.82-1.392
			c0.663-0.214,1.02-0.091,1.371,0.491c2.473,4.105,4.972,8.197,7.457,12.298c0.515,0.852,0.444,1.719-0.187,2.451
			c-1.331,1.543-2.693,3.059-4.108,4.523c-0.234,0.241-0.816,0.279-1.204,0.214c-1.886-0.317-3.747-0.8-5.64-1.043
			c-4.142-0.532-8.962,2.212-9.446,7.585C605.095,112.15,605.191,113.432,605.191,114.881"/>
		<path clip-path="url(#SVGID_2_)" fill-rule="evenodd" clip-rule="evenodd" fill="#CA342C" d="M638.295,88.827
			c0.447,0.117,0.717,0.156,0.961,0.256c5.483,2.236,11.263,3.136,17.098,3.772c1.979,0.217,3.961,0.438,5.942,0.637
			c1.146,0.115,1.729,0.846,1.883,1.862c0.249,1.655,0.348,3.33,0.55,4.993c0.092,0.76-0.233,1.058-0.942,1.202
			c-1.795,0.363-3.562,0.878-5.367,1.17c-4.188,0.678-6.589,4.318-5.564,9.101c0.213,0.998,0.629,1.953,0.988,3.037h-24.756
			c0.357-0.472,0.556-0.793,0.809-1.061c3.131-3.31,6.263-6.616,9.408-9.912c2.835-2.971,3.288-5.496,1.596-9.263
			c-0.669-1.491-1.389-2.961-2.074-4.445C638.649,89.794,638.516,89.393,638.295,88.827"/>
		<path clip-path="url(#SVGID_2_)" fill-rule="evenodd" clip-rule="evenodd" fill="#CA342C" d="M621.729,83.327
			c1.982,0,3.745-0.021,5.506,0.015c0.427,0.008,0.849,0.203,1.276,0.298c2.467,0.538,4.281,1.685,5.255,4.262
			c1.14,3.014,2.688,5.875,4.103,8.78c0.772,1.587,0.452,2.969-0.686,4.181c-4.271,4.546-8.561,9.073-12.876,13.578
			c-0.286,0.3-0.83,0.493-1.256,0.497c-4.318,0.036-8.637-0.007-12.955,0.044c-0.954,0.012-1.087-0.469-1.236-1.202
			c-0.757-3.694,0.961-6.515,4.372-6.88c1.037-0.11,2.129,0.194,3.186,0.374c1.49,0.255,2.972,0.572,4.458,0.864
			c1.074,0.211,1.954,0.096,2.747-0.875c1.312-1.609,2.817-3.057,4.199-4.609c2.32-2.607,2.496-5.012,0.687-7.962
			c-2.068-3.37-4.108-6.758-6.156-10.141C622.173,84.252,622.034,83.929,621.729,83.327"/>
		<path clip-path="url(#SVGID_2_)" fill-rule="evenodd" clip-rule="evenodd" fill="#CA342C" d="M553.987,41.934
			c-0.747-0.521-1.433-0.99-2.106-1.475c-0.666-0.478-0.813-0.979-0.22-1.686c0.871-1.04,1.577-2.224,2.498-3.212
			c0.46-0.493,1.229-0.924,1.88-0.958c0.793-0.041,1.261,0.626,1.449,1.485c0.229,1.039,1.255,1.359,2.147,0.765
			c0.099-0.066,0.199-0.141,0.273-0.231c0.65-0.767,1.914-1.424,1.405-2.514c-0.235-0.504-1.585-0.572-2.449-0.674
			c-0.9-0.106-1.793-0.114-2.158-1.138c-0.33-0.925,0.173-2.348,1.049-2.992c1.603-1.18,3.484-1.541,5.402-1.712
			c0.95-0.085,1.951-0.156,2.866,0.05c1.216,0.272,2.134-0.079,3.121-0.712c2.613-1.677,5.281-3.27,8.309-5.131
			c-0.087,1.359,0.003,2.423-0.247,3.401c-0.609,2.395-2.084,4.199-4.254,5.387c-0.689,0.378-1.085,0.774-0.706,1.585
			c0.064,0.138,0.024,0.321,0.071,0.471c0.529,1.719,0.425,2.937-1.553,3.905c-2.056,1.007-2.331,3.189-1.983,5.343
			c0.241,1.493,0.553,2.974,0.814,4.464c0.382,2.168-0.143,4.09-1.842,5.519c-3.957,3.327-8.495,3.936-13.367,2.598
			c-0.343-0.094-0.566-0.63-0.844-0.961c0.354-0.171,0.696-0.458,1.063-0.494c2.093-0.204,4.241-0.125,6.276-0.569
			c2.321-0.51,4.128-1.924,4.714-4.426c0.487-2.075-0.29-3.788-1.784-5.156c-1.415-1.297-3.091-1.416-4.783-0.565
			c-1.065,0.536-2.069,1.197-3.101,1.804c-0.688,0.406-1.334,0.923-2.072,1.185c-0.49,0.174-1.109-0.013-1.672-0.039
			c0.141-0.483,0.198-1.014,0.443-1.438C553.002,43.163,553.504,42.589,553.987,41.934"/>
		<path clip-path="url(#SVGID_2_)" fill-rule="evenodd" clip-rule="evenodd" fill="#CA342C" d="M565.109,114.759
			c-0.17,0.104-0.202,0.139-0.238,0.143c-3.729,0.436-3.729,0.436-3.729-3.271c0-8.789,0.018-17.578-0.023-26.366
			c-0.005-0.985,0.259-1.414,1.25-1.58c1.047-0.175,2.058-0.565,3.351-0.938c-0.359,2.363-0.695,4.58-1.032,6.797
			c1.988,0.504,5.365,0.105,9.912-1.187c0.036,0.349,0.1,0.681,0.1,1.013c0.008,3.676-0.026,7.352,0.024,11.027
			c0.016,1.077-0.324,1.459-1.426,1.51c-1.222,0.056-2.473,0.259-3.634,0.635c-3.793,1.231-5.47,4.532-5.146,8.335
			C564.63,112.173,564.906,113.457,565.109,114.759"/>
		<path clip-path="url(#SVGID_2_)" fill-rule="evenodd" clip-rule="evenodd" fill="#CA342C" d="M644.221,37.217
			c1.234-1.826,2.414-3.607,3.646-5.351c0.166-0.234,0.593-0.403,0.898-0.403c8.114-0.018,16.229-0.009,24.343-0.001
			c0.109,0,0.22,0.059,0.708,0.198c-1.044,1.125-1.876,2.215-2.899,3.081c-1.884,1.596-4.166,2.431-6.608,2.465
			c-6.554,0.091-13.108,0.049-19.664,0.057C644.488,37.263,644.332,37.229,644.221,37.217"/>
		<path clip-path="url(#SVGID_2_)" fill-rule="evenodd" clip-rule="evenodd" fill="#CA342C" d="M658.557,41.064
			c-1.359,2.179-3.089,3.751-5.379,4.493c-1.646,0.533-3.416,0.917-5.139,0.949c-6.032,0.116-12.067,0.052-18.102,0.052
			c-0.229,0-0.458-0.04-0.827-0.075c0.169-0.286,0.26-0.479,0.385-0.648c1.021-1.372,2.026-2.758,3.095-4.093
			c0.28-0.351,0.763-0.767,1.155-0.77c8.031-0.044,16.063-0.032,24.096-0.027C658.023,40.947,658.208,41.005,658.557,41.064"/>
		<path clip-path="url(#SVGID_2_)" fill-rule="evenodd" clip-rule="evenodd" fill="#CA342C" d="M660.434,27.812
			c1.153-1.642,2.229-3.206,3.353-4.731c0.148-0.203,0.551-0.308,0.836-0.308c8.027-0.014,16.054-0.01,24.082-0.004
			c0.143,0,0.285,0.046,0.597,0.101c-1.028,1.584-2.233,2.848-3.817,3.461c-1.83,0.707-3.794,1.41-5.718,1.466
			c-6.266,0.185-12.538,0.074-18.809,0.074C660.802,27.871,660.646,27.837,660.434,27.812"/>
		<path clip-path="url(#SVGID_2_)" fill-rule="evenodd" clip-rule="evenodd" fill="#C52428" d="M668.557,71.434
			c-6.387,1.015-15.896-4.582-18.682-10.993C656.304,60.082,666.625,66.156,668.557,71.434"/>
		<path clip-path="url(#SVGID_2_)" fill-rule="evenodd" clip-rule="evenodd" fill="#C52428" d="M524.595,114.564
			c2.876-0.755,5.819-1.318,8.612-2.31c4.202-1.489,8.256-1.512,12.455-0.001c2.619,0.942,5.389,1.458,8.09,2.171
			c0.207,0.055,0.404,0.147,0.572,0.382h-29.666C524.637,114.726,524.616,114.645,524.595,114.564"/>
		<path clip-path="url(#SVGID_2_)" fill-rule="evenodd" clip-rule="evenodd" fill="#C52428" d="M573.612,19.88
			c-1.434,0.9-2.758,1.514-3.812,2.437c-2.506,2.198-5.469,1.631-8.403,1.733C562.791,21.255,568.737,18.375,573.612,19.88"/>
		<path clip-path="url(#SVGID_2_)" fill-rule="evenodd" clip-rule="evenodd" fill="#C52428" d="M694.112,105.439
			c-3.448-0.263-5.408-2.231-7.105-4.652c1.455-0.888,3.725-0.607,4.69,0.694C692.566,102.652,693.232,103.975,694.112,105.439"/>
		<path clip-path="url(#SVGID_2_)" fill-rule="evenodd" clip-rule="evenodd" fill="#C52428" d="M627.009,148.32v-12.948
			c2.346,0,4.697-0.165,7.009,0.06c1.467,0.143,2.377,1.392,2.85,2.791c0.764,2.262,0.761,4.556-0.048,6.795
			c-0.697,1.924-2.135,3.115-4.181,3.273C630.819,148.432,628.979,148.32,627.009,148.32"/>
		<path clip-path="url(#SVGID_2_)" fill-rule="evenodd" clip-rule="evenodd" fill="#C52428" d="M658.567,153.559h-9.357
			c1.479-4.435,2.92-8.751,4.359-13.066l0.322-0.033C655.437,144.789,656.982,149.12,658.567,153.559"/>
		<path clip-path="url(#SVGID_2_)" fill-rule="evenodd" clip-rule="evenodd" fill="#CA342C" d="M25.013,71.426
			c0-3.959,0.058-11.602,0.129-12.072c3.32,0.162,6.644,0.09,9.892,0.553c3.2,0.459,4.311,2.373,4.251,6.138
			c-0.042,2.631-1.605,4.606-4.449,4.927C31.644,71.33,28.407,71.287,25.013,71.426"/>
		<path clip-path="url(#SVGID_2_)" fill-rule="evenodd" clip-rule="evenodd" fill="#CA342C" d="M124.062,71.916
			c-2.01-4.282-8.305-4.54-10.887-0.579c-2.212,3.394-2.04,9.586,0.356,12.851c2.75,3.747,8.771,3.329,10.594-0.933
			C125.961,78.961,124.883,73.666,124.062,71.916z"/>
		<path clip-path="url(#SVGID_2_)" fill-rule="evenodd" clip-rule="evenodd" fill="#CA342C" d="M358.163,74.631h-12.359
			c-0.372-2.992,2.359-5.889,5.631-6.031C355.518,68.422,358.292,70.876,358.163,74.631"/>
		<path clip-path="url(#SVGID_2_)" fill-rule="evenodd" clip-rule="evenodd" fill="#CA342C" d="M251.751,74.645H239.16
			c-0.038-1.94,0.692-3.532,2.146-4.676c2.159-1.698,4.654-1.865,7.11-0.808C250.667,70.13,251.347,72.238,251.751,74.645"/>
		<path clip-path="url(#SVGID_2_)" fill-rule="evenodd" clip-rule="evenodd" fill="#CA342C" d="M144.903,74.634
			c-0.305-3.166,2.485-5.978,5.914-6.037c3.934-0.068,6.68,2.475,6.443,6.037H144.903z"/>
		<path clip-path="url(#SVGID_2_)" fill-rule="evenodd" clip-rule="evenodd" fill="#CA342C" d="M424.028,74.636
			c-0.325-3.152,2.475-5.979,5.902-6.039c3.938-0.069,6.667,2.45,6.455,6.039H424.028z"/>
		<path clip-path="url(#SVGID_2_)" fill-rule="evenodd" clip-rule="evenodd" fill="#CA342C" d="M389.862,72.234
			c-1.005-2.457-3.007-3.606-5.658-3.641c-2.703-0.034-4.777,1.081-5.829,3.58c-1.517,3.606-1.526,7.322-0.003,10.931
			c1.058,2.497,3.133,3.61,5.835,3.573c2.651-0.035,4.647-1.187,5.659-3.641C391.07,80.117,391.117,75.305,389.862,72.234z"/>
		<path clip-path="url(#SVGID_2_)" fill-rule="evenodd" clip-rule="evenodd" fill="#C52428" d="M31.408,117.8h-7.979
			c2.027-3.534,3.971-6.925,5.916-10.315c0.13,0.007,0.261,0.016,0.392,0.023C30.288,110.903,30.839,114.297,31.408,117.8"/>
		<path clip-path="url(#SVGID_2_)" fill-rule="evenodd" clip-rule="evenodd" fill="#C52428" d="M324.11,118.102
			c-0.122,4.393-2.513,6.592-6.057,6.282c-1.295-0.113-2.379-0.866-2.607-1.909c-0.313-1.439,0.223-2.662,1.587-3.24
			c0.828-0.351,1.738-0.563,2.632-0.69C321.142,118.333,322.636,118.243,324.11,118.102"/>
		<path clip-path="url(#SVGID_2_)" fill-rule="evenodd" clip-rule="evenodd" fill="#CA342C" d="M99.963,117.415
			c0.47-3.08,2.644-5.158,5.284-5.163c2.605-0.005,4.037,1.481,3.96,4.122c-0.01,0.313-0.078,0.626-0.132,1.041H99.963z"/>
		<path clip-path="url(#SVGID_2_)" fill-rule="evenodd" clip-rule="evenodd" fill="#CA342C" d="M150.748,117.45h-8.917
			c0.116-3.269,3.445-6.401,7.119-4.862C150.646,113.299,151.279,115.141,150.748,117.45"/>
		<path clip-path="url(#SVGID_2_)" fill-rule="evenodd" clip-rule="evenodd" fill="#CA342C" d="M215.842,117.456h-8.979
			c-0.086-3.328,3.819-6.161,6.82-5.015C215.52,113.145,216.256,114.781,215.842,117.456"/>
		<path clip-path="url(#SVGID_2_)" fill-rule="evenodd" clip-rule="evenodd" fill="#CA342C" d="M274.513,116.748
			c0.038,2.078-0.567,3.864-1.703,5.468c-1.221,1.725-2.913,2.417-5,2.145c-1.603-0.209-2.973-1.502-3.205-3.276
			c-0.356-2.73,0.224-5.253,2.176-7.313c1.44-1.521,3.602-2.017,5.378-1.237C274.029,113.354,274.577,114.94,274.513,116.748"/>
		<path clip-path="url(#SVGID_2_)" fill-rule="evenodd" clip-rule="evenodd" fill="#FFFFFF" d="M348.14,60.19
			c1.004-1.49,2.066-2.714,2.729-4.125c1.354-2.878,3.439-3.976,6.558-3.438c1.154,0.197,2.371,0.031,3.56,0.031
			c0.121,0.155,0.243,0.31,0.364,0.466c-0.346,0.175-0.75,0.286-1.027,0.538c-2.164,1.952-4.285,3.957-6.47,5.886
			c-0.398,0.352-1.023,0.579-1.561,0.615C350.994,60.251,349.686,60.19,348.14,60.19"/>
		<path clip-path="url(#SVGID_2_)" fill-rule="evenodd" clip-rule="evenodd" fill="#FFFFFF" d="M523.748,88.236v1.046
			c0.327-0.508,0.751-0.615,0.751-0.615c0.381-0.188,0.63,0.238,0.63,0.238l-0.1,2.646c-0.128,0.429-0.329,0.724-0.329,0.724
			l1.583-0.347c-0.35-0.188-0.475-0.588-0.475-0.588l0.023-2.674c0.378-0.86,1.578-0.08,1.578-0.08l-0.023-0.938L523.748,88.236z"/>
		<path clip-path="url(#SVGID_2_)" fill-rule="evenodd" clip-rule="evenodd" fill="#FFFFFF" d="M527.661,87.57
			c0.427,0.132,0.478,0.427,0.478,0.427l-0.051,2.673c-0.022,0.616-0.376,0.99-0.376,0.99l1.556-0.319
			c-0.326-0.188-0.426-0.615-0.426-0.615v-2.784c0.076-0.344,0.373-0.693,0.373-0.693L527.661,87.57z"/>
		<path clip-path="url(#SVGID_2_)" fill-rule="evenodd" clip-rule="evenodd" fill="#FFFFFF" d="M526.835,100.78
			c-0.252,0.243-0.954,0.32-0.954,0.32c-1.354-0.162-1.954,0.99-1.954,0.99c-0.778,1.738,0.096,2.941,0.096,2.941
			c1.51,1.661,2.987-0.241,2.987-0.241c0.327-0.613-0.247-0.401-0.247-0.401c-1.01,1.177-1.984,0.162-1.984,0.162
			c-0.728-1.606,0-2.514,0-2.514c0.501-0.67,1.479-0.533,1.479-0.533c0.304,0.265,0.577,0.613,0.577,0.613V100.78z"/>
		<path clip-path="url(#SVGID_2_)" fill-rule="evenodd" clip-rule="evenodd" fill="#FFFFFF" d="M527.438,100.808
			c0.4,0.267,0.525,0.696,0.525,0.696v2.912c-0.048,0.431-0.324,0.832-0.324,0.832l2.708-0.589c0.5-0.294,0.35-1.098,0.35-1.098
			c-0.297,0.563-1.028,0.722-1.028,0.722l-0.775,0.082l-0.051-1.15c0.502-0.644,1.053-0.244,1.053-0.244l-0.05-1.097
			c-0.451,0.538-1.028,0.374-1.028,0.374l0.025-1.066c0.128-0.4,0.552-0.349,0.552-0.349l0.676-0.025c0.277,0,0.45,0.293,0.45,0.293
			c0-0.854-0.801-0.854-0.801-0.854L527.438,100.808z"/>
		<path clip-path="url(#SVGID_2_)" fill-rule="evenodd" clip-rule="evenodd" fill="#FFFFFF" d="M533.231,99.336
			c0.676,0.267,0.524,0.695,0.524,0.695v2.914c-0.049,0.429-0.553,0.884-0.553,0.884l2.939-0.643c0.5-0.293,0.348-1.097,0.348-1.097
			c-0.3,0.563-1.027,0.726-1.027,0.726l-0.775,0.078l-0.077-1.311c0.501-0.644,1.079-0.079,1.079-0.079l-0.05-1.098
			c-0.454,0.533-1.029,0.374-1.029,0.374l0.023-1.071c0.128-0.4,1.229-0.373,1.229-0.373c0.279,0,0.453,0.291,0.453,0.291
			c0-0.852-0.804-0.852-0.804-0.852L533.231,99.336z"/>
		<path clip-path="url(#SVGID_2_)" fill-rule="evenodd" clip-rule="evenodd" fill="#FFFFFF" d="M541.837,78.956
			c0.521,0.4,0.625,1.02,0.625,1.02l1.006,3.528c0.348,0.349,0.676,0.052,0.676,0.052l1.229-3.235
			c0.249-0.533,0.625-0.882,0.625-0.882l-1.177-0.188c0.323,0.268,0.148,0.855,0.148,0.855l-0.952,2.221l-0.779-2.564
			c0.075-0.406,0.451-0.672,0.451-0.672L541.837,78.956z"/>
		<path clip-path="url(#SVGID_2_)" fill-rule="evenodd" clip-rule="evenodd" fill="#FFFFFF" d="M550.086,80.428
			c0.303,0.351,0.376,0.805,0.376,0.805l-0.122,2.619c-0.075,0.4-0.478,0.615-0.478,0.615l1.305,0.32
			c-0.277-0.32-0.378-0.75-0.378-0.75v-0.88c0.101-0.457,0.35-0.511,0.35-0.511l1.582,2.621c0.577,0.401,0.577-0.347,0.577-0.347
			v-3.236c0.101-0.318,0.479-0.669,0.479-0.669l-1.129-0.051c0.224,0.13,0.198,0.345,0.198,0.345l-0.048,2.012
			c-0.882-0.3-1.832-2.571-1.832-2.571C550.514,80.321,550.086,80.428,550.086,80.428"/>
		<path clip-path="url(#SVGID_2_)" fill-rule="evenodd" clip-rule="evenodd" fill="#FFFFFF" d="M545.197,85.669
			c-0.127-0.025-0.202,0.082-0.328,0.056c-1.655-0.537-2.354,0.052-2.354,0.052c-1.583,1.604-0.429,3.291-0.429,3.291
			c1.906,2.193,3.136-0.215,3.136-0.215c0.225-0.454,0.655-0.938,0.655-0.938l-1.987-0.452c0.704,0.452,0.704,0.909,0.704,0.909
			c0,1.096-0.953,1.015-0.953,1.015c-1.328-0.612-1.007-1.816-1.007-1.816c0.081-1.604,1.333-1.58,1.333-1.58
			c0.753-0.051,1.177,0.992,1.177,0.992L545.197,85.669z"/>
		<path clip-path="url(#SVGID_2_)" fill-rule="evenodd" clip-rule="evenodd" fill="#FFFFFF" d="M545.998,86.154
			c0.328,0.187,0.328,0.479,0.328,0.479v2.619c-0.073,0.508-0.578,0.857-0.578,0.857s2.331,0.641,2.908,0.508l0.123-0.776
			c-0.647,0.508-1.753,0.242-1.753,0.242l0.126-1.232c0.449-0.321,0.953,0.455,0.953,0.455l-0.026-1.549
			c-0.377,0.479-0.927,0.264-0.927,0.264l0.05-0.881c0.025-0.457,0.326-0.375,0.326-0.375h0.502
			c0.425,0.133,0.804,0.508,0.804,0.508c-0.126-0.774-0.502-0.826-0.502-0.826L545.998,86.154z"/>
		<path clip-path="url(#SVGID_2_)" fill-rule="evenodd" clip-rule="evenodd" fill="#FFFFFF" d="M549.259,86.847
			c0.4,0.32,0.451,0.879,0.451,0.879l-0.051,2.25c-0.023,0.534-0.627,0.75-0.627,0.75l3.012,0.747l0.452-1.147
			c-0.405,0.425-0.881,0.48-0.881,0.48h-0.751c-0.524-0.269-0.322-0.965-0.322-0.965v-2.034c0.172-0.398,0.474-0.666,0.474-0.666
			L549.259,86.847z"/>
		<path clip-path="url(#SVGID_2_)" fill-rule="evenodd" clip-rule="evenodd" fill="#FFFFFF" d="M552.922,87.543
			c0.351,0.372,0.426,0.644,0.426,0.644l-0.05,2.754c-0.151,0.481-0.427,0.773-0.427,0.773l1.604,0.158
			c-0.35-0.346-0.426-0.882-0.426-0.882l0.103-2.593c0.124-0.269,0.374-0.456,0.374-0.456L552.922,87.543z"/>
		<path clip-path="url(#SVGID_2_)" fill-rule="evenodd" clip-rule="evenodd" fill="#FFFFFF" d="M544.895,92.33
			c-0.929-0.324-1.782-0.324-1.782-0.324c-1.15,0.27-0.926,1.259-0.926,1.259c0.328,1.15,1.454,1.42,1.454,1.42
			c1.004,0.452,0.802,1.066,0.802,1.066c-0.45,0.537-1.177,0.321-1.177,0.321c-0.552-0.508-0.88-1.338-0.88-1.338
			c-0.65,1.232,0.678,1.661,0.678,1.661c1.431,0.479,1.831-0.188,1.831-0.188c0.702-0.908-0.024-1.687-0.024-1.687
			c-0.854-0.772-1.182-0.694-1.182-0.694c-1.252-0.667-0.321-1.281-0.321-1.281c0.75-0.458,1.503,0.987,1.503,0.987L544.895,92.33z"
			/>
		<path clip-path="url(#SVGID_2_)" fill-rule="evenodd" clip-rule="evenodd" fill="#FFFFFF" d="M545.694,92.545v0.987
			c0.429-0.48,1.132-0.454,1.132-0.454v2.917c0,0.612-0.572,0.961-0.572,0.961l1.726,0.239c-0.224-0.239-0.326-0.692-0.326-0.692
			v-2.621c0.103-0.484,0.603-0.402,0.603-0.402c0.523,0.106,0.877,0.67,0.877,0.67v-0.963L545.694,92.545z"/>
		<path clip-path="url(#SVGID_2_)" fill-rule="evenodd" clip-rule="evenodd" fill="#FFFFFF" d="M542.26,98.884
			c0.555,0.398,0.502,0.852,0.502,0.852l-0.952,2.221c-0.125,0.456-0.604,0.563-0.604,0.563l1.23,0.451
			c-0.3-0.478-0.177-0.881-0.177-0.881l0.703-1.257l0.852,1.687l1.205-1.446l0.454,1.742c0,0.532-0.454,0.801-0.454,0.801
			l4.366,1.016l0.123-1.069c-0.348,0.427-0.675,0.562-0.675,0.562l-1.004-0.295c-0.229-0.241-0.101-0.644-0.101-0.644l0.148-0.479
			c0.254-0.481,0.628,0.186,0.628,0.186l0.104-1.389c-0.504,0.344-0.827,0.079-0.827,0.079l0.048-0.644
			c0.376-0.937,1.454,0.215,1.454,0.215l0.126-0.615l-2.632-0.774c0.196,0.238,0.346,0.51,0.346,0.51l-0.171,2.887
			c-0.075,0.349-0.327,0.293-0.327,0.293c-0.401-0.215-0.373-0.483-0.373-0.483l-0.477-2.725c0.101-0.374,0.496-0.481,0.496-0.481
			c-0.676-0.296-1.027-0.138-1.027-0.138l-1.001,1.397l-0.678-1.581C542.989,98.884,542.26,98.884,542.26,98.884"/>
		<path clip-path="url(#SVGID_2_)" fill-rule="evenodd" clip-rule="evenodd" fill="#FFFFFF" d="M550.789,97.946l1.679,0.4
			c-0.323-0.374-0.377-0.882-0.377-0.882l-1.254-3.746c-0.323-0.4-0.597-0.051-0.597-0.051l-1.258,2.861
			c-0.226,0.533-0.703,0.775-0.703,0.775l1.381,0.43c-0.375-0.404-0.301-0.832-0.301-0.832l0.301-0.427l1.054,0.157
			c0.453,0.109,0.403,0.778,0.403,0.778L550.789,97.946z M549.889,95.888l0.399-0.752l0.302,0.803L549.889,95.888z"/>
		<path clip-path="url(#SVGID_2_)" fill-rule="evenodd" clip-rule="evenodd" fill="#FFFFFF" d="M547.904,84.063l1.806,0.323
			c0,0-0.499-0.561-0.7-1.229l-1.006-3.076c0,0-0.249-0.509-0.625-0.026l-1.355,2.564c0,0-0.2,0.67-0.751,0.885l1.33,0.404
			c0,0-0.403-0.619-0.027-1.181c0,0,0.877-0.881,1.58,0.506C548.155,83.233,548.332,83.826,547.904,84.063 M547.124,81.847
			l0.328-0.537l0.25,0.589L547.124,81.847z"/>
		<path clip-path="url(#SVGID_2_)" fill-rule="evenodd" clip-rule="evenodd" fill="#FFFFFF" d="M534.11,95.486
			c0.753,0.613,1.553,0.989,1.553,0.989l1.28-0.242c-1.029-0.238-1.732-1.068-1.732-1.068c0.831-0.431,0.778-1.497,0.778-1.497
			c0-1.284-1.328-1.123-1.328-1.123l-2.106,0.507c0.525,0.374,0.477,0.882,0.477,0.882l-0.049,2.542
			c-0.679,0.186-0.954-0.51-0.954-0.51l-1.606-2.433c-0.275-0.322-0.502-0.055-0.502-0.055l-0.728,3.317
			c-0.3,0.938-0.754,0.16-0.754,0.16l-0.677-2.059c0.028-0.511,0.553-0.937,0.553-0.937l-0.978,0.028
			c-0.327,0.16-0.527,0.665-0.527,0.665l-0.6,1.899l-0.955-1.548c-0.476-0.485-1.606-0.057-1.606-0.057
			c0.604,0.057,0.676,0.508,0.676,0.508l-0.322,2.782c-0.099,0.536-0.552,0.856-0.552,0.856l1.604-0.32
			c-0.749-0.214-0.627-0.615-0.627-0.615l0.501-1.685l1.204,1.603l1.053-2.005l0.629,1.392c0.125,0.532-0.427,0.882-0.427,0.882
			l2.76-0.72c-0.73-0.138-0.501-0.726-0.501-0.726c0.501-1.095,1.681-0.641,1.681-0.641c0.399,0.669-0.026,1.15-0.026,1.15
			l2.983-0.588c-0.548-0.216-0.676-0.724-0.676-0.724l0.099-0.508L534.11,95.486z M533.782,93.612c0,0,0.378-0.534,0.75-0.452
			c0,0,0.931,0.051,0.555,1.066c0,0-0.3,0.592-1.305,0.457V93.612z M529.968,95.807l0.33-0.937l0.423,0.722L529.968,95.807z"/>
		<path clip-path="url(#SVGID_2_)" fill-rule="evenodd" clip-rule="evenodd" fill="#FFFFFF" d="M533.481,88.372
			c0.802-1.632-0.499-1.793-0.499-1.793l-2.784,0.479c0.273,0.244,0.321,0.512,0.321,0.512v2.754
			c-0.173,0.56-0.249,0.828-0.249,0.828l2.933-0.615C534.91,89.602,533.481,88.372,533.481,88.372 M531.273,87.515
			c0,0,0.678-0.749,1.508-0.241c0,0,0.553,0.483-0.354,1.124c0,0-0.726,0.377-1.102-0.025L531.273,87.515z M532.606,90.11
			c0,0-0.881,0.399-1.207,0.029v-0.994c0,0,1.309-0.748,1.703,0.028C533.103,89.174,533.481,89.816,532.606,90.11"/>
		<path clip-path="url(#SVGID_2_)" fill-rule="evenodd" clip-rule="evenodd" fill="#FFFFFF" d="M535.69,83.637
			c-0.328-0.133-0.404-0.404-0.404-0.404l-1.204-1.385l0.632-1.741c0.122-0.267,0.352-0.479,0.352-0.479l-1.031,0.136
			c-0.149,0.265,0.148,0.396,0.148,0.396l-0.447,1.231l-0.681-0.881c0.178-0.351-0.101-0.534-0.101-0.534l-1.178,0.184
			c0.05,0.403,0.399,0.484,0.399,0.484l1.104,1.442l-0.499,1.444c-0.102,0.378-0.605,0.508-0.605,0.508
			c-0.474-0.051-0.726-0.533-0.726-0.533l-1.605-3.022c-0.126-0.188-0.379,0.08-0.379,0.08l-1.075,3.64
			c-0.075,0.559-0.451,0.854-0.451,0.854l1.13-0.054c-0.228-0.215-0.252-0.669-0.252-0.669c0.225-0.907,0.948-0.962,0.948-0.962
			c0.78-0.139,1.011,0.455,1.011,0.455c0.047,0.426-0.129,0.909-0.129,0.909l2.786-0.672c-0.153-0.237-0.074-0.615-0.074-0.615
			l0.376-0.721l0.548,0.562c0.128,0.348-0.05,0.618-0.05,0.618L535.69,83.637z M529.466,82.701l0.253-0.588l0.249,0.533
			L529.466,82.701z"/>
		<path clip-path="url(#SVGID_2_)" fill-rule="evenodd" clip-rule="evenodd" fill="#FFFFFF" d="M549.41,100.512l0.426,0.643
			l1.001,3.664c0.503,0.668,0.757,0.24,0.757,0.24l1.429-2.889l0.854-0.587l-1.456-0.347c0.302,0.318,0.1,0.747,0.1,0.747
			l-0.904,1.738l-0.726-2.167c0.099-0.48,0.479-0.641,0.479-0.641L549.41,100.512z"/>
		<path clip-path="url(#SVGID_2_)" fill-rule="evenodd" clip-rule="evenodd" fill="#FFFFFF" d="M556.158,101.77
			c-0.902-0.43-1.656-0.134-1.656-0.134c-1.204,0.534-0.524,1.712-0.524,1.712c0.775,0.482,1.402,0.91,1.402,0.91
			c0.477,0.641,0,1.07,0,1.07c-0.704,0.4-1.204-0.108-1.204-0.108c-0.399-0.321-0.429-1.229-0.429-1.229
			c-0.225,0.268-0.423,0.748-0.449,0.934c0.727,1.473,2.636,0.724,2.636,0.724c0.924-1.097-0.03-2.005-0.03-2.005
			c-0.425-0.457-1.052-0.563-1.052-0.563c-0.753-0.854,0.304-1.176,0.304-1.176c0.675,0.079,1.027,0.804,1.027,0.804L556.158,101.77
			z"/>
		<path clip-path="url(#SVGID_2_)" fill-rule="evenodd" clip-rule="evenodd" fill="#FFFFFF" d="M526.21,81.366l-2.511,0.613
			c0.477,0.188,0.679,0.641,0.679,0.641v2.488c-0.126,0.479-0.504,0.883-0.504,0.883l1.759-0.428
			c-0.378-0.084-0.555-0.401-0.555-0.401l0.051-0.856c0.126-0.294,0.453-0.319,0.453-0.319l0.499-0.029
			c1.104-0.371,1.204-1.094,1.204-1.094C527.589,81.15,526.21,81.366,526.21,81.366 M526.583,83.104
			c-0.325,0.508-1.304,0.532-1.304,0.532c-0.324,0-0.201-1.336-0.201-1.336c0.303-0.64,1.003-0.401,1.003-0.401
			C527.186,81.979,526.583,83.104,526.583,83.104"/>
	</g>
	<path fill-rule="evenodd" clip-rule="evenodd" fill="#FFFFFF" d="M334.559,111.54"/>
</g>
</svg>
